<?xml version="1.0" standalone="no"?>
<!DOCTYPE svg PUBLIC "-//W3C//DTD SVG 20010904//EN"
 "http://www.w3.org/TR/2001/REC-SVG-20010904/DTD/svg10.dtd">
<svg version="1.0" xmlns="http://www.w3.org/2000/svg"
 width="1280.000000pt" height="1280.000000pt" viewBox="0 0 1280.000000 1280.000000"
 preserveAspectRatio="xMidYMid meet">
<metadata>
Created by potrace 1.14, written by Peter Selinger 2001-2017
</metadata>
<g transform="translate(0.000000,1280.000000) scale(0.100000,-0.100000)"
fill="#000000" stroke="none">
<path d="M6304 12749 c-49 -28 -100 -55 -114 -62 -14 -6 -27 -14 -30 -17 -9
-9 -89 -60 -95 -60 -3 0 -39 -22 -81 -50 -41 -27 -77 -50 -79 -50 -7 0 -405
-269 -415 -280 -3 -3 -45 -35 -95 -70 -49 -35 -92 -67 -95 -70 -3 -3 -21 -17
-40 -30 -19 -13 -40 -29 -47 -35 -17 -14 -33 -26 -78 -59 -22 -17 -42 -32 -45
-36 -3 -3 -23 -18 -45 -34 -22 -16 -44 -34 -50 -40 -5 -6 -35 -30 -65 -53 -30
-23 -67 -53 -81 -65 -15 -13 -54 -45 -88 -73 -33 -27 -61 -53 -61 -57 0 -5 -5
-8 -10 -8 -6 0 -24 -13 -40 -30 -16 -16 -32 -30 -35 -30 -3 0 -25 -19 -50 -42
-25 -24 -73 -68 -106 -98 -175 -157 -439 -417 -599 -590 -52 -57 -104 -112
-115 -124 -11 -12 -45 -50 -75 -86 -30 -36 -64 -74 -75 -85 -11 -11 -32 -36
-47 -55 -15 -19 -37 -47 -50 -62 -13 -14 -57 -70 -98 -123 -41 -54 -83 -106
-92 -116 -9 -10 -25 -30 -35 -46 -9 -15 -38 -55 -63 -88 -80 -105 -266 -383
-296 -442 -9 -18 -20 -33 -25 -33 -5 0 -9 -4 -9 -9 0 -5 -26 -54 -57 -108
-106 -183 -223 -409 -293 -568 -52 -114 -82 -187 -85 -200 -2 -5 -17 -46 -35
-89 -40 -101 -90 -244 -96 -275 -3 -13 -9 -32 -14 -41 -5 -10 -14 -35 -19 -56
-5 -22 -23 -87 -39 -146 -17 -60 -28 -108 -25 -108 3 0 0 -7 -7 -15 -7 -8 -10
-15 -8 -15 3 0 -3 -35 -14 -77 -11 -43 -21 -96 -23 -118 -2 -22 -4 -40 -5 -40
-3 0 -13 -51 -25 -130 -15 -89 -31 -232 -42 -365 -9 -109 -9 -571 0 -675 13
-146 18 -190 24 -215 3 -14 6 -29 5 -35 -2 -9 28 -179 42 -247 17 -80 31 -141
41 -178 4 -14 8 -34 10 -45 2 -11 13 -51 25 -90 12 -38 28 -90 35 -115 15 -49
70 -203 84 -235 11 -24 24 -58 25 -65 7 -44 209 -445 283 -562 12 -21 23 -42
23 -48 0 -5 4 -10 8 -10 5 0 15 -12 22 -27 20 -38 113 -177 123 -181 4 -2 7
-10 7 -18 0 -8 3 -14 8 -14 4 0 18 -17 32 -38 14 -20 27 -39 30 -42 3 -3 17
-21 30 -40 14 -19 32 -42 40 -51 8 -9 33 -38 55 -64 102 -124 171 -199 299
-324 145 -141 259 -240 406 -353 87 -66 354 -248 365 -248 3 0 22 -11 43 -23
68 -43 87 -54 92 -53 3 0 19 -9 37 -22 17 -12 36 -22 42 -22 6 0 11 -4 11 -10
0 -5 4 -10 9 -10 4 0 71 -29 147 -65 77 -36 153 -71 169 -79 17 -7 62 -28 100
-46 81 -38 90 -41 171 -69 34 -12 68 -21 78 -21 9 0 16 -5 16 -12 0 -6 2 -9 5
-6 3 3 34 -3 68 -14 59 -19 172 -50 247 -68 19 -5 46 -11 60 -15 14 -3 34 -8
45 -9 11 -2 67 -13 124 -25 56 -11 106 -20 110 -19 3 1 20 -1 36 -5 17 -4 46
-9 65 -11 73 -8 156 -18 181 -22 141 -22 604 -22 844 0 132 13 327 40 425 61
14 3 39 8 55 11 26 4 84 17 135 29 137 33 439 126 515 160 17 7 95 41 175 75
80 34 188 84 240 111 52 26 100 49 105 49 6 1 16 7 24 13 14 12 24 18 103 61
29 16 64 37 77 47 13 11 30 19 37 19 8 0 14 5 14 10 0 6 7 10 15 10 8 0 15 4
15 10 0 5 11 12 25 16 14 3 25 9 25 14 0 4 16 15 35 26 19 10 35 21 35 25 0 3
10 10 23 16 12 6 72 48 133 94 121 91 184 144 317 262 66 58 257 251 309 311
18 21 54 61 80 90 26 28 48 57 48 64 0 6 4 12 8 12 7 0 48 50 82 100 8 13 22
30 31 39 9 9 45 59 80 111 140 206 218 340 329 565 35 72 65 135 66 140 1 6
21 55 44 110 53 127 144 401 161 483 7 34 17 62 22 62 4 0 6 4 3 8 -3 5 2 35
10 66 8 32 17 70 19 85 2 14 7 40 10 56 21 108 35 187 34 193 -1 4 0 9 1 12 1
3 4 23 5 45 2 22 6 51 9 65 20 86 28 602 14 815 -4 55 -8 100 -8 100 -1 0 -3
16 -5 35 -2 33 -11 102 -20 160 -2 14 -9 61 -15 105 -7 44 -14 89 -17 100 -2
11 -6 31 -9 45 -2 14 -9 45 -14 70 -6 25 -12 54 -14 65 -1 11 -6 27 -9 35 -3
8 -9 33 -13 55 -9 52 -8 45 -39 155 -41 146 -97 324 -105 335 -5 6 -13 30 -20
55 -7 25 -21 63 -31 84 -10 22 -19 44 -19 48 0 19 -110 268 -193 438 -94 193
-290 540 -309 548 -4 2 -8 7 -8 12 0 5 -18 36 -40 69 -22 33 -40 64 -40 69 0
6 -7 12 -15 16 -8 3 -15 10 -15 15 0 10 -17 37 -75 117 -17 23 -37 52 -45 64
-36 53 -117 162 -140 188 -8 10 -40 51 -71 92 -31 41 -65 85 -75 97 -11 11
-35 41 -54 64 -66 81 -187 220 -290 333 -78 86 -457 465 -556 556 -39 36 -106
97 -149 135 -44 39 -95 85 -114 103 -19 17 -37 32 -40 32 -3 0 -24 17 -46 37
-22 20 -94 79 -160 132 -66 53 -125 101 -131 107 -6 5 -65 50 -130 100 -66 49
-124 94 -130 99 -6 6 -20 16 -30 23 -11 7 -59 42 -109 77 -147 106 -414 285
-425 285 -5 0 -10 4 -10 8 0 4 -30 25 -66 46 -36 21 -70 44 -77 50 -7 7 -15
13 -20 14 -4 1 -17 8 -30 16 -12 7 -74 44 -137 80 -63 37 -122 71 -130 76 -14
9 -64 34 -101 51 -9 4 -48 -11 -105 -42z m489 -941 c34 -23 67 -46 72 -50 6
-5 44 -32 85 -60 81 -56 91 -64 121 -90 10 -10 21 -18 24 -18 4 0 113 -81 185
-137 97 -76 338 -271 350 -283 8 -8 53 -48 100 -87 87 -74 103 -88 254 -226
159 -147 583 -577 568 -577 -3 0 4 -8 14 -18 10 -10 34 -34 53 -54 l34 -37
-69 -33 c-38 -18 -72 -33 -75 -33 -3 0 -21 -8 -40 -17 -54 -26 -103 -47 -113
-46 -5 0 -12 -4 -15 -9 -3 -5 -37 -24 -76 -42 -38 -19 -82 -42 -96 -52 -14
-10 -29 -16 -33 -12 -3 3 -6 1 -6 -5 0 -7 -4 -12 -9 -12 -31 0 -387 -246 -501
-345 -219 -192 -393 -375 -568 -600 -62 -80 -202 -290 -267 -402 -26 -46 -51
-83 -54 -83 -4 0 -7 758 -7 1685 0 927 1 1685 3 1685 2 0 32 -19 66 -42z
m-723 -1650 c0 -925 -2 -1679 -4 -1677 -2 2 -35 56 -73 120 -38 64 -86 139
-106 166 -20 28 -37 55 -37 61 0 6 -4 12 -8 14 -4 2 -23 26 -42 53 -19 28 -37
52 -40 55 -3 3 -17 21 -31 40 -15 19 -36 46 -48 60 -11 14 -24 30 -28 35 -85
113 -356 386 -493 498 -52 43 -102 84 -111 92 -9 8 -21 15 -27 15 -5 0 -12 3
-14 8 -5 12 -86 72 -97 72 -5 0 -11 4 -13 8 -5 13 -194 129 -314 192 -39 21
-79 43 -90 48 -28 17 -197 94 -209 96 -5 1 -36 14 -68 29 -55 26 -56 28 -40
45 10 10 49 53 88 96 38 43 107 117 152 164 46 47 83 87 83 88 0 2 58 58 236
231 44 43 118 112 163 153 89 80 92 83 170 150 29 25 63 54 75 65 12 11 52 44
89 74 37 30 67 58 67 62 0 4 8 10 18 13 9 4 37 24 61 46 25 22 47 40 50 40 3
0 26 18 50 40 25 22 47 40 50 40 4 0 24 16 46 35 22 19 43 35 47 35 4 0 13 6
21 14 26 27 148 116 158 116 5 0 9 4 9 8 0 4 12 15 28 24 15 9 38 26 52 37 40
33 164 119 173 120 4 1 7 -756 7 -1681z m-2232 -545 c42 -20 79 -37 82 -37 3
-1 21 -9 40 -18 75 -34 135 -61 138 -59 10 6 376 -199 392 -220 3 -3 16 -12
30 -19 23 -12 129 -88 140 -101 3 -3 14 -12 26 -20 66 -45 277 -245 385 -365
110 -122 359 -464 359 -493 0 -5 7 -14 15 -21 9 -7 13 -15 10 -18 -3 -3 2 -13
10 -22 35 -39 197 -363 255 -511 12 -30 27 -67 35 -84 25 -58 55 -138 55 -146
0 -4 5 -20 12 -36 6 -15 12 -31 13 -35 2 -5 4 -10 5 -13 1 -3 3 -8 4 -12 1 -5
12 -38 24 -74 12 -36 24 -74 27 -85 2 -10 11 -44 20 -74 9 -30 18 -62 20 -70
11 -38 26 -97 31 -120 2 -14 9 -38 14 -55 5 -16 11 -43 14 -60 2 -16 11 -64
20 -105 20 -98 25 -127 32 -175 3 -22 9 -55 14 -73 5 -18 9 -387 10 -820 l1
-787 -69 115 c-106 177 -242 372 -339 487 -10 12 -27 32 -37 45 -180 220 -450
468 -697 640 -100 70 -329 211 -329 203 0 -3 -17 5 -38 18 -34 22 -98 53 -197
97 -22 10 -66 29 -97 44 -32 15 -60 27 -63 27 -18 0 -486 245 -537 280 -14 11
-31 19 -38 19 -6 0 -18 6 -25 13 -30 26 -44 37 -50 37 -8 0 -239 154 -255 170
-3 3 -48 40 -100 82 -151 121 -328 312 -363 391 -6 15 -16 27 -21 27 -9 0 -1
85 14 145 6 22 13 54 16 70 3 17 10 38 15 48 5 9 8 17 5 17 -2 0 9 44 25 98
17 53 31 104 33 112 6 24 57 173 66 195 5 11 30 74 56 140 25 66 55 136 65
156 10 20 15 39 12 43 -4 3 -1 6 5 6 7 0 12 5 12 11 0 42 279 550 400 729 5 8
27 40 48 71 38 58 129 191 147 215 14 19 17 19 103 -23z m5313 -85 c71 -104
116 -173 205 -315 8 -13 13 -25 12 -27 -2 -2 4 -12 13 -22 20 -24 70 -111 68
-120 0 -4 3 -10 8 -13 11 -8 22 -29 93 -169 94 -186 129 -262 123 -262 -3 0 2
-9 13 -21 10 -12 18 -22 16 -23 -4 -1 5 -30 18 -61 5 -11 18 -40 28 -65 11
-25 23 -56 27 -70 4 -14 13 -38 20 -55 8 -16 30 -82 50 -145 21 -63 40 -122
43 -130 3 -8 6 -19 7 -25 2 -5 13 -46 25 -90 12 -44 23 -91 26 -105 3 -14 12
-52 20 -85 26 -101 28 -149 8 -181 -10 -16 -21 -31 -24 -34 -3 -3 -16 -21 -29
-40 -56 -80 -213 -239 -326 -328 -44 -35 -88 -70 -97 -77 -10 -8 -37 -27 -60
-42 -24 -15 -45 -30 -48 -33 -17 -19 -370 -232 -370 -224 0 3 -13 -4 -29 -15
-28 -21 -320 -166 -421 -210 -30 -13 -97 -43 -147 -67 -51 -23 -93 -40 -93
-36 0 4 -4 3 -8 -3 -4 -5 -29 -21 -57 -35 -93 -47 -240 -133 -340 -199 -85
-56 -279 -201 -295 -220 -3 -3 -34 -31 -70 -61 -83 -71 -259 -247 -330 -330
-30 -36 -57 -67 -60 -70 -4 -4 -55 -67 -97 -120 -63 -80 -193 -268 -193 -280
0 -5 -4 -10 -8 -12 -5 -1 -35 -48 -67 -103 -32 -55 -64 -108 -70 -117 -9 -14
-11 169 -10 775 1 435 5 803 8 817 4 13 9 42 12 65 3 22 8 54 12 70 3 17 7 37
8 45 4 38 37 182 79 355 2 6 6 24 10 40 14 58 39 141 74 250 20 61 37 115 38
120 2 9 26 73 49 130 4 11 9 25 10 30 15 61 228 514 247 526 5 3 10 12 11 20
5 31 228 379 289 451 13 15 34 41 48 59 157 203 432 462 630 594 25 17 51 36
58 43 7 6 19 12 27 12 7 0 15 7 19 15 3 8 10 15 15 15 6 0 34 14 63 31 50 30
227 122 238 124 3 1 36 16 74 33 38 18 70 32 72 32 1 0 54 25 116 55 62 30
118 55 124 55 6 0 49 -55 95 -122z m-6322 -2897 c101 -80 334 -241 350 -241 6
0 11 -4 11 -9 0 -5 9 -13 20 -16 11 -3 26 -12 33 -18 7 -7 37 -25 67 -41 30
-16 57 -32 60 -35 7 -8 46 -29 275 -145 196 -99 242 -121 435 -206 52 -23 101
-46 108 -52 6 -6 12 -7 12 -2 0 5 4 5 8 -1 4 -5 30 -21 57 -35 28 -14 52 -28
53 -32 2 -5 9 -8 16 -8 17 0 267 -167 351 -235 171 -137 367 -331 466 -460 13
-16 26 -32 29 -35 3 -3 17 -21 30 -40 12 -19 28 -39 34 -45 18 -16 178 -261
236 -360 67 -114 206 -401 255 -525 20 -52 41 -104 46 -115 16 -35 118 -342
135 -405 10 -38 47 -180 58 -228 l13 -52 -54 5 c-30 4 -64 8 -76 11 -11 2 -37
6 -57 9 -20 3 -47 8 -60 10 -14 3 -41 8 -60 11 -55 8 -170 35 -260 60 -30 9
-62 17 -70 19 -8 2 -16 4 -17 5 -2 2 -7 4 -13 5 -5 1 -11 3 -12 5 -2 1 -10 3
-18 5 -21 4 -171 54 -195 64 -17 8 -50 21 -65 26 -57 20 -235 99 -251 112 -9
8 -25 15 -35 18 -18 3 -109 51 -244 129 -62 36 -259 164 -270 176 -13 14 -90
70 -96 70 -4 0 -17 11 -30 25 -13 14 -27 25 -31 25 -5 0 -16 8 -24 18 -9 9
-34 31 -55 48 -95 77 -303 281 -385 379 -19 22 -42 49 -53 60 -10 11 -57 72
-105 135 -47 63 -89 117 -93 118 -5 2 -8 8 -8 12 0 12 -62 104 -72 108 -4 2
-8 8 -8 13 0 5 -22 45 -50 89 -27 44 -46 80 -43 80 3 0 -1 8 -9 18 -19 22
-120 222 -112 222 3 0 -3 12 -14 28 -11 15 -20 29 -20 32 0 3 -8 25 -18 50
-10 25 -18 48 -16 53 1 4 -2 7 -7 7 -5 0 -11 10 -14 23 -3 12 -26 82 -51 155
-25 73 -51 152 -56 175 -6 23 -13 51 -16 62 -3 11 -9 36 -14 55 -5 19 -11 46
-14 60 -4 14 -8 36 -11 50 -3 14 -7 36 -10 50 -10 50 -25 136 -29 170 -2 19
-7 55 -10 80 -14 107 -25 270 -18 270 2 0 43 -31 91 -69z m7225 -23 c-3 -40
-7 -91 -10 -113 -3 -22 -6 -53 -8 -70 -5 -44 -17 -135 -22 -159 -2 -12 -8 -46
-14 -76 -6 -30 -12 -64 -14 -76 -2 -11 -18 -74 -36 -140 -17 -65 -33 -123 -34
-129 -11 -44 -40 -132 -45 -140 -4 -5 -13 -28 -20 -50 -23 -74 -76 -200 -86
-207 -5 -4 -6 -8 -1 -8 4 0 1 -11 -8 -25 -9 -13 -16 -31 -16 -40 0 -8 -4 -15
-10 -15 -5 0 -10 -7 -10 -16 0 -9 -9 -29 -21 -45 -11 -16 -17 -29 -14 -29 4 0
-2 -15 -13 -32 -11 -18 -37 -64 -58 -103 -20 -38 -41 -71 -46 -73 -4 -2 -8 -8
-8 -14 0 -22 -231 -358 -252 -366 -4 -2 -8 -10 -8 -18 0 -8 -4 -14 -8 -14 -4
0 -22 -19 -40 -42 -96 -125 -309 -341 -469 -475 -12 -10 -31 -26 -43 -36 -44
-37 -217 -165 -260 -193 -25 -16 -47 -31 -50 -34 -7 -7 -40 -27 -85 -51 -22
-12 -42 -24 -45 -28 -3 -3 -18 -13 -35 -21 -16 -8 -32 -18 -35 -21 -3 -3 -66
-36 -140 -73 -74 -37 -142 -71 -151 -76 -9 -5 -56 -25 -105 -44 -49 -20 -98
-41 -109 -46 -78 -35 -448 -144 -562 -165 -15 -2 -39 -7 -53 -10 -24 -6 -52
-10 -115 -19 -16 -3 -47 -7 -67 -10 -95 -15 -108 -15 -108 -6 0 6 9 44 20 85
11 42 22 83 24 93 1 9 5 24 8 32 5 13 26 83 34 115 2 6 5 19 8 30 9 32 57 178
66 200 4 11 18 47 30 80 12 33 26 69 31 80 12 28 31 79 30 83 -1 1 6 17 16 35
9 17 18 34 18 37 12 46 187 390 199 390 5 0 7 3 3 6 -3 3 16 42 44 86 27 44
49 83 49 88 0 5 3 10 8 12 4 2 27 34 52 73 25 38 50 77 57 85 6 8 46 59 88
113 124 158 275 317 415 438 41 35 77 67 78 72 2 4 8 7 13 7 11 0 31 15 57 43
9 9 22 17 28 17 7 0 14 4 16 9 3 8 123 91 183 128 68 40 234 126 315 162 271
120 729 351 738 373 2 4 12 8 23 8 10 0 19 4 19 8 0 5 15 16 33 26 43 23 79
43 97 55 8 6 58 39 111 74 111 74 191 132 267 194 30 24 55 43 57 43 2 0 2
-33 -1 -72z"/>
<path d="M8197 2283 c-9 -8 -108 -45 -124 -46 -7 0 -13 -4 -13 -9 0 -4 -8 -8
-18 -8 -10 0 -28 -7 -40 -16 -12 -8 -22 -12 -22 -8 0 3 -7 1 -15 -6 -8 -7 -15
-9 -15 -6 0 4 -12 0 -27 -8 -93 -49 -493 -187 -614 -211 -9 -2 -33 -8 -53 -13
-20 -6 -36 -8 -36 -6 0 3 -8 1 -17 -5 -10 -5 -36 -11 -58 -15 -22 -3 -50 -7
-61 -10 -25 -5 -78 -14 -131 -21 -21 -3 -56 -8 -78 -12 -191 -31 -774 -36
-915 -7 -14 3 -41 7 -60 9 -81 11 -195 30 -240 40 -14 3 -38 8 -55 11 -16 3
-48 9 -70 15 -22 5 -51 12 -65 15 -36 8 -43 10 -60 16 -16 6 -98 30 -115 34
-18 4 -169 55 -190 63 -64 28 -136 52 -175 59 -56 10 -149 -7 -205 -38 -43
-23 -105 -85 -122 -122 -6 -13 -17 -36 -24 -52 -23 -47 -17 -171 10 -231 33
-73 102 -134 200 -173 45 -19 87 -35 94 -36 7 -2 19 -6 27 -9 72 -30 236 -81
360 -114 111 -28 103 -26 205 -48 133 -28 132 -28 215 -40 25 -4 56 -9 70 -11
28 -5 85 -12 145 -18 22 -3 64 -7 93 -11 224 -26 776 -19 825 12 6 3 7 2 4 -3
-3 -6 31 -4 81 3 48 7 108 15 133 18 25 3 56 8 70 11 13 2 39 7 56 9 18 3 52
9 75 14 24 6 58 13 76 16 18 3 79 17 135 31 56 14 106 27 112 27 13 3 13 -367
0 -418 -10 -39 -48 -103 -69 -117 -6 -3 -22 -16 -35 -27 -25 -22 -114 -52
-211 -71 -30 -6 -62 -14 -70 -17 -8 -4 -18 -6 -22 -5 -3 1 -41 -5 -83 -13 -42
-8 -93 -17 -113 -20 -20 -3 -48 -7 -62 -9 -29 -5 -149 -18 -200 -22 -19 -1
-102 -5 -185 -8 -212 -7 -261 -20 -341 -90 -116 -101 -133 -298 -38 -423 29
-39 114 -104 126 -97 5 3 8 1 8 -4 0 -5 6 -9 13 -10 6 0 39 -5 73 -11 53 -10
278 -8 394 3 166 16 210 21 265 29 22 4 60 9 85 13 24 3 47 7 50 9 3 2 26 6
50 9 25 3 104 20 175 36 72 17 139 33 150 35 140 31 310 126 427 237 66 64
148 166 148 186 0 5 4 12 8 14 19 7 85 174 98 246 2 12 7 34 10 50 3 15 7 339
8 720 3 684 1 714 -27 685z"/>
</g>
</svg>
