<svg width="610" height="130" viewBox="0 0 610 130" fill="none" xmlns="http://www.w3.org/2000/svg">
<path d="M91.7408 108.49H74.2508L68.3008 89.91H36.4908L30.5408 108.49H13.0508L41.7108 23.48H63.0808L91.7408 108.49ZM63.4508 74.85L53.8608 45.34H50.9508L41.3608 74.85H63.4508Z" fill="#4C4F61"/>
<path d="M158.041 92.58V108.49H99.6308V23.48H116.631V92.58H158.041Z" fill="#4C4F61"/>
<path d="M228.592 92.58V108.49H170.182V23.48H187.182V92.58H228.592Z" fill="#4C4F61"/>
<path d="M554.62 86.3899H557.53L567.13 56.8799H545.03L554.62 86.3899Z" fill="#4C4F61"/>
<path d="M247.01 0V130H610V0H247.01ZM282.61 108.24H265.73V23.24H282.61V108.24ZM366.4 108.24H350.5L316.86 53.35H315.28V108.24H299.37V23.24H315.4L349.04 76.67H350.5V23.24H366.41V108.24H366.4ZM439.14 38.66H399.43V57.61H431.85V72.55H399.43V108.25H383.16V57.61V23.24H439.14V38.66V38.66ZM494.88 108.24L476.79 77.03H466.7V108.24H451.28V23.24H481.28C495.25 23.24 507.63 32.59 507.63 49.35C507.63 61.01 501.07 69.87 492.33 74.12L512.85 108.24H494.88V108.24ZM566.76 108.24H545.39L516.73 23.23H534.22L540.17 41.81H571.99L577.94 23.23H595.43L566.76 108.24Z" fill="#4C4F61"/>
<path d="M480.059 38.4199H466.699V61.9799H480.059C486.979 61.9799 491.599 56.6399 491.599 49.5899C491.599 42.5499 486.859 38.4199 480.059 38.4199Z" fill="#4C4F61"/>
</svg>
