<svg width="743" height="158" viewBox="0 0 743 158" fill="none" xmlns="http://www.w3.org/2000/svg">
<path d="M217.567 0.00456238C197.869 0.00456238 186.631 11.154 186.631 29.6118C186.631 47.491 197.873 59.0322 217.184 59.0322C234.96 59.0322 245.333 49.9012 247.064 35.3847H233.613C232.361 43.6545 227.27 48.6528 217.28 48.6528C206.233 48.6528 199.699 42.2147 199.699 29.5206C199.699 16.8266 205.559 10.3885 217.28 10.3885C226.888 10.3885 231.883 15.1909 233.226 23.5564H246.581C244.851 9.52283 235.726 0.00456238 217.567 0.00456238Z" fill="white"/>
<path fill-rule="evenodd" clip-rule="evenodd" d="M281.451 59.0322C300.28 59.0322 311.809 47.5912 311.809 29.3247C311.809 10.2928 299.223 0.00456238 281.451 0.00456238C262.623 0.00456238 251.093 10.6801 251.093 29.712C251.093 48.744 263.679 59.0322 281.451 59.0322ZM281.451 10.3839C291.828 10.3839 298.745 16.4394 298.745 29.7075C298.745 42.5883 292.402 48.6437 281.451 48.6437C271.074 48.6437 264.157 42.201 264.157 29.3201C264.157 16.4394 270.5 10.3839 281.451 10.3839Z" fill="white"/>
<path d="M331.693 0.96139H318.821V58.0708H331.693V19.3281C335.059 12.8854 339.666 9.90549 347.066 9.90549C356.287 9.90549 360.995 14.1384 360.995 23.365V58.0663H373.868V21.5333C373.868 7.8825 366.377 0 353.118 0C341.397 0 334.958 6.05996 331.693 16.1523V0.96139Z" fill="white"/>
<path d="M392.7 40.5698H379.249C380.688 52.0108 389.244 59.0322 407.69 59.0322C426.135 59.0322 433.917 51.4367 433.917 41.2487C433.917 32.6008 429.788 26.6365 417.298 25.1967L400.099 23.1782C395.009 22.5995 393.183 20.5811 393.183 17.2184C393.183 13.1815 396.256 10.106 406.056 10.106C415.854 10.106 419.214 13.3729 419.984 18.3712H433.34C431.704 7.50888 424.687 0.0091095 406.438 0.0091095C388.188 0.0091095 380.789 7.79592 380.789 17.984C380.789 26.9235 385.497 32.3092 398.082 33.749L414.606 35.6717C420.084 36.3461 421.523 38.6516 421.523 41.7272C421.523 45.8597 417.776 48.9353 407.977 48.9353C398.178 48.9353 393.757 46.2425 392.7 40.5698Z" fill="white"/>
<path fill-rule="evenodd" clip-rule="evenodd" d="M438.813 29.7075C438.813 46.4338 449.19 59.0276 468.597 59.0276C484.834 59.0276 494.824 51.3365 497.706 39.6085H484.542C482.621 45.2811 477.721 48.6437 468.979 48.6437C459.275 48.6437 453.033 42.971 451.881 32.783H498.089C498.185 12.7851 489.537 0 468.692 0C449.955 0 438.813 12.0197 438.813 29.7075ZM484.542 24.0348H452.072C453.707 14.9038 459.663 10.0969 468.597 10.0969C478.778 10.0969 483.678 15.5737 484.542 24.0348Z" fill="white"/>
<path d="M517.3 0.96139H504.428V58.0708H517.3V19.3281C520.665 12.8854 525.273 9.90549 532.672 9.90549C541.893 9.90549 546.601 14.1384 546.601 23.365V58.0663H559.474V21.5333C559.474 7.8825 551.984 0 538.724 0C527.004 0 520.564 6.05996 517.3 16.1523V0.96139Z" fill="white"/>
<path d="M578.306 40.5698H564.856C566.295 52.0108 574.85 59.0322 593.296 59.0322C611.742 59.0322 619.523 51.4367 619.523 41.2487C619.523 32.6008 615.394 26.6365 602.904 25.1967L585.706 23.1782C580.615 22.5995 578.789 20.5811 578.789 17.2184C578.789 13.1815 581.863 10.106 591.662 10.106C601.461 10.106 604.821 13.3729 605.59 18.3712H618.946C617.311 7.50888 610.294 0.0091095 592.044 0.0091095C573.794 0.0091095 566.395 7.79592 566.395 17.984C566.395 26.9235 571.103 32.3092 583.689 33.749L600.213 35.6717C605.691 36.3461 607.129 38.6516 607.129 41.7272C607.129 45.8597 603.382 48.9353 593.583 48.9353C583.784 48.9353 579.363 46.2425 578.306 40.5698Z" fill="white"/>
<path d="M656.98 72.1044L680.903 0.965942H667.448L650.924 50.9537L633.726 0.965942H619.51L638.243 51.8195H650.637L647.468 61.5291H625.758V72.1044H656.98Z" fill="white"/>
<path d="M694.158 40.5744H680.708C682.146 52.0154 690.703 59.0367 709.148 59.0367C727.594 59.0367 735.376 51.4413 735.376 41.2532C735.376 32.6053 731.246 26.641 718.756 25.2012L701.558 23.1828C696.467 22.6041 694.641 20.5857 694.641 17.223C694.641 13.1861 697.715 10.1106 707.514 10.1106C717.313 10.1106 720.673 13.3775 721.442 18.3758H734.798C733.163 7.51344 726.146 0.0136719 707.896 0.0136719C689.646 0.0136719 682.247 7.80049 682.247 17.9885C682.247 26.9281 686.955 32.3137 699.541 33.7535L716.065 35.6763C721.543 36.3507 722.982 38.6561 722.982 41.7317C722.982 45.8643 719.234 48.9399 709.435 48.9399C699.636 48.9399 695.215 46.2471 694.158 40.5744Z" fill="white"/>
<path fill-rule="evenodd" clip-rule="evenodd" d="M156.933 79.4851V58.0699V0.965088H99.8656H78.4643C35.1296 0.965088 0 36.1174 0 79.4803C0 122.843 35.1341 158 78.4689 158C121.804 158 156.933 122.847 156.933 79.4851ZM60.6332 40.2227L99.8656 0.965088V58.0699H156.933L117.692 97.3454H60.6332V40.2227Z" fill="white"/>
</svg>
