<svg version="1.2" xmlns="http://www.w3.org/2000/svg" viewBox="0 0 850 223" width="850" height="223">
	<title>gitcoin-svg</title>
	<style>
		.s0 { fill: #0e0333 } 
		.s1 { fill: #15ebb7 } 
	</style>
	<path id="Layer" fill-rule="evenodd" className="s0" d="m318.7 120.3h39.1c0 4-0.2 7.7-0.5 11-0.3 3.3-1 6.3-2 9.1-1.4 4-3.3 7.5-5.7 10.6-2.4 3-5.3 5.6-8.5 7.6-3.2 2-6.8 3.6-10.7 4.6-3.9 1.1-8 1.6-12.3 1.6-5.9 0-11.3-1-16.2-2.9-4.8-1.9-9-4.7-12.5-8.1-3.5-3.6-6.2-7.8-8.1-12.7-1.9-5-2.9-10.4-2.9-16.4 0-5.9 0.9-11.3 2.8-16.2 1.9-5 4.7-9.2 8.1-12.7 3.6-3.5 7.8-6.2 12.8-8.1 5-1.9 10.5-2.9 16.6-2.9 7.9 0 14.8 1.7 20.8 5.1 6 3.4 10.7 8.7 14.2 15.9l-18.7 7.7c-1.7-4.2-4-7.1-6.8-8.9-2.7-1.8-5.9-2.7-9.4-2.7-2.9 0-5.6 0.6-8 1.7-2.4 1.1-4.5 2.6-6.2 4.7-1.7 2-3 4.5-4 7.3-0.9 2.9-1.4 6.1-1.4 9.6 0 3.2 0.4 6.2 1.2 8.9 0.9 2.7 2.1 5.1 3.8 7.1 1.7 2 3.8 3.6 6.2 4.7 2.5 1.1 5.4 1.6 8.6 1.6 1.9 0 3.8-0.2 5.6-0.6q2.7-0.8 4.8-2.1c1.5-1 2.7-2.3 3.6-3.8 0.9-1.5 1.6-3.4 1.9-5.6h-16.2zm136.3-17.5v62h-21v-62h-17v-18h55v18zm90 9.4c-4.6-5.6-10.2-8.4-16.9-8.4-3 0-5.7 0.5-8.3 1.6-2.5 1.1-4.6 2.6-6.5 4.4-1.8 1.8-3.3 4-4.3 6.6-1 2.6-1.5 5.3-1.5 8.3q0 4.5 1.5 8.4c1.1 2.6 2.5 4.8 4.3 6.7 1.9 1.9 4.1 3.4 6.6 4.4 2.5 1.1 5.2 1.6 8.1 1.6 6.3 0 12-2.7 17-8.1v23.4l-2 0.7c-3 1.1-5.8 1.8-8.5 2.3-2.6 0.5-5.2 0.8-7.8 0.8-5.2 0-10.3-1-15.1-2.9-4.8-2-9-4.8-12.7-8.4-3.6-3.6-6.6-7.9-8.8-12.8q-3.3-7.5-3.3-16.2c0-5.8 1.1-11.2 3.2-16 2.2-4.9 5.1-9.1 8.8-12.6 3.7-3.6 8-6.3 12.8-8.3 4.8-2 9.9-3 15.2-3 3 0 6 0.3 8.9 1 3 0.6 6.1 1.6 9.3 2.9zm20.6 12.6c0-5.6 1-10.9 3.1-15.7 2.1-4.9 5-9.2 8.7-12.8 3.7-3.6 8.1-6.5 13.2-8.5 5.2-2.1 10.9-3.1 17-3.1 6.1 0 11.8 1 16.9 3.1 5.2 2 9.6 4.8 13.3 8.5 3.8 3.6 6.7 7.9 8.8 12.8 2.1 4.8 3.1 10.1 3.1 15.7 0 5.6-1 10.9-3.1 15.8-2.1 4.8-5 9.1-8.8 12.7-3.7 3.6-8.1 6.5-13.3 8.6-5.2 2-10.8 3-16.9 3-6.2 0-11.9-1-17-3-5.1-2.1-9.5-4.9-13.2-8.6-3.7-3.6-6.6-7.9-8.7-12.7-2.1-4.9-3.1-10.1-3.1-15.8zm20.6 0c0 3 0.6 5.8 1.7 8.4 1.1 2.6 2.7 4.8 4.6 6.7 1.9 1.9 4.2 3.4 6.8 4.4 2.6 1 5.4 1.5 8.3 1.5 2.9 0 5.6-0.5 8.2-1.5 2.6-1.1 4.9-2.6 6.9-4.4 2-1.9 3.6-4.1 4.7-6.7 1.1-2.6 1.7-5.3 1.7-8.4 0-3.1-0.6-5.8-1.7-8.4-1.1-2.6-2.7-4.8-4.7-6.7-1.9-1.9-4.2-3.3-6.9-4.3-2.6-1.1-5.3-1.6-8.2-1.6-2.9 0-5.6 0.5-8.3 1.6-2.6 1-4.8 2.5-6.8 4.3-1.9 1.9-3.5 4.1-4.6 6.7-1.1 2.6-1.7 5.4-1.7 8.4zm104.8-40v80h-21v-80zm-294 0v80h-21v-80zm316 80v-80h20l39 48.9v-48.9h21v80h-20.2l-38.8-48.9v48.9z"/>
	<path id="Layer" fill-rule="evenodd" className="s1" d="m203 84.5l8.3-7.5c10.1 13.1 15.5 29.4 15.4 46.1 0 15.7-5 31.2-14.3 43.9l-14.5-11c6.9-9.6 10.7-21.3 10.7-33 0.1-12-3.7-23.8-10.7-33.6z"/>
	<path id="Layer" fill-rule="evenodd" className="s0" d="m226.9 180.1v35.9c0 2.2-1.7 4-3.9 4l-71.1-0.3c-21.9-0.4-43.2-8.4-60.1-22.5-16.9-14.1-28.5-33.6-32.9-55.2-4.4-21.6-1.2-44.1 8.9-63.7 10-19.6 26.5-35.2 46.6-44.1l0.3-22c-0.2-0.9-0.1-1.8 0.2-2.7 0.2-0.8 0.7-1.6 1.3-2.3 0.5-0.7 1.3-1.2 2.1-1.6 0.8-0.4 1.7-0.6 2.6-0.6 0.9 0 1.8 0.2 2.6 0.6 0.9 0.4 1.6 0.9 2.2 1.6 0.6 0.7 1 1.5 1.3 2.4 0.2 0.9 0.3 1.8 0.2 2.7l-0.1 17.2c5.6-1.7 11.5-2.8 17.4-3.4l0.1-13.8c-0.2-0.9-0.1-1.8 0.2-2.7 0.2-0.8 0.7-1.6 1.3-2.3 0.6-0.7 1.4-1.2 2.1-1.6 0.8-0.4 1.7-0.6 2.6-0.6 0.9 0 1.8 0.2 2.6 0.6 0.9 0.4 1.6 0.9 2.2 1.6 0.6 0.7 1 1.5 1.3 2.4 0.2 0.9 0.3 1.8 0.2 2.7l-0.1 13.4c24.6 0.8 48.1 11 65.5 28.6l3.4 3.4c1.5 1.6 1.4 4.2-0.1 5.7l-24.5 22.9-23.3 21.1c3 4.9 4.5 10.5 4.3 16.3-0.3 5.8-2.3 11.3-5.7 15.9l48.8 37.1c1 0.8 1.5 2 1.5 3.3zm-19.1 22.5c1.1 0 2-0.9 2-2l0.1-12.7c0-0.6-0.3-1.2-0.8-1.6l-47.5-36.1c-3.9 1.2-8.1 1.5-12.2 0.9-4-0.6-7.9-2.1-11.4-4.3-3.4-2.3-6.3-5.2-8.5-8.7-2.2-3.5-3.6-7.3-4.2-11.4-0.6-4.1-0.3-8.2 0.9-12.2 1.2-3.8 3.2-7.5 5.9-10.6 2.6-3.1 5.9-5.6 9.7-7.3 3.8-1.7 7.8-2.5 11.9-2.5 3.7 0 7.4 0.8 10.7 2.2l37.2-34.1c0.9-0.9 0.8-2.3-0.2-3.1-13.6-10.3-30.3-16-47.5-16-9.3 0-18.6 1.5-27.3 4.7l-0.1 32.1c0.2 0.9 0.1 1.8-0.2 2.7-0.2 0.8-0.7 1.6-1.3 2.3-0.6 0.7-1.4 1.2-2.2 1.6-0.8 0.4-1.7 0.6-2.6 0.6-0.9 0-1.8-0.2-2.6-0.6-0.9-0.4-1.5-0.9-2.1-1.6-0.6-0.7-1-1.5-1.3-2.4-0.2-0.9-0.3-1.8-0.2-2.7l0.1-26.1c-15.2 8.7-27.1 22.2-33.8 38.4-6.7 16.1-8 34.1-3.5 51 4.5 16.9 14.4 31.9 28.2 42.7 13.8 10.6 30.8 16.5 48.3 16.6zm-46-87.7c-2.1-2.2-5-3.3-7.9-3.3-2.2 0-4.4 0.7-6.3 1.8q-2.8 2-4.2 5.1c-0.9 2-1.1 4.3-0.7 6.5 0.4 2.2 1.5 4.2 3.1 5.8 1.6 1.5 3.7 2.5 5.8 3 2.1 0.5 4.3 0.3 6.4-0.6q3.2-1.3 5.1-4.1c1.2-1.9 1.9-4.1 1.9-6.3 0-3.1-1.2-5.9-3.2-7.9z"/>
</svg>