<?xml version="1.0" standalone="no"?>
<!DOCTYPE svg PUBLIC "-//W3C//DTD SVG 1.0//EN" "http://www.w3.org/TR/2001/REC-SVG-20010904/DTD/svg10.dtd">
<svg xmlns="http://www.w3.org/2000/svg" xmlns:xlink="http://www.w3.org/1999/xlink" id="body_1" width="330" height="84">

<g transform="matrix(3 0 0 3 0 0)">
	<g>
        <path d="M45.5211 4.46114C 43.4964 4.46114 42.0241 4.93816 40.7733 6.03856L40.7733 6.03856L38.5644 7.94588C 38.3803 8.09301 38.0121 8.20297 37.7549 7.98228C 37.4969 7.76235 37.4604 7.46886 37.6811 7.17537L37.6811 7.17537L38.8589 5.41442C 39.043 5.15733 38.8962 4.82743 38.5644 4.82743L38.5644 4.82743L35.7302 4.82743C 35.3992 4.82743 35.1413 5.08452 35.1413 5.41442L35.1413 5.41442L35.1413 22.5841C 35.1413 22.914 35.3992 23.1711 35.7302 23.1711L35.7302 23.1711L38.6748 23.1711C 39.0058 23.1711 39.2637 22.914 39.2637 22.5841L39.2637 22.5841L39.2637 12.8988C 39.2637 8.46006 42.9813 7.76311 44.3798 7.76311C 47.3609 7.76311 48.4284 9.89112 48.4284 11.5049L48.4284 11.5049L48.4284 22.5841C 48.4284 22.914 48.6863 23.1711 49.0173 23.1711L49.0173 23.1711L51.9618 23.1711C 52.2928 23.1711 52.5508 22.914 52.5508 22.5841L52.5508 22.5841L52.5508 11.1379C 52.5508 7.029 49.8634 4.46114 45.5203 4.46114L45.5203 4.46114L45.5211 4.46114z" stroke="none" fill="#000000" fill-rule="nonzero" />
        <path d="M64.5489 4.38757C 58.8439 4.38757 55.2001 7.87307 55.2001 12.6053L55.2001 12.6053L55.2001 15.2104C 55.2001 20.1997 58.8439 23.6117 64.5489 23.6117C 69.5912 23.6117 73.1246 21.0067 73.4929 17.4848C 73.5302 17.1177 73.2723 16.8614 72.904 16.8614L72.904 16.8614L70.0332 16.8614C 69.7753 16.8614 69.5546 17.0085 69.4808 17.2648C 69.1126 18.4388 67.3831 20.1997 64.5489 20.1997C 61.7146 20.1997 59.0645 18.1453 59.1011 15.2104L59.1011 15.2104L59.1383 11.9456C 59.1749 9.48766 61.7519 7.80027 64.5489 7.80027C 67.0887 7.80027 69.5546 9.23133 69.8118 11.5793C 69.8331 11.8508 69.6459 12.0957 69.3774 12.1473L69.3774 12.1473L61.125 13.7437C 60.794 13.8172 60.5361 14.1107 60.5361 14.477L60.5361 14.477L60.5361 14.5134C 60.5361 14.8433 60.867 15.1368 61.3456 15.1368L61.3456 15.1368L73.1977 15.1368C 73.5233 15.1368 73.7866 14.8737 73.7866 14.5498L73.7866 14.5498L73.7866 12.2391C 73.7866 7.87383 69.9952 4.38833 64.5481 4.38833L64.5481 4.38833L64.5489 4.38757z" stroke="none" fill="#000000" fill-rule="nonzero" />
        <path d="M85.0863 4.38757C 80.4853 4.38757 76.5105 7.0654 76.5105 10.5873C 76.5105 10.8808 76.7685 11.1007 77.0994 11.1007L77.0994 11.1007L80.0805 11.1007C 80.375 11.1007 80.5956 10.8808 80.6329 10.5873C 80.9274 8.97348 82.8782 7.79951 84.976 7.79951C 87.4785 7.79951 89.1722 9.34053 89.1722 11.982L89.1722 11.982L89.1722 15.174C 89.1722 18.4388 86.7427 20.0898 83.7243 20.0898C 81.3687 20.0898 80.0067 19.2093 80.0067 17.7782C 80.0067 16.5307 80.6694 15.4667 83.3926 14.8433L83.3926 14.8433L87.3309 13.7793C 87.7356 13.6693 87.8832 13.3387 87.8094 12.9724C 87.7729 12.6789 87.4419 12.5318 87.1467 12.5318L87.1467 12.5318L83.0616 12.5318C 79.6019 12.5318 76.105 14.7326 76.105 17.961L76.105 17.961L76.105 18.4744C 76.105 21.7764 79.2337 23.5002 82.8037 23.5002C 85.0855 23.5002 87.0364 22.6197 88.2507 21.5929L88.2507 21.5929L90.0548 20.0519C 90.3492 19.7948 90.6437 19.7948 90.9008 20.0519C 91.1215 20.2718 91.0477 20.6024 90.8636 20.8588L90.8636 20.8588L89.7595 22.5833C 89.5754 22.8404 89.7223 23.1703 90.054 23.1703L90.054 23.1703L92.7041 23.1703C 93.0351 23.1703 93.293 22.9132 93.293 22.5833L93.293 22.5833L93.293 11.467C 93.293 7.21177 90.2381 4.38681 85.0848 4.38681L85.0848 4.38681L85.0863 4.38757z" stroke="none" fill="#000000" fill-rule="nonzero" />
        <path d="M109.194 4.82819L105.071 4.82819C 103.636 4.82819 102.237 5.70866 101.243 6.55274L101.243 6.55274L99.6243 7.94663C 99.4401 8.09376 99.1084 8.20372 98.8877 8.0202C 98.6298 7.83667 98.5195 7.46962 98.7409 7.17612L98.7409 7.17612L99.9187 5.41517C 100.103 5.15808 99.956 4.82819 99.6243 4.82819L99.6243 4.82819L96.8638 4.82819C 96.5328 4.82819 96.2749 5.08528 96.2749 5.41517L96.2749 5.41517L96.2749 22.5848C 96.2749 22.9147 96.5328 23.1718 96.8638 23.1718L96.8638 23.1718L99.8822 23.1718C 100.213 23.1718 100.471 22.9147 100.471 22.5848L100.471 22.5848L100.471 13.7801C 100.471 10.0011 102.017 8.31369 105.367 8.31369L105.367 8.31369L109.194 8.31369C 109.525 8.31369 109.783 8.0566 109.783 7.7267L109.783 7.7267L109.783 5.41517C 109.783 5.08528 109.525 4.82819 109.194 4.82819z" stroke="none" fill="#000000" fill-rule="nonzero" />
        <path d="M24.079 0.690475C 23.0899 0.690475 22.1715 1.20162 21.6534 2.0419L21.6534 2.0419L16.0709 10.3029C 15.889 10.5752 15.9628 10.9422 16.236 11.1235C 16.4574 11.2706 16.7503 11.2524 16.952 11.0795L16.952 11.0795L22.447 6.32901C 22.5383 6.24711 22.679 6.25545 22.7612 6.34645C 22.7985 6.38816 22.8183 6.44201 22.8183 6.49737L22.8183 6.49737L22.8183 21.3707C 22.8183 21.4935 22.7186 21.5921 22.5953 21.5921C 22.5291 21.5921 22.4668 21.5633 22.4249 21.5125L22.4249 21.5125L5.81436 1.69457C 5.27339 1.05829 4.47904 0.691234 3.64284 0.690475L3.64284 0.690475L3.0623 0.690475C 1.4911 0.690475 0.217407 1.96 0.217407 3.52605L0.217407 3.52605L0.217407 24.4739C 0.217407 26.04 1.4911 27.3095 3.0623 27.3095C 4.05143 27.3095 4.9698 26.7984 5.48795 25.9581L5.48795 25.9581L11.0705 17.6971C 11.2523 17.4248 11.1785 17.0578 10.9053 16.8765C 10.6839 16.7294 10.391 16.7476 10.1894 16.9205L10.1894 16.9205L4.69436 21.671C 4.60306 21.7529 4.4623 21.7445 4.38013 21.6535C 4.34284 21.6118 4.32306 21.558 4.32382 21.5026L4.32382 21.5026L4.32382 6.62554C 4.32382 6.50268 4.42349 6.40409 4.54675 6.40409C 4.61219 6.40409 4.67534 6.43291 4.71719 6.48372L4.71719 6.48372L21.3255 26.3054C 21.8664 26.9417 22.6608 27.3088 23.497 27.3095L23.497 27.3095L24.0775 27.3095C 25.6487 27.3103 26.9232 26.0415 26.9247 24.4755L26.9247 24.4755L26.9247 3.52605C 26.9247 1.96 25.651 0.690475 24.0798 0.690475L24.0798 0.690475L24.079 0.690475z" stroke="none" fill="#000000" fill-rule="nonzero" />
	</g>
</g>
</svg>