<?xml version="1.0" standalone="no"?>
<!DOCTYPE svg PUBLIC "-//W3C//DTD SVG 1.0//EN" "http://www.w3.org/TR/2001/REC-SVG-20010904/DTD/svg10.dtd">
<svg xmlns="http://www.w3.org/2000/svg" xmlns:xlink="http://www.w3.org/1999/xlink" id="body_1" width="382" height="108">

<g transform="matrix(1.4980392 0 0 1.5 0 0)">
	<g transform="matrix(1.5 0 0 1.5 0 0)">
		<g transform="matrix(1.5 0 0 1.5 0.2500019 -0)">
			<g>
                <path d="M31.5983 13.258C 31.3411 13.5152 30.9923 13.6597 30.6286 13.6597L30.6286 13.6597L22.5954 13.6597C 28.2493 16.8732 31.3896 23.5695 31.8335 30.5163C 31.8808 31.2573 31.3298 31.9014 30.5905 31.9694L30.5905 31.9694L30.4648 30.6038C 30.4356 30.1457 30.3943 29.6902 30.3412 29.2379C 29.4895 21.9907 25.5868 15.6063 19.1083 13.6597C 18.4729 13.4688 17.8127 13.3205 17.1281 13.2184C 16.7416 13.1607 16.3473 13.1177 15.9453 13.09C 15.8817 13.0856 15.818 13.0816 15.754 13.078C 15.8133 12.8092 15.8771 12.5457 15.9453 12.2882L15.9453 12.2882L30.6286 12.2883C 30.6286 11.9012 30.6187 11.5187 30.5794 11.142C 30.5716 11.0667 30.563 10.9917 30.5536 10.9168C 29.8787 5.53499 25.2765 1.37143 19.7117 1.37143L19.7117 1.37143L14.4171 1.37143L14.417 1.37154C 14.3989 1.37147 14.3807 1.37143 14.3625 1.37143C 7.18771 1.37143 1.37143 7.1877 1.37143 14.3625C 1.37143 19.2563 4.07747 23.5182 8.07488 25.7333C 8.49339 25.9652 8.92605 26.1747 9.37124 26.3601L9.37124 26.3601L10.0769 21.3765C 10.0769 21.3765 10.1621 23.7159 10.8547 25.6652C 11.0322 26.1646 11.2495 26.6383 11.5154 27.0406C 12.4317 27.2454 13.3844 27.3535 14.3625 27.3535C 15.133 27.3535 15.8878 27.2864 16.6214 27.1578C 17.0275 27.0866 17.4271 26.9966 17.8193 26.8886C 17.9176 26.8615 18.0154 26.8333 18.1127 26.804C 17.7838 26.4399 17.4869 26.0463 17.2203 25.6284C 15.8532 23.4856 15.2804 20.7008 15.2523 17.9448C 15.8963 21.6026 17.2633 24.2111 18.9258 26.0695C 19.1056 26.2705 19.2889 26.4628 19.4751 26.6466C 22.7631 29.8928 26.9607 30.5205 29.0911 30.6143C 29.6343 30.6382 30.043 30.6273 30.2681 30.6164C 30.3962 30.6101 30.4648 30.6038 30.4648 30.6038C 30.5905 31.9694 30.5897 31.9695 30.5889 31.9696L30.5889 31.9696L30.587 31.9698L30.5823 31.9702C 30.5788 31.9705 30.5744 31.9709 30.5694 31.9713C 30.5592 31.9721 30.546 31.9732 30.5297 31.9744C 30.4972 31.9768 30.4527 31.9798 30.3968 31.9829C 30.2851 31.9891 30.1278 31.9957 29.9308 31.9986C 29.5371 32.0043 28.9823 31.9951 28.3128 31.9377C 26.9787 31.8233 25.1615 31.5149 23.2502 30.7305C 21.7666 30.1217 20.246 29.2324 18.8597 27.9542C 18.7522 28.0241 18.634 28.0793 18.508 28.1172C 17.1938 28.5128 15.8017 28.7249 14.3625 28.7249C 13.2831 28.7249 12.23 28.6056 11.2162 28.379C 10.8699 28.3015 10.5671 28.0929 10.3714 27.7969C 10.302 27.6919 10.2356 27.5839 10.1721 27.4734C 10.133 27.5015 10.0923 27.5277 10.05 27.5518C 9.68114 27.7619 9.23581 27.7893 8.84396 27.6261C 3.65321 25.4642 0 20.3415 0 14.3625C 0 6.43028 6.43029 0 14.3625 0C 14.3764 0 14.3903 1.97928E-05 14.4042 5.94657E-05C 14.4085 1.988E-05 14.4128 0 14.4171 0L14.4171 0L19.7117 0C 26.0619 0 31.2983 4.8164 31.9435 10.9997C 31.9899 11.445 32 11.8814 32 12.2883C 32 12.652 31.8555 13.0008 31.5983 13.258zM15.2522 17.9388L15.2515 17.9402C 15.2517 17.9417 15.252 17.9433 15.2523 17.9448C 15.2523 17.9434 15.2523 17.942 15.2522 17.9406C 15.2522 17.9404 15.2522 17.9402 15.2522 17.94C 15.2522 17.9396 15.2522 17.9392 15.2522 17.9388z" stroke="none" fill="#FFFFFF" fill-rule="nonzero" />
                <path d="M13.4883 11.9611L19.8434 11.9611L30.1365 11.9611C 30.1365 6.2936 25.5281 1.69922 19.8434 1.69922L19.8434 1.69922L15.0065 1.69922L13.4883 11.9611z" stroke="none" fill="#FFBA7B" fill-rule="nonzero" />
                <path d="M13.8711 7.64844C 13.8711 7.64844 18.1027 7.64844 21.7585 7.64844C 27.6263 7.64844 29.3184 11.251 29.3184 11.251L29.3184 11.251L13.8711 11.251L13.8711 7.64844z" stroke="none" fill="#F87AA3" fill-rule="nonzero" />
                <path d="M4.34766 11.0871C 4.34768 6.94489 7.61697 2.59654 11.7502 2.32401C 12.3687 2.28323 12.9359 2.37096 13.3813 2.62658C 14.0858 3.03085 14.3639 6.11997 14.0415 8.52167L14.0415 8.52167L13.9163 9.19904C 13.0705 13.7761 11.0154 20.2513 6.73612 18.4203C 4.56542 17.4915 4.34764 13.7072 4.34766 11.0871z" stroke="none" fill="#FFFFFF" fill-rule="nonzero" />
                <path d="M10.786 7.53911C 11.5246 7.53911 12.1233 6.94037 12.1233 6.2018C 12.1233 5.94931 12.0534 5.71317 11.9318 5.51171C 11.869 5.67585 11.71 5.79242 11.5238 5.79242C 11.2826 5.79242 11.0871 5.59691 11.0871 5.35574C 11.0871 5.19063 11.1787 5.04693 11.3139 4.97271C 11.152 4.90306 10.9735 4.86448 10.786 4.86448C 10.0474 4.86448 9.44871 5.46322 9.44871 6.2018C 9.44871 6.94037 10.0474 7.53911 10.786 7.53911z" stroke="none" fill="#152239" fill-rule="nonzero" />
                <path d="M13.5161 11.8513L14.8753 1.38104C 14.7051 1.37443 14.534 1.37109 14.3621 1.37109C 7.18738 1.37109 1.37109 7.18738 1.37109 14.3621C 1.37109 19.7683 4.6734 24.4033 9.37089 26.3598L9.37089 26.3598L10.0766 21.3762C 10.0766 21.3762 10.211 25.0677 11.5151 27.0402C 12.4313 27.2451 13.3841 27.3532 14.3621 27.3532C 15.666 27.3532 16.925 27.1611 18.1124 26.8037C 14.778 23.1126 14.7389 16.4003 16.0664 11.8513L16.0664 11.8513L13.5161 11.8513zM11.8447 2.77808C 13.0818 2.49475 14.0198 3.61306 13.8371 4.869L13.8371 4.869L12.4878 14.1453C 12.0443 17.1947 9.10392 19.8156 6.85258 17.7116C 5.44234 16.3936 4.4825 14.0404 5.32021 9.84638C 6.30498 4.91609 9.56771 3.29955 11.8447 2.77808z" stroke="none" fill="#152239" fill-rule="nonzero" />
                <path d="M14.1342 11.1417L24.4602 11.1417L29.4274 11.1417C 29.2465 9.59374 28.7003 8.15633 27.8827 6.91628C 26.1352 4.26616 23.1233 2.51736 19.7114 2.51736L19.7114 2.51736L15.4063 2.51736L14.1342 11.1417zM12.8065 12.2879L14.4167 1.37109L19.7114 1.37109C 25.3535 1.37109 30.0062 5.65122 30.5791 11.1417C 30.6184 11.5184 30.6282 11.9008 30.6282 12.2879L30.6282 12.2879L12.8065 12.2879z" stroke="none" fill="#152239" fill-rule="nonzero" />
                <path d="M29.673 11.9604C 28.7475 11.8313 24.2166 12.3913 24.4602 11.1417C 24.8318 9.2361 26.142 7.66343 27.8827 6.91628C 29.6338 6.16461 30.1841 12.0318 29.673 11.9604z" stroke="none" fill="#152239" fill-rule="nonzero" />
                <path d="M30.4645 30.6034C 30.4645 30.6034 14.8534 32.0398 14.8534 13.0521C 24.3463 13.0521 29.8711 21.3157 30.4645 30.6034z" stroke="none" fill="#152239" fill-rule="nonzero" />
                <path d="M54.9724 12.7876L54.9724 9.89258L42 9.89258L42 12.7876L46.9503 12.7876L46.9503 25.5611L50.0221 25.5611L50.0221 12.7876L54.9724 12.7876zM59.0257 23.2185C 57.5893 23.2185 56.2633 22.1578 56.2633 20.1246C 56.2633 18.0694 57.5893 17.0307 59.0257 17.0307C 60.4622 17.0307 61.7882 18.0694 61.7882 20.1246C 61.7882 22.1799 60.4622 23.2185 59.0257 23.2185zM59.0257 14.3567C 55.7771 14.3567 53.3241 16.7655 53.3241 20.1246C 53.3241 23.4616 55.7771 25.8926 59.0257 25.8926C 62.2744 25.8926 64.7274 23.4616 64.7274 20.1246C 64.7274 16.7655 62.2744 14.3567 59.0257 14.3567zM73.4573 25.5611L76.264 25.5611C 76.2198 25.1854 76.1535 24.434 76.1535 23.5942L76.1535 23.5942L76.1535 14.6882L73.2142 14.6882L73.2142 21.0086C 73.2142 22.2683 72.4629 23.1522 71.159 23.1522C 69.7888 23.1522 69.17 22.1799 69.17 20.9644L69.17 20.9644L69.17 14.6882L66.2308 14.6882L66.2308 21.5611C 66.2308 23.9257 67.7336 25.8484 70.3634 25.8484C 71.5126 25.8484 72.7723 25.4064 73.3689 24.3898C 73.3689 24.8318 73.4131 25.3401 73.4573 25.5611zM83.4681 17.0749C 84.9266 17.0749 85.6117 18.0031 85.8769 18.9092L85.8769 18.9092L88.5067 18.0252C 88.0426 16.1909 86.3631 14.3567 83.4018 14.3567C 80.2415 14.3567 77.7664 16.7655 77.7664 20.1246C 77.7664 23.4616 80.2857 25.8926 83.4902 25.8926C 86.3852 25.8926 88.0868 24.0362 88.573 22.2241L88.573 22.2241L85.9874 21.3622C 85.7443 22.202 84.9929 23.1964 83.4902 23.1964C 81.9874 23.1964 80.7056 22.0915 80.7056 20.1246C 80.7056 18.1578 81.9653 17.0749 83.4681 17.0749zM92.1072 20.0804C 92.1072 18.0915 93.2563 16.9202 94.8254 16.9202C 96.3724 16.9202 97.4994 18.0915 97.4994 20.0804C 97.4994 22.0694 96.3503 23.329 94.8254 23.329C 93.2342 23.329 92.1072 22.0473 92.1072 20.0804zM97.5215 24.213C 97.5215 24.7434 97.5878 25.318 97.632 25.5611L97.632 25.5611L100.439 25.5611C 100.417 25.318 100.35 24.5666 100.35 23.5942L100.35 23.5942L100.35 14.6882L97.4994 14.6882L97.4994 16.0362C 97.2342 15.4174 96.3282 14.3788 94.3834 14.3788C 91.2232 14.3788 89.1458 16.8981 89.1458 20.0804C 89.1458 23.3732 91.2674 25.8705 94.4718 25.8705C 95.9304 25.8705 97.0574 25.1191 97.5215 24.0804L97.5215 24.0804L97.5215 24.213zM105.771 19.3069C 105.771 18.0473 106.523 17.0528 107.804 17.0528C 109.219 17.0528 109.815 18.0031 109.815 19.2185L109.815 19.2185L109.815 25.5611L112.755 25.5611L112.755 18.7103C 112.755 16.3235 111.517 14.4009 108.821 14.4009C 107.65 14.4009 106.346 14.9092 105.683 16.0362L105.683 16.0362L105.683 14.6882L102.832 14.6882L102.832 25.5611L105.771 25.5611L105.771 19.3069z" stroke="none" fill="#FFFFFF" fill-rule="nonzero" />
			</g>
		</g>
	</g>
</g>
</svg>