<svg width="342" height="216" viewBox="0 0 342 216" fill="none" xmlns="http://www.w3.org/2000/svg">
<path d="M114.472 24V10.08H109.576V7.2H122.536V10.08H117.64V24H114.472ZM123.149 24V12.096H126.125V13.44H126.557C126.733 12.96 127.021 12.608 127.421 12.384C127.837 12.16 128.317 12.048 128.861 12.048H130.301V14.736H128.813C128.045 14.736 127.413 14.944 126.917 15.36C126.421 15.76 126.173 16.384 126.173 17.232V24H123.149ZM137.2 24.192C136.272 24.192 135.456 23.984 134.752 23.568C134.064 23.136 133.528 22.544 133.144 21.792C132.76 21.04 132.568 20.176 132.568 19.2V12.096H135.592V18.96C135.592 19.856 135.808 20.528 136.24 20.976C136.688 21.424 137.32 21.648 138.136 21.648C139.064 21.648 139.784 21.344 140.296 20.736C140.808 20.112 141.064 19.248 141.064 18.144V12.096H144.088V24H141.112V22.44H140.68C140.488 22.84 140.128 23.232 139.6 23.616C139.072 24 138.272 24.192 137.2 24.192ZM152.397 24.336C150.845 24.336 149.573 24 148.581 23.328C147.589 22.656 146.989 21.696 146.781 20.448L149.565 19.728C149.677 20.288 149.861 20.728 150.117 21.048C150.389 21.368 150.717 21.6 151.101 21.744C151.501 21.872 151.933 21.936 152.397 21.936C153.101 21.936 153.621 21.816 153.957 21.576C154.293 21.32 154.461 21.008 154.461 20.64C154.461 20.272 154.301 19.992 153.981 19.8C153.661 19.592 153.149 19.424 152.445 19.296L151.773 19.176C150.941 19.016 150.181 18.8 149.493 18.528C148.805 18.24 148.253 17.848 147.837 17.352C147.421 16.856 147.213 16.216 147.213 15.432C147.213 14.248 147.645 13.344 148.509 12.72C149.373 12.08 150.509 11.76 151.917 11.76C153.245 11.76 154.349 12.056 155.229 12.648C156.109 13.24 156.685 14.016 156.957 14.976L154.149 15.84C154.021 15.232 153.757 14.8 153.357 14.544C152.973 14.288 152.493 14.16 151.917 14.16C151.341 14.16 150.901 14.264 150.597 14.472C150.293 14.664 150.141 14.936 150.141 15.288C150.141 15.672 150.301 15.96 150.621 16.152C150.941 16.328 151.373 16.464 151.917 16.56L152.589 16.68C153.485 16.84 154.293 17.056 155.013 17.328C155.749 17.584 156.325 17.96 156.741 18.456C157.173 18.936 157.389 19.592 157.389 20.424C157.389 21.672 156.933 22.64 156.021 23.328C155.125 24 153.917 24.336 152.397 24.336ZM164.365 24C163.581 24 162.941 23.76 162.445 23.28C161.965 22.784 161.725 22.128 161.725 21.312V14.592H158.749V12.096H161.725V8.4H164.749V12.096H168.013V14.592H164.749V20.784C164.749 21.264 164.973 21.504 165.421 21.504H167.725V24H164.365ZM175.752 24.336C174.568 24.336 173.52 24.088 172.608 23.592C171.712 23.08 171.008 22.368 170.496 21.456C170 20.528 169.752 19.44 169.752 18.192V17.904C169.752 16.656 170 15.576 170.496 14.664C170.992 13.736 171.688 13.024 172.584 12.528C173.48 12.016 174.52 11.76 175.704 11.76C176.872 11.76 177.888 12.024 178.752 12.552C179.616 13.064 180.288 13.784 180.768 14.712C181.248 15.624 181.488 16.688 181.488 17.904V18.936H172.824C172.856 19.752 173.16 20.416 173.736 20.928C174.312 21.44 175.016 21.696 175.848 21.696C176.696 21.696 177.32 21.512 177.72 21.144C178.12 20.776 178.424 20.368 178.632 19.92L181.104 21.216C180.88 21.632 180.552 22.088 180.12 22.584C179.704 23.064 179.144 23.48 178.44 23.832C177.736 24.168 176.84 24.336 175.752 24.336ZM172.848 16.68H178.416C178.352 15.992 178.072 15.44 177.576 15.024C177.096 14.608 176.464 14.4 175.68 14.4C174.864 14.4 174.216 14.608 173.736 15.024C173.256 15.44 172.96 15.992 172.848 16.68ZM188.98 24.336C188.036 24.336 187.148 24.104 186.316 23.64C185.5 23.16 184.844 22.464 184.348 21.552C183.852 20.64 183.604 19.536 183.604 18.24V17.856C183.604 16.56 183.852 15.456 184.348 14.544C184.844 13.632 185.5 12.944 186.316 12.48C187.132 12 188.02 11.76 188.98 11.76C189.7 11.76 190.3 11.848 190.78 12.024C191.276 12.184 191.676 12.392 191.98 12.648C192.284 12.904 192.516 13.176 192.676 13.464H193.108V7.2H196.132V24H193.156V22.56H192.724C192.452 23.008 192.028 23.416 191.452 23.784C190.892 24.152 190.068 24.336 188.98 24.336ZM189.892 21.696C190.82 21.696 191.596 21.4 192.22 20.808C192.844 20.2 193.156 19.32 193.156 18.168V17.928C193.156 16.776 192.844 15.904 192.22 15.312C191.612 14.704 190.836 14.4 189.892 14.4C188.964 14.4 188.188 14.704 187.564 15.312C186.94 15.904 186.628 16.776 186.628 17.928V18.168C186.628 19.32 186.94 20.2 187.564 20.808C188.188 21.4 188.964 21.696 189.892 21.696ZM212.73 24.336C211.658 24.336 210.834 24.152 210.258 23.784C209.682 23.416 209.258 23.008 208.986 22.56H208.554V24H205.578V7.2H208.602V13.464H209.034C209.21 13.176 209.442 12.904 209.73 12.648C210.034 12.392 210.426 12.184 210.906 12.024C211.402 11.848 212.01 11.76 212.73 11.76C213.69 11.76 214.578 12 215.394 12.48C216.21 12.944 216.866 13.632 217.362 14.544C217.858 15.456 218.106 16.56 218.106 17.856V18.24C218.106 19.536 217.858 20.64 217.362 21.552C216.866 22.464 216.21 23.16 215.394 23.64C214.578 24.104 213.69 24.336 212.73 24.336ZM211.818 21.696C212.746 21.696 213.522 21.4 214.146 20.808C214.77 20.2 215.082 19.32 215.082 18.168V17.928C215.082 16.776 214.77 15.904 214.146 15.312C213.538 14.704 212.762 14.4 211.818 14.4C210.89 14.4 210.114 14.704 209.49 15.312C208.866 15.904 208.554 16.776 208.554 17.928V18.168C208.554 19.32 208.866 20.2 209.49 20.808C210.114 21.4 210.89 21.696 211.818 21.696ZM222.179 28.8V26.16H228.659C229.107 26.16 229.331 25.92 229.331 25.44V22.44H228.899C228.771 22.712 228.571 22.984 228.299 23.256C228.027 23.528 227.659 23.752 227.195 23.928C226.731 24.104 226.139 24.192 225.419 24.192C224.491 24.192 223.675 23.984 222.971 23.568C222.283 23.136 221.747 22.544 221.363 21.792C220.979 21.04 220.787 20.176 220.787 19.2V12.096H223.811V18.96C223.811 19.856 224.027 20.528 224.459 20.976C224.907 21.424 225.539 21.648 226.355 21.648C227.283 21.648 228.003 21.344 228.515 20.736C229.027 20.112 229.283 19.248 229.283 18.144V12.096H232.307V26.112C232.307 26.928 232.067 27.576 231.587 28.056C231.107 28.552 230.467 28.8 229.667 28.8H222.179Z" fill="white"/>
<path d="M30.6 132H23V139.6H30.6V132Z" fill="white"/>
<path d="M39.0001 132H31.4001V139.6H39.0001V132Z" fill="white"/>
<path d="M30.6 140.4H23V148H30.6V140.4Z" fill="white"/>
<path d="M39.0001 140.4H31.4001V148H39.0001V140.4Z" fill="white"/>
<path d="M54.3395 135.678V144.831H52.679V137.648H52.6568L49.69 144.831H48.583L45.5498 137.648H45.5277V144.831H44V135.678H46.3911L49.1365 142.458H49.1808L52.0812 135.678H54.3395V135.678ZM55.7122 136.377C55.7122 136.123 55.8007 135.911 56 135.742C56.1993 135.572 56.4207 135.487 56.6863 135.487C56.9742 135.487 57.2177 135.572 57.3948 135.742C57.572 135.911 57.6827 136.123 57.6827 136.377C57.6827 136.631 57.5941 136.843 57.3948 137.013C57.1956 137.182 56.9742 137.267 56.6863 137.267C56.3985 137.267 56.1771 137.182 56 137.013C55.8229 136.822 55.7122 136.61 55.7122 136.377ZM57.5055 138.263V144.831H55.8893V138.263H57.5055ZM62.3985 143.708C62.6421 143.708 62.9077 143.665 63.1956 143.538C63.4834 143.432 63.7491 143.284 63.9926 143.114V144.555C63.7269 144.703 63.4391 144.809 63.107 144.873C62.7749 144.936 62.4207 144.979 62.0221 144.979C61.0037 144.979 60.1845 144.682 59.5646 144.068C58.9225 143.453 58.6125 142.669 58.6125 141.737C58.6125 140.678 58.9447 139.809 59.5867 139.131C60.2288 138.453 61.1365 138.114 62.3321 138.114C62.6421 138.114 62.952 138.157 63.2399 138.22C63.5498 138.284 63.7934 138.39 63.9705 138.475V139.958C63.7269 139.788 63.4613 139.64 63.2177 139.555C62.952 139.47 62.6863 139.407 62.4207 139.407C61.7786 139.407 61.2694 139.597 60.8708 140C60.4723 140.403 60.2952 140.932 60.2952 141.61C60.2952 142.267 60.4945 142.797 60.8708 143.157C61.2472 143.517 61.7565 143.708 62.3985 143.708ZM68.5756 138.157C68.7085 138.157 68.8192 138.157 68.9299 138.178C69.0406 138.199 69.1292 138.22 69.1956 138.242V139.809C69.107 139.746 68.9963 139.682 68.8192 139.64C68.6421 139.597 68.4649 139.555 68.2214 139.555C67.8229 139.555 67.4908 139.725 67.2251 140.042C66.9594 140.36 66.8044 140.847 66.8044 141.525V144.831H65.1882V138.263H66.8044V139.301H66.8266C66.9816 138.941 67.203 138.665 67.4908 138.453C67.8007 138.263 68.155 138.157 68.5756 138.157ZM69.2841 141.653C69.2841 140.572 69.6162 139.703 70.2362 139.068C70.8782 138.432 71.7638 138.114 72.893 138.114C73.9557 138.114 74.797 138.411 75.3948 139.025C75.9926 139.64 76.3026 140.466 76.3026 141.504C76.3026 142.564 75.9705 143.411 75.3506 144.047C74.7085 144.682 73.845 145 72.738 145C71.6753 145 70.834 144.703 70.214 144.11C69.5941 143.496 69.2841 142.669 69.2841 141.653ZM70.9668 141.589C70.9668 142.267 71.1218 142.797 71.4539 143.157C71.786 143.517 72.2509 143.708 72.8487 143.708C73.4244 143.708 73.8893 143.538 74.1993 143.157C74.5092 142.797 74.6642 142.267 74.6642 141.547C74.6642 140.847 74.5092 140.318 74.1993 139.936C73.8893 139.576 73.4244 139.386 72.8709 139.386C72.2731 139.386 71.8303 139.576 71.4982 139.958C71.1218 140.36 70.9668 140.89 70.9668 141.589ZM78.7159 140C78.7159 140.212 78.7823 140.403 78.9373 140.53C79.0923 140.657 79.4022 140.805 79.9114 140.996C80.5535 141.25 81.0185 141.525 81.262 141.822C81.5277 142.14 81.6605 142.5 81.6605 142.945C81.6605 143.559 81.417 144.047 80.9077 144.428C80.4207 144.809 79.7343 144.979 78.893 144.979C78.6052 144.979 78.2952 144.936 77.941 144.873C77.5867 144.809 77.2989 144.725 77.0554 144.619V143.093C77.3432 143.284 77.6753 143.453 78.0074 143.559C78.3395 143.665 78.6494 143.729 78.9373 143.729C79.2915 143.729 79.5793 143.686 79.7343 143.581C79.9114 143.475 80 143.326 80 143.093C80 142.881 79.9114 142.712 79.7343 142.542C79.5572 142.394 79.203 142.225 78.7159 142.034C78.1181 141.801 77.6974 141.525 77.4539 141.229C77.2103 140.932 77.0775 140.551 77.0775 140.085C77.0775 139.492 77.321 139.004 77.8081 138.623C78.2952 138.242 78.9373 138.051 79.7122 138.051C79.9557 138.051 80.2214 138.072 80.5092 138.136C80.797 138.199 81.0627 138.263 81.262 138.326V139.831C81.0406 139.703 80.797 139.576 80.5092 139.47C80.2214 139.364 79.9336 139.322 79.6679 139.322C79.3579 139.322 79.1144 139.386 78.9594 139.492C78.8044 139.64 78.7159 139.788 78.7159 140ZM82.3469 141.653C82.3469 140.572 82.679 139.703 83.2989 139.068C83.941 138.432 84.8266 138.114 85.9557 138.114C87.0185 138.114 87.8598 138.411 88.4576 139.025C89.0554 139.64 89.3653 140.466 89.3653 141.504C89.3653 142.564 89.0332 143.411 88.4133 144.047C87.7712 144.682 86.9077 145 85.8007 145C84.738 145 83.8967 144.703 83.2768 144.11C82.679 143.496 82.3469 142.669 82.3469 141.653ZM84.0295 141.589C84.0295 142.267 84.1845 142.797 84.5166 143.157C84.8487 143.517 85.3137 143.708 85.9114 143.708C86.4871 143.708 86.952 143.538 87.262 143.157C87.572 142.797 87.7269 142.267 87.7269 141.547C87.7269 140.847 87.572 140.318 87.262 139.936C86.952 139.576 86.4871 139.386 85.9336 139.386C85.3358 139.386 84.893 139.576 84.5609 139.958C84.2066 140.36 84.0295 140.89 84.0295 141.589ZM94.7454 139.534H92.3321V144.831H90.6937V139.534H89.5424V138.263H90.6937V137.352C90.6937 136.674 90.9373 136.102 91.4022 135.657C91.8672 135.212 92.4649 135 93.1956 135C93.3948 135 93.572 135.021 93.7269 135.021C93.8819 135.021 94.0148 135.064 94.1255 135.106V136.441C94.0812 136.419 93.9705 136.377 93.8376 136.335C93.7048 136.292 93.5498 136.271 93.3727 136.271C93.0406 136.271 92.7749 136.377 92.5978 136.568C92.4207 136.758 92.3321 137.076 92.3321 137.458V138.242H94.7454V136.758L96.3616 136.292V138.242H98V139.513H96.3616V142.585C96.3616 142.987 96.4502 143.263 96.583 143.432C96.738 143.602 96.9816 143.686 97.3137 143.686C97.4022 143.686 97.5129 143.665 97.6458 143.623C97.7786 143.581 97.8893 143.538 97.9779 143.475V144.746C97.8672 144.809 97.7122 144.852 97.4686 144.894C97.2251 144.936 97.0037 144.958 96.7601 144.958C96.0738 144.958 95.5646 144.788 95.2325 144.449C94.9004 144.11 94.7232 143.581 94.7232 142.881L94.7454 139.534Z" fill="white"/>
<rect x="3.5" y="120.5" width="114" height="39" rx="19.5" stroke="white" stroke-opacity="0.04"/>
<path d="M306.192 146.131L307.643 145.676V133.684L306.192 134.139V146.131ZM289.452 138.855C290.363 138.855 291.207 139.259 291.747 139.933L292.338 138.568C291.561 137.827 290.532 137.474 289.452 137.474C286.954 137.474 285.233 139.444 285.25 141.617C285.267 143.975 287.123 145.895 289.452 145.895C290.633 145.895 291.528 145.541 292.203 145.053V143.385C291.494 144.093 290.465 144.514 289.57 144.514C288.22 144.514 286.701 143.419 286.701 141.617C286.701 139.949 288.018 138.855 289.452 138.855ZM299.105 137.474C296.607 137.474 295.156 139.444 295.156 141.617C295.156 143.975 297.029 145.895 299.358 145.895C300.539 145.895 301.433 145.541 302.108 145.053V143.385C301.4 144.093 300.37 144.514 299.476 144.514C298.278 144.514 296.961 143.773 296.691 142.206H303.053V141.651C303.053 139.326 301.518 137.474 299.105 137.474ZM314.781 137.474C312.453 137.474 310.563 139.36 310.563 141.684C310.563 144.008 312.453 145.895 314.781 145.895C317.11 145.895 319 144.008 319 141.684C319 139.36 317.11 137.474 314.781 137.474ZM299.121 138.855C300.252 138.855 301.45 139.562 301.551 140.926H296.691C296.793 139.562 297.991 138.855 299.121 138.855ZM314.781 144.514C314.221 144.514 313.673 144.348 313.206 144.037C312.74 143.726 312.377 143.284 312.162 142.767C311.948 142.25 311.891 141.681 312.001 141.132C312.11 140.583 312.38 140.079 312.777 139.683C313.173 139.288 313.678 139.018 314.228 138.909C314.778 138.8 315.348 138.856 315.866 139.07C316.384 139.284 316.827 139.647 317.139 140.112C317.45 140.578 317.616 141.125 317.616 141.684C317.617 142.056 317.544 142.424 317.402 142.768C317.26 143.111 317.051 143.423 316.787 143.686C316.524 143.949 316.211 144.158 315.867 144.3C315.523 144.442 315.154 144.514 314.781 144.514V144.514Z" fill="white"/>
<path d="M271.328 146.4C273.938 146.4 276.053 144.289 276.053 141.684C276.053 139.08 273.938 136.968 271.328 136.968C268.719 136.968 266.603 139.08 266.603 141.684C266.603 144.289 268.719 146.4 271.328 146.4ZM271.328 148C267.833 148 265 145.172 265 141.684C265 138.196 267.833 135.368 271.328 135.368C274.823 135.368 277.656 138.196 277.656 141.684C277.656 145.172 274.823 148 271.328 148Z" fill="white"/>
<path d="M274.703 143.032C277.313 143.032 279.428 140.92 279.428 138.316C279.428 135.711 277.313 133.6 274.703 133.6C272.094 133.6 269.978 135.711 269.978 138.316C269.978 140.92 272.094 143.032 274.703 143.032ZM274.703 144.632C271.208 144.632 268.375 141.804 268.375 138.316C268.375 134.828 271.208 132 274.703 132C278.198 132 281.031 134.828 281.031 138.316C281.031 141.804 278.198 144.632 274.703 144.632Z" fill="white"/>
<rect x="245.5" y="120.5" width="93" height="39" rx="19.5" stroke="white" stroke-opacity="0.04"/>
<path d="M173.556 140.58H176.478C176.478 140.878 176.463 141.153 176.441 141.399C176.419 141.645 176.366 141.868 176.292 142.076C176.187 142.374 176.045 142.634 175.866 142.865C175.686 143.088 175.469 143.282 175.23 143.431C174.991 143.579 174.722 143.699 174.431 143.773C174.139 143.855 173.833 143.892 173.512 143.892C173.071 143.892 172.667 143.818 172.301 143.676C171.942 143.535 171.628 143.326 171.367 143.073C171.105 142.806 170.904 142.493 170.762 142.128C170.62 141.756 170.545 141.354 170.545 140.908C170.545 140.469 170.612 140.067 170.754 139.702C170.896 139.33 171.105 139.018 171.359 138.757C171.628 138.497 171.942 138.296 172.316 138.154C172.69 138.013 173.101 137.939 173.556 137.939C174.147 137.939 174.662 138.065 175.111 138.318C175.559 138.571 175.91 138.966 176.172 139.501L174.775 140.074C174.647 139.762 174.476 139.546 174.266 139.412C174.065 139.278 173.825 139.211 173.564 139.211C173.347 139.211 173.145 139.256 172.966 139.338C172.787 139.419 172.63 139.531 172.503 139.687C172.376 139.836 172.279 140.022 172.204 140.231C172.137 140.446 172.099 140.685 172.099 140.945C172.099 141.183 172.129 141.406 172.189 141.607C172.256 141.808 172.346 141.987 172.473 142.136C172.6 142.285 172.757 142.404 172.936 142.486C173.123 142.567 173.34 142.605 173.579 142.605C173.721 142.605 173.863 142.59 173.997 142.56C174.132 142.523 174.251 142.471 174.356 142.404C174.468 142.329 174.558 142.232 174.625 142.121C174.692 142.009 174.745 141.868 174.767 141.704H173.556V140.58ZM183.742 139.278V143.892H182.173V139.278H180.902V137.939H185.012V139.278H183.742ZM190.467 139.978C190.124 139.561 189.705 139.352 189.204 139.352C188.98 139.352 188.779 139.39 188.584 139.472C188.397 139.553 188.241 139.665 188.099 139.799C187.964 139.933 187.852 140.097 187.777 140.29C187.702 140.484 187.665 140.685 187.665 140.908C187.665 141.131 187.702 141.339 187.777 141.533C187.859 141.726 187.964 141.89 188.099 142.032C188.241 142.173 188.405 142.285 188.592 142.359C188.779 142.441 188.98 142.478 189.197 142.478C189.668 142.478 190.094 142.277 190.467 141.875V143.617L190.318 143.669C190.094 143.751 189.885 143.803 189.683 143.84C189.488 143.877 189.294 143.899 189.1 143.899C188.711 143.899 188.33 143.825 187.972 143.684C187.613 143.535 187.299 143.326 187.022 143.059C186.753 142.791 186.529 142.471 186.365 142.106C186.2 141.734 186.118 141.332 186.118 140.9C186.118 140.469 186.2 140.067 186.357 139.71C186.522 139.345 186.738 139.032 187.015 138.772C187.291 138.504 187.613 138.303 187.972 138.154C188.33 138.005 188.711 137.931 189.107 137.931C189.332 137.931 189.556 137.953 189.773 138.005C189.996 138.05 190.228 138.125 190.467 138.221V139.978ZM193.546 140.915C193.546 141.139 193.591 141.347 193.673 141.54C193.756 141.734 193.875 141.898 194.017 142.039C194.159 142.18 194.331 142.292 194.525 142.366C194.72 142.441 194.929 142.478 195.145 142.478C195.362 142.478 195.564 142.441 195.758 142.366C195.953 142.285 196.124 142.173 196.274 142.039C196.423 141.898 196.543 141.734 196.625 141.54C196.707 141.347 196.752 141.146 196.752 140.915C196.752 140.685 196.707 140.484 196.625 140.29C196.543 140.097 196.423 139.933 196.274 139.792C196.132 139.65 195.96 139.546 195.758 139.472C195.564 139.39 195.362 139.352 195.145 139.352C194.929 139.352 194.727 139.39 194.525 139.472C194.331 139.546 194.167 139.658 194.017 139.792C193.875 139.933 193.756 140.097 193.673 140.29C193.591 140.484 193.546 140.692 193.546 140.915ZM192.007 140.915C192.007 140.499 192.082 140.104 192.238 139.747C192.396 139.382 192.612 139.062 192.889 138.794C193.165 138.526 193.494 138.311 193.875 138.162C194.264 138.005 194.69 137.931 195.145 137.931C195.601 137.931 196.027 138.005 196.408 138.162C196.797 138.311 197.126 138.519 197.402 138.794C197.686 139.062 197.903 139.382 198.06 139.747C198.217 140.104 198.291 140.499 198.291 140.915C198.291 141.332 198.217 141.726 198.06 142.091C197.903 142.448 197.686 142.768 197.402 143.036C197.126 143.304 196.797 143.52 196.408 143.676C196.02 143.825 195.601 143.899 195.145 143.899C194.682 143.899 194.256 143.825 193.875 143.676C193.494 143.52 193.165 143.312 192.889 143.036C192.612 142.768 192.396 142.448 192.238 142.091C192.082 141.726 192.007 141.339 192.007 140.915ZM201.378 137.939V143.892H199.809V137.939H201.378ZM179.408 137.939V143.892H177.838V137.939H179.408ZM203.022 143.892V137.939H204.516L207.431 141.578V137.939H209V143.892H207.49L204.591 140.253V143.892H203.022Z" fill="white"/>
<path fill-rule="evenodd" clip-rule="evenodd" d="M164.532 138.284C165.052 139.009 165.334 139.89 165.326 140.779C165.326 141.652 165.044 142.526 164.532 143.237L165.616 144.059C166.306 143.111 166.685 141.956 166.685 140.786C166.693 139.55 166.284 138.335 165.534 137.358L164.912 137.916L164.532 138.284Z" fill="white"/>
<path fill-rule="evenodd" clip-rule="evenodd" d="M166.581 144.787L162.935 142.025C163.195 141.684 163.344 141.27 163.366 140.84C163.381 140.411 163.269 139.989 163.039 139.626L164.784 138.056L166.611 136.354C166.73 136.242 166.737 136.05 166.618 135.932L166.366 135.68C165.066 134.369 163.314 133.607 161.472 133.547L161.48 132.548C161.487 132.481 161.48 132.415 161.465 132.348C161.443 132.281 161.413 132.222 161.368 132.17C161.324 132.118 161.272 132.081 161.205 132.052C161.146 132.022 161.079 132.007 161.012 132.007C160.945 132.007 160.878 132.022 160.819 132.052C160.759 132.081 160.7 132.118 160.655 132.17C160.611 132.222 160.574 132.281 160.559 132.341C160.537 132.407 160.529 132.474 160.544 132.54L160.537 133.57C160.099 133.614 159.66 133.695 159.237 133.821L159.245 132.54C159.252 132.474 159.245 132.407 159.23 132.341C159.207 132.274 159.178 132.215 159.133 132.163C159.089 132.111 159.037 132.074 158.97 132.044C158.91 132.015 158.844 132 158.777 132C158.71 132 158.643 132.015 158.584 132.044C158.524 132.074 158.465 132.111 158.42 132.163C158.376 132.215 158.339 132.274 158.324 132.333C158.302 132.4 158.294 132.466 158.309 132.533L158.287 134.169C156.787 134.836 155.554 135.998 154.804 137.457C154.054 138.915 153.816 140.589 154.143 142.195C154.47 143.802 155.339 145.253 156.601 146.304C157.863 147.356 159.453 147.948 161.094 147.978L166.403 148C166.566 148 166.7 147.867 166.7 147.704V145.031C166.7 144.935 166.655 144.846 166.581 144.787ZM161.198 146.689C159.891 146.682 158.621 146.245 157.589 145.453C156.557 144.653 155.814 143.535 155.48 142.277C155.146 141.018 155.242 139.678 155.74 138.478C156.245 137.279 157.128 136.272 158.264 135.621L158.257 137.568C158.25 137.634 158.257 137.701 158.272 137.768C158.294 137.834 158.324 137.894 158.368 137.945C158.413 137.997 158.465 138.034 158.532 138.064C158.591 138.093 158.658 138.108 158.725 138.108C158.792 138.108 158.858 138.093 158.918 138.064C158.977 138.034 159.037 137.997 159.081 137.945C159.126 137.894 159.163 137.834 159.178 137.775C159.2 137.708 159.207 137.642 159.193 137.575L159.2 135.184C159.853 134.947 160.544 134.836 161.242 134.836C162.527 134.836 163.774 135.258 164.792 136.028C164.866 136.087 164.873 136.191 164.806 136.257L162.029 138.797C161.777 138.693 161.502 138.634 161.227 138.634C160.923 138.634 160.618 138.693 160.336 138.819C160.054 138.945 159.809 139.13 159.608 139.36C159.408 139.589 159.259 139.863 159.17 140.152C159.081 140.448 159.059 140.751 159.103 141.055C159.148 141.359 159.252 141.647 159.415 141.907C159.579 142.166 159.802 142.38 160.054 142.551C160.314 142.714 160.603 142.825 160.908 142.869C161.212 142.913 161.524 142.891 161.814 142.802L165.363 145.49C165.4 145.52 165.423 145.564 165.423 145.608L165.415 146.556C165.415 146.638 165.349 146.704 165.267 146.704L161.198 146.689ZM162.066 140.766C162.066 140.929 162.014 141.092 161.925 141.233C161.829 141.373 161.702 141.477 161.547 141.544C161.391 141.61 161.22 141.625 161.064 141.588C160.908 141.551 160.752 141.477 160.633 141.359C160.514 141.24 160.433 141.092 160.403 140.929C160.373 140.766 160.388 140.596 160.455 140.448C160.522 140.292 160.626 140.167 160.767 140.07C160.908 139.982 161.071 139.93 161.235 139.93C161.457 139.93 161.673 140.019 161.829 140.181C161.977 140.329 162.066 140.537 162.066 140.766Z" fill="white"/>
<rect x="134.5" y="120.5" width="94" height="39" rx="19.5" stroke="white" stroke-opacity="0.04"/>
<g clip-path="url(#clip0_663_50)">
<path d="M259.391 192.888C259.064 192.685 258.638 192.685 258.278 192.888L255.724 194.444L253.989 195.459L251.435 197.015C251.108 197.218 250.682 197.218 250.322 197.015L248.292 195.797C247.964 195.594 247.735 195.222 247.735 194.816V192.414C247.735 192.008 247.932 191.636 248.292 191.433L250.289 190.249C250.617 190.047 251.042 190.047 251.402 190.249L253.4 191.433C253.727 191.636 253.956 192.008 253.956 192.414V193.97L255.691 192.922V191.366C255.691 190.96 255.495 190.588 255.135 190.385L251.435 188.152C251.108 187.949 250.682 187.949 250.322 188.152L246.557 190.385C246.196 190.588 246 190.96 246 191.366V195.865C246 196.271 246.196 196.643 246.557 196.846L250.322 199.078C250.649 199.281 251.075 199.281 251.435 199.078L253.989 197.556L255.724 196.507L258.278 194.985C258.605 194.782 259.031 194.782 259.391 194.985L261.388 196.169C261.716 196.372 261.945 196.744 261.945 197.15V199.552C261.945 199.958 261.749 200.33 261.388 200.533L259.391 201.751C259.064 201.954 258.638 201.954 258.278 201.751L256.281 200.567C255.953 200.364 255.724 199.992 255.724 199.586V198.03L253.989 199.078V200.634C253.989 201.04 254.185 201.412 254.545 201.615L258.311 203.848C258.638 204.051 259.064 204.051 259.424 203.848L263.189 201.615C263.517 201.412 263.746 201.04 263.746 200.634V196.135C263.746 195.729 263.549 195.357 263.189 195.154L259.391 192.888Z" fill="white"/>
<path d="M270.659 202.561V198.826C271.058 199.336 271.783 199.621 272.626 199.621C274.77 199.621 276.219 198.076 276.219 195.721C276.219 193.366 274.888 191.821 272.803 191.821C271.842 191.821 271.102 192.181 270.659 192.766V191.941H268.603V202.561H270.659ZM272.374 197.821C271.265 197.821 270.541 196.981 270.541 195.721C270.541 194.446 271.265 193.606 272.374 193.606C273.454 193.606 274.193 194.446 274.193 195.721C274.193 196.981 273.454 197.821 272.374 197.821Z" fill="white"/>
<path d="M280.887 199.621C283.179 199.621 284.82 197.971 284.82 195.721C284.82 193.471 283.179 191.821 280.887 191.821C278.595 191.821 276.953 193.471 276.953 195.721C276.953 197.971 278.595 199.621 280.887 199.621ZM280.887 197.821C279.778 197.821 279.023 196.966 279.023 195.721C279.023 194.461 279.778 193.606 280.887 193.606C281.996 193.606 282.75 194.461 282.75 195.721C282.75 196.966 281.996 197.821 280.887 197.821Z" fill="white"/>
<path d="M288.119 199.501V188.656H286.063V199.501H288.119Z" fill="white"/>
<path d="M294.298 191.941L292.745 196.816L291.177 191.941H289.077L291.784 199.441L290.689 202.561H292.656L293.706 199.471L296.412 191.941H294.298Z" fill="white"/>
<path d="M302.185 192.691C301.771 192.166 301.032 191.821 300.13 191.821C297.956 191.821 296.64 193.366 296.64 195.721C296.64 198.076 297.956 199.621 300.159 199.621C301.032 199.621 301.815 199.291 302.2 198.736V199.726C302.2 200.431 301.742 200.926 301.12 200.926H297.689V202.561H301.446C303.132 202.561 304.256 201.526 304.256 199.951V191.941H302.185V192.691ZM300.485 197.821C299.39 197.821 298.666 196.996 298.666 195.721C298.666 194.446 299.39 193.606 300.485 193.606C301.594 193.606 302.319 194.446 302.319 195.721C302.319 196.996 301.594 197.821 300.485 197.821Z" fill="white"/>
<path d="M309.438 199.621C311.73 199.621 313.371 197.971 313.371 195.721C313.371 193.471 311.73 191.821 309.438 191.821C307.146 191.821 305.504 193.471 305.504 195.721C305.504 197.971 307.146 199.621 309.438 199.621ZM309.438 197.821C308.328 197.821 307.574 196.966 307.574 195.721C307.574 194.461 308.328 193.606 309.438 193.606C310.547 193.606 311.301 194.461 311.301 195.721C311.301 196.966 310.547 197.821 309.438 197.821Z" fill="white"/>
<path d="M316.566 199.501V195.361C316.566 194.386 317.202 193.681 318.104 193.681C318.961 193.681 319.538 194.341 319.538 195.256V199.501H321.609V194.791C321.609 193.051 320.514 191.821 318.828 191.821C317.808 191.821 316.98 192.256 316.566 192.991V191.941H314.496V199.501H316.566Z" fill="white"/>
</g>
<rect x="226.5" y="176.5" width="115" height="39" rx="19.5" stroke="white" stroke-opacity="0.04"/>
<path fill-rule="evenodd" clip-rule="evenodd" d="M26.8157 203.916C31.1571 204.551 35.2059 201.522 35.84 197.173C36.4741 192.824 33.4498 188.768 29.1084 188.084C24.7669 187.449 20.7182 190.478 20.084 194.827C19.4499 199.176 22.4743 203.281 26.8157 203.916ZM28.7669 192.482C28.7669 192.433 29.9377 190.185 31.5474 191.211C32.3279 191.7 31.8401 192.042 31.6937 191.993C31.6937 191.993 31.3035 192.091 31.1084 191.602C30.8157 190.918 30.2791 191.309 30.1816 191.407C30.1544 191.441 30.128 191.473 30.1022 191.505C29.756 191.928 29.5101 192.229 29.0108 194.73L31.0596 195.023L30.962 195.609L28.9133 195.316V195.365L28.8157 196C28.8157 196 28.7669 196.195 28.7182 196.489L30.8157 196.782L30.7181 197.368L28.6206 197.075C28.4743 197.759 28.084 199.274 27.7913 199.811C27.7913 199.86 26.6206 202.108 25.0109 201.082C24.2304 200.544 24.7182 200.251 24.8158 200.251C24.8158 200.251 25.206 200.153 25.4011 200.642C25.6938 201.326 26.2304 200.935 26.3279 200.837C26.7182 200.398 27.1084 199.567 27.645 196.88L25.5962 196.586L25.6938 196L27.7426 196.293V196.244L27.8401 195.609C27.8401 195.609 27.8889 195.414 27.9377 195.12L25.8889 194.827L25.9865 194.241L28.084 194.534C28.2304 193.899 28.4743 193.019 28.7669 192.482Z" fill="white"/>
<path fill-rule="evenodd" clip-rule="evenodd" d="M42.6799 195.536H39.7531V193.142H42.7775L42.8262 192.409H38.9238V199.494H39.7531V196.22H42.6799V195.536V195.536ZM44.5823 192.409H43.8018V193.337H44.5823V192.409ZM44.5823 194.265H43.8018V199.494H44.5823V194.265ZM46.7286 192.36L45.9482 192.457V197.295C45.9482 199.005 45.9969 199.64 47.2652 199.64C47.4604 199.64 47.6067 199.591 47.8018 199.591L47.753 198.907C47.5091 198.907 47.4603 198.956 47.314 198.956C46.7774 198.956 46.7286 198.614 46.7286 197.49V192.36ZM50.6311 199.591C49.1677 199.591 48.2408 198.516 48.2408 196.855C48.2408 195.291 49.1677 194.168 50.5335 194.119C51.8018 194.119 52.631 195.096 52.631 196.611C52.631 196.709 52.631 196.904 52.631 196.953H49.0701C49.0701 198.126 49.753 198.859 50.6798 198.859C51.2652 198.859 51.8506 198.663 52.3384 198.321L52.5823 198.907C52.0945 199.347 51.4603 199.591 50.6311 199.591ZM49.0701 196.464H51.8506C51.8506 195.34 51.314 194.803 50.5335 194.803C49.753 194.803 49.1677 195.487 49.0701 196.464ZM57.2652 199.152C56.9237 199.494 56.3871 199.64 55.8505 199.64C54.2408 199.64 53.3627 198.37 53.3627 196.904C53.3627 195.438 54.2896 194.168 55.8505 194.168C56.4359 194.168 56.9725 194.363 57.2652 194.607L57.07 195.194C56.7286 194.949 56.2896 194.852 55.8505 194.852C54.9237 194.852 54.192 195.731 54.192 196.953C54.192 198.174 54.8749 199.005 55.9481 199.005C56.3871 199.005 56.7774 198.859 57.1188 198.614L57.2652 199.152ZM61.8993 196.904C61.8993 195.78 61.509 194.803 60.3383 194.803C59.2164 194.803 58.7286 195.829 58.7286 196.904C58.7286 197.979 59.2651 198.956 60.3871 198.956C61.509 198.956 61.8993 197.979 61.8993 196.904ZM62.7285 196.904C62.7285 198.321 61.8993 199.64 60.3383 199.64C58.7773 199.64 57.8993 198.419 57.8993 196.953C57.8993 195.487 58.7773 194.217 60.3871 194.217C61.8993 194.168 62.7285 195.389 62.7285 196.904ZM64.631 192.409H63.8505V193.337H64.631V192.409ZM64.631 194.265H63.8505V199.494H64.631V194.265ZM68.387 194.168C67.6553 194.168 66.9236 194.51 66.5334 195.047L66.4846 194.265H65.8017V195.536V199.494H66.5822V195.927C66.7285 195.438 67.3139 194.852 68.1919 194.852C69.1675 194.852 69.2163 195.536 69.2163 196.904V199.494H69.9968V196.366C70.0455 194.901 69.5577 194.168 68.387 194.168Z" fill="white"/>
<rect x="0.5" y="176.5" width="89" height="39" rx="19.5" stroke="white" stroke-opacity="0.04"/>
<g clip-path="url(#clip1_663_50)">
<path d="M136.141 195.997C136.141 192.203 138.418 190.3 141.227 190.3C144.032 190.3 146.309 192.203 146.309 195.997C146.309 199.8 144.032 201.694 141.227 201.694C138.418 201.694 136.141 199.819 136.141 195.997ZM141.227 200.249C142.61 200.249 143.732 198.742 143.732 195.997C143.732 193.276 142.61 191.744 141.227 191.744C139.841 191.744 138.715 193.276 138.715 195.997C138.715 198.727 139.841 200.249 141.227 200.249Z" fill="white"/>
<path d="M126.288 190.714V201.276H128.055V194.181L133.504 201.276H134.989V190.714H133.309V196.536L128.781 190.714H126.288Z" fill="white"/>
<path d="M183.141 190.714L179.022 201.276H180.801L181.935 198.371H185.677L186.826 201.276H189.712L185.551 190.714H183.141ZM182.511 196.855L183.799 193.544L185.089 196.855H182.511Z" fill="white"/>
<path d="M166.568 197.635C166.52 198.602 166.448 199.56 165.418 199.918C164.959 200.074 164.116 200.071 163.639 199.875C163.411 199.778 163.27 199.697 163.093 199.513C162.751 199.16 162.613 198.411 162.601 197.925V190.714H159.955V197.635C159.979 198.589 160.129 199.55 160.726 200.321C161.749 201.644 163.63 201.831 165.151 201.634C166.097 201.513 166.925 201.188 167.591 200.464C168.05 199.965 168.335 199.179 168.416 198.502C168.467 198.109 168.473 198.043 168.473 197.635V190.714H166.568L166.568 197.635Z" fill="white"/>
<path d="M172.814 192.203C173.981 192.203 175.139 191.997 175.647 193.257C175.845 193.756 175.86 194.886 175.392 195.366C174.836 195.937 173.984 195.993 173.249 196.059L175.968 201.276H178.755L176.289 196.624C177.759 196.087 178.449 195.223 178.377 193.572C178.299 191.791 176.85 190.714 175.196 190.714H170.18V201.276H172.814V192.203Z" fill="white"/>
<path d="M155.667 201.276L151.746 190.714H149.685L145.874 201.276H147.725L150.288 194.137L152.892 201.276H155.667Z" fill="white"/>
<path d="M155.793 190.714H153.636L152.979 192.521L153.915 195.048L154.254 194.137L156.789 201.276H159.718L155.793 190.714Z" fill="white"/>
<path d="M151.002 197.591L149.685 201.276H151.368L151.857 199.887L151.002 197.591Z" fill="white"/>
</g>
<rect x="106.5" y="176.5" width="103" height="39" rx="19.5" stroke="white" stroke-opacity="0.04"/>
<g clip-path="url(#clip2_663_50)">
<path d="M209.725 89.3336H207.572L206.83 87.0479H202.895L202.153 89.3336H200L203.551 78.8882H206.199L209.725 89.3336ZM206.223 85.2046L205.036 81.5794H204.677L203.489 85.2046H206.223Z" fill="white"/>
<path d="M217.928 87.3797V89.3336H210.702V78.8882H212.805V87.3797H217.928Z" fill="white"/>
<path d="M226.662 87.3797V89.3336H219.437V78.8882H221.54V87.3797H226.662Z" fill="white"/>
<path d="M257.779 80.7559H256.121V83.656H257.779C258.633 83.656 259.201 83.0047 259.201 82.1322C259.201 81.2597 258.62 80.7559 257.779 80.7559Z" fill="white"/>
<path d="M266.996 86.6423H267.355L268.543 83.0171H265.809L266.996 86.6423Z" fill="white"/>
<path d="M228.939 76V92H273.851V76H228.939ZM233.344 89.3334H231.253V78.8879H233.344V89.3334ZM243.712 89.3334H241.745L237.587 82.5868H237.39V89.3334H235.422V78.8879H237.402L241.559 85.4501H241.745V78.8879H243.712V89.3334ZM252.707 80.7803H247.795V83.1029H251.804V84.934H247.795V89.321H245.778V83.1152V78.8879H252.707V80.7803ZM259.61 89.3334L257.371 85.4993H256.121V89.3334H254.216V78.8879H257.928C259.66 78.8879 261.194 80.043 261.194 82.0953C261.194 83.5331 260.377 84.6144 259.301 85.1428L261.837 89.3334H259.61ZM268.506 89.3334H265.859L262.308 78.8879H264.473L265.215 81.1736H269.149L269.892 78.8879H272.057L268.506 89.3334Z" fill="white"/>
</g>
<rect x="180.5" y="64.5" width="113" height="39" rx="19.5" stroke="white" stroke-opacity="0.04"/>
<path d="M90.0222 76.0005C88.0284 76.0005 86.8909 77.1295 86.8909 78.9987C86.8909 80.8092 88.0288 81.9779 89.9835 81.9779C91.7828 81.9779 92.8327 81.0533 93.0079 79.5833H91.6464C91.5197 80.4207 91.0044 80.9269 89.9932 80.9269C88.875 80.9269 88.2137 80.2749 88.2137 78.9894C88.2137 77.704 88.8068 77.052 89.9932 77.052C90.9657 77.052 91.4713 77.5383 91.6072 78.3855H92.959C92.7839 76.9643 91.8602 76.0005 90.0222 76.0005Z" fill="white"/>
<path fill-rule="evenodd" clip-rule="evenodd" d="M96.4886 81.9779C98.3944 81.9779 99.5614 80.8194 99.5614 78.9696C99.5614 77.0423 98.2875 76.0005 96.4886 76.0005C94.5828 76.0005 93.4158 77.0815 93.4158 79.0088C93.4158 80.9361 94.6897 81.9779 96.4886 81.9779ZM96.4886 77.0515C97.539 77.0515 98.2391 77.6647 98.2391 79.0083C98.2391 80.3127 97.5971 80.9259 96.4886 80.9259C95.4383 80.9259 94.7381 80.2735 94.7381 78.9691C94.7381 77.6647 95.3802 77.0515 96.4886 77.0515Z" fill="white"/>
<path d="M101.574 76.0974H100.271V81.8806H101.574V77.9573C101.915 77.3048 102.381 77.0031 103.13 77.0031C104.063 77.0031 104.54 77.4317 104.54 78.3661V81.8801H105.843V78.1806C105.843 76.7982 105.085 76 103.743 76C102.556 76 101.904 76.6137 101.574 77.6357V76.0974Z" fill="white"/>
<path d="M107.749 80.1083H106.388C106.533 81.2669 107.399 81.9779 109.266 81.9779C111.134 81.9779 111.921 81.2088 111.921 80.1771C111.921 79.3013 111.503 78.6974 110.239 78.5516L108.498 78.3472C107.983 78.2886 107.798 78.0842 107.798 77.7436C107.798 77.3348 108.109 77.0234 109.101 77.0234C110.093 77.0234 110.433 77.3542 110.511 77.8604H111.863C111.697 76.7604 110.987 76.0009 109.14 76.0009C107.292 76.0009 106.544 76.7895 106.544 77.8212C106.544 78.7264 107.02 79.2718 108.294 79.4176L109.967 79.6123C110.521 79.6806 110.667 79.9141 110.667 80.2255C110.667 80.644 110.287 80.9555 109.296 80.9555C108.304 80.9555 107.856 80.6828 107.749 80.1083Z" fill="white"/>
<path fill-rule="evenodd" clip-rule="evenodd" d="M112.417 79.0084C112.417 80.7022 113.467 81.9775 115.431 81.9775C117.075 81.9775 118.086 81.1986 118.378 80.011H117.045C116.851 80.5854 116.355 80.9259 115.47 80.9259C114.488 80.9259 113.856 80.3515 113.739 79.3198H118.417C118.426 77.2947 117.551 76 115.441 76C113.545 76 112.417 77.2172 112.417 79.0084ZM117.045 78.4339H113.759C113.924 77.5092 114.527 77.0225 115.431 77.0225C116.462 77.0225 116.958 77.5771 117.045 78.4339Z" fill="white"/>
<path d="M120.361 76.0974H119.058V81.8806H120.361V77.9573C120.702 77.3048 121.168 77.0031 121.917 77.0031C122.85 77.0031 123.327 77.4317 123.327 78.3661V81.8801H124.63V78.1806C124.63 76.7982 123.872 76 122.53 76C121.343 76 120.691 76.6137 120.361 77.6357V76.0974Z" fill="white"/>
<path d="M126.536 80.1083H125.175C125.32 81.2669 126.186 81.9779 128.054 81.9779C129.921 81.9779 130.708 81.2088 130.708 80.1771C130.708 79.3013 130.29 78.6974 129.026 78.5516L127.285 78.3472C126.77 78.2886 126.585 78.0842 126.585 77.7436C126.585 77.3348 126.896 77.0234 127.888 77.0234C128.88 77.0234 129.22 77.3542 129.298 77.8604H130.65C130.484 76.7604 129.774 76.0009 127.927 76.0009C126.08 76.0009 125.331 76.7895 125.331 77.8212C125.331 78.7264 125.807 79.2718 127.081 79.4176L128.754 79.6123C129.308 79.6806 129.454 79.9141 129.454 80.2255C129.454 80.644 129.074 80.9555 128.083 80.9555C127.091 80.9555 126.643 80.6828 126.536 80.1083Z" fill="white"/>
<path d="M134.5 83.3017L136.921 76.0978H135.559L133.887 81.1599L132.146 76.0978H130.707L132.603 81.2475H133.858L133.537 82.2308H131.339V83.3017H134.5Z" fill="white"/>
<path d="M138.263 80.1088H136.901C137.047 81.2674 137.913 81.9784 139.78 81.9784C141.647 81.9784 142.435 81.2092 142.435 80.1775C142.435 79.3018 142.017 78.6978 140.753 78.552L139.012 78.3476C138.496 78.289 138.312 78.0846 138.312 77.7441C138.312 77.3353 138.623 77.0238 139.615 77.0238C140.606 77.0238 140.947 77.3547 141.024 77.8608H142.376C142.211 76.7608 141.501 76.0014 139.653 76.0014C137.806 76.0014 137.057 76.7899 137.057 77.8216C137.057 78.7269 137.534 79.2723 138.808 79.4181L140.48 79.6128C141.035 79.6811 141.18 79.9145 141.18 80.226C141.18 80.6445 140.801 80.9559 139.809 80.9559C138.817 80.9559 138.37 80.6832 138.263 80.1088Z" fill="white"/>
<path fill-rule="evenodd" clip-rule="evenodd" d="M83.8848 84.0491V81.8805V76.0977H78.1084H75.9422C71.5558 76.0977 68 79.6574 68 84.0486C68 88.4398 71.5563 92 75.9426 92C80.329 92 83.8848 88.4402 83.8848 84.0491ZM74.1373 80.0732L78.1084 76.0977V81.8805H83.8848L79.9128 85.8577H74.1373V80.0732Z" fill="white"/>
<rect x="48.5" y="64.5" width="114.2" height="39" rx="19.5" stroke="white" stroke-opacity="0.04"/>
<defs>
<clipPath id="clip0_663_50">
<rect width="76" height="16" fill="white" transform="translate(246 188)"/>
</clipPath>
<clipPath id="clip1_663_50">
<rect width="64" height="12" fill="white" transform="translate(126 190)"/>
</clipPath>
<clipPath id="clip2_663_50">
<rect width="74" height="16" fill="white" transform="translate(200 76)"/>
</clipPath>
</defs>
</svg>
