<svg width="1033" height="306" viewBox="0 0 1033 306" fill="none" xmlns="http://www.w3.org/2000/svg">
<path d="M459.472 32V18.08H454.576V15.2H467.536V18.08H462.64V32H459.472ZM468.149 32V20.096H471.125V21.44H471.557C471.733 20.96 472.021 20.608 472.421 20.384C472.837 20.16 473.317 20.048 473.861 20.048H475.301V22.736H473.813C473.045 22.736 472.413 22.944 471.917 23.36C471.421 23.76 471.173 24.384 471.173 25.232V32H468.149ZM482.2 32.192C481.272 32.192 480.456 31.984 479.752 31.568C479.064 31.136 478.528 30.544 478.144 29.792C477.76 29.04 477.568 28.176 477.568 27.2V20.096H480.592V26.96C480.592 27.856 480.808 28.528 481.24 28.976C481.688 29.424 482.32 29.648 483.136 29.648C484.064 29.648 484.784 29.344 485.296 28.736C485.808 28.112 486.064 27.248 486.064 26.144V20.096H489.088V32H486.112V30.44H485.68C485.488 30.84 485.128 31.232 484.6 31.616C484.072 32 483.272 32.192 482.2 32.192ZM497.397 32.336C495.845 32.336 494.573 32 493.581 31.328C492.589 30.656 491.989 29.696 491.781 28.448L494.565 27.728C494.677 28.288 494.861 28.728 495.117 29.048C495.389 29.368 495.717 29.6 496.101 29.744C496.501 29.872 496.933 29.936 497.397 29.936C498.101 29.936 498.621 29.816 498.957 29.576C499.293 29.32 499.461 29.008 499.461 28.64C499.461 28.272 499.301 27.992 498.981 27.8C498.661 27.592 498.149 27.424 497.445 27.296L496.773 27.176C495.941 27.016 495.181 26.8 494.493 26.528C493.805 26.24 493.253 25.848 492.837 25.352C492.421 24.856 492.213 24.216 492.213 23.432C492.213 22.248 492.645 21.344 493.509 20.72C494.373 20.08 495.509 19.76 496.917 19.76C498.245 19.76 499.349 20.056 500.229 20.648C501.109 21.24 501.685 22.016 501.957 22.976L499.149 23.84C499.021 23.232 498.757 22.8 498.357 22.544C497.973 22.288 497.493 22.16 496.917 22.16C496.341 22.16 495.901 22.264 495.597 22.472C495.293 22.664 495.141 22.936 495.141 23.288C495.141 23.672 495.301 23.96 495.621 24.152C495.941 24.328 496.373 24.464 496.917 24.56L497.589 24.68C498.485 24.84 499.293 25.056 500.013 25.328C500.749 25.584 501.325 25.96 501.741 26.456C502.173 26.936 502.389 27.592 502.389 28.424C502.389 29.672 501.933 30.64 501.021 31.328C500.125 32 498.917 32.336 497.397 32.336ZM509.365 32C508.581 32 507.941 31.76 507.445 31.28C506.965 30.784 506.725 30.128 506.725 29.312V22.592H503.749V20.096H506.725V16.4H509.749V20.096H513.013V22.592H509.749V28.784C509.749 29.264 509.973 29.504 510.421 29.504H512.725V32H509.365ZM520.752 32.336C519.568 32.336 518.52 32.088 517.608 31.592C516.712 31.08 516.008 30.368 515.496 29.456C515 28.528 514.752 27.44 514.752 26.192V25.904C514.752 24.656 515 23.576 515.496 22.664C515.992 21.736 516.688 21.024 517.584 20.528C518.48 20.016 519.52 19.76 520.704 19.76C521.872 19.76 522.888 20.024 523.752 20.552C524.616 21.064 525.288 21.784 525.768 22.712C526.248 23.624 526.488 24.688 526.488 25.904V26.936H517.824C517.856 27.752 518.16 28.416 518.736 28.928C519.312 29.44 520.016 29.696 520.848 29.696C521.696 29.696 522.32 29.512 522.72 29.144C523.12 28.776 523.424 28.368 523.632 27.92L526.104 29.216C525.88 29.632 525.552 30.088 525.12 30.584C524.704 31.064 524.144 31.48 523.44 31.832C522.736 32.168 521.84 32.336 520.752 32.336ZM517.848 24.68H523.416C523.352 23.992 523.072 23.44 522.576 23.024C522.096 22.608 521.464 22.4 520.68 22.4C519.864 22.4 519.216 22.608 518.736 23.024C518.256 23.44 517.96 23.992 517.848 24.68ZM533.98 32.336C533.036 32.336 532.148 32.104 531.316 31.64C530.5 31.16 529.844 30.464 529.348 29.552C528.852 28.64 528.604 27.536 528.604 26.24V25.856C528.604 24.56 528.852 23.456 529.348 22.544C529.844 21.632 530.5 20.944 531.316 20.48C532.132 20 533.02 19.76 533.98 19.76C534.7 19.76 535.3 19.848 535.78 20.024C536.276 20.184 536.676 20.392 536.98 20.648C537.284 20.904 537.516 21.176 537.676 21.464H538.108V15.2H541.132V32H538.156V30.56H537.724C537.452 31.008 537.028 31.416 536.452 31.784C535.892 32.152 535.068 32.336 533.98 32.336ZM534.892 29.696C535.82 29.696 536.596 29.4 537.22 28.808C537.844 28.2 538.156 27.32 538.156 26.168V25.928C538.156 24.776 537.844 23.904 537.22 23.312C536.612 22.704 535.836 22.4 534.892 22.4C533.964 22.4 533.188 22.704 532.564 23.312C531.94 23.904 531.628 24.776 531.628 25.928V26.168C531.628 27.32 531.94 28.2 532.564 28.808C533.188 29.4 533.964 29.696 534.892 29.696ZM557.73 32.336C556.658 32.336 555.834 32.152 555.258 31.784C554.682 31.416 554.258 31.008 553.986 30.56H553.554V32H550.578V15.2H553.602V21.464H554.034C554.21 21.176 554.442 20.904 554.73 20.648C555.034 20.392 555.426 20.184 555.906 20.024C556.402 19.848 557.01 19.76 557.73 19.76C558.69 19.76 559.578 20 560.394 20.48C561.21 20.944 561.866 21.632 562.362 22.544C562.858 23.456 563.106 24.56 563.106 25.856V26.24C563.106 27.536 562.858 28.64 562.362 29.552C561.866 30.464 561.21 31.16 560.394 31.64C559.578 32.104 558.69 32.336 557.73 32.336ZM556.818 29.696C557.746 29.696 558.522 29.4 559.146 28.808C559.77 28.2 560.082 27.32 560.082 26.168V25.928C560.082 24.776 559.77 23.904 559.146 23.312C558.538 22.704 557.762 22.4 556.818 22.4C555.89 22.4 555.114 22.704 554.49 23.312C553.866 23.904 553.554 24.776 553.554 25.928V26.168C553.554 27.32 553.866 28.2 554.49 28.808C555.114 29.4 555.89 29.696 556.818 29.696ZM567.179 36.8V34.16H573.659C574.107 34.16 574.331 33.92 574.331 33.44V30.44H573.899C573.771 30.712 573.571 30.984 573.299 31.256C573.027 31.528 572.659 31.752 572.195 31.928C571.731 32.104 571.139 32.192 570.419 32.192C569.491 32.192 568.675 31.984 567.971 31.568C567.283 31.136 566.747 30.544 566.363 29.792C565.979 29.04 565.787 28.176 565.787 27.2V20.096H568.811V26.96C568.811 27.856 569.027 28.528 569.459 28.976C569.907 29.424 570.539 29.648 571.355 29.648C572.283 29.648 573.003 29.344 573.515 28.736C574.027 28.112 574.283 27.248 574.283 26.144V20.096H577.307V34.112C577.307 34.928 577.067 35.576 576.587 36.056C576.107 36.552 575.467 36.8 574.667 36.8H567.179Z" fill="white"/>
<path d="M820.2 249H805V264.2H820.2V249Z" fill="white"/>
<path d="M837 249H821.8V264.2H837V249Z" fill="white"/>
<path d="M820.2 265.8H805V281H820.2V265.8Z" fill="white"/>
<path d="M837 265.8H821.8V281H837V265.8Z" fill="white"/>
<path d="M867.679 256.356V274.661H864.358V260.297H864.314L858.38 274.661H856.166L850.1 260.297H850.055V274.661H847V256.356H851.782L857.273 269.915H857.362L863.162 256.356H867.679ZM870.424 257.754C870.424 257.246 870.601 256.822 871 256.483C871.399 256.144 871.841 255.975 872.373 255.975C872.948 255.975 873.435 256.144 873.79 256.483C874.144 256.822 874.365 257.246 874.365 257.754C874.365 258.263 874.188 258.686 873.79 259.025C873.391 259.364 872.948 259.534 872.373 259.534C871.797 259.534 871.354 259.364 871 259.025C870.646 258.644 870.424 258.22 870.424 257.754ZM874.011 261.525V274.661H870.779V261.525H874.011ZM883.797 272.415C884.284 272.415 884.815 272.331 885.391 272.076C885.967 271.864 886.498 271.568 886.985 271.229V274.11C886.454 274.407 885.878 274.619 885.214 274.746C884.55 274.873 883.841 274.958 883.044 274.958C881.007 274.958 879.369 274.364 878.129 273.136C876.845 271.907 876.225 270.339 876.225 268.475C876.225 266.356 876.889 264.619 878.173 263.263C879.458 261.907 881.273 261.229 883.664 261.229C884.284 261.229 884.904 261.314 885.48 261.441C886.1 261.568 886.587 261.78 886.941 261.949V264.915C886.454 264.576 885.923 264.28 885.435 264.11C884.904 263.941 884.373 263.814 883.841 263.814C882.557 263.814 881.539 264.195 880.742 265C879.945 265.805 879.59 266.864 879.59 268.22C879.59 269.534 879.989 270.593 880.742 271.314C881.494 272.034 882.513 272.415 883.797 272.415ZM896.151 261.314C896.417 261.314 896.638 261.314 896.86 261.356C897.081 261.398 897.258 261.441 897.391 261.483V264.619C897.214 264.492 896.993 264.364 896.638 264.28C896.284 264.195 895.93 264.11 895.443 264.11C894.646 264.11 893.982 264.449 893.45 265.085C892.919 265.72 892.609 266.695 892.609 268.051V274.661H889.376V261.525H892.609V263.602H892.653C892.963 262.881 893.406 262.331 893.982 261.907C894.601 261.525 895.31 261.314 896.151 261.314ZM897.568 268.305C897.568 266.144 898.232 264.407 899.472 263.136C900.756 261.864 902.528 261.229 904.786 261.229C906.911 261.229 908.594 261.822 909.79 263.051C910.985 264.28 911.605 265.932 911.605 268.008C911.605 270.127 910.941 271.822 909.701 273.093C908.417 274.364 906.69 275 904.476 275C902.351 275 900.668 274.407 899.428 273.22C898.188 271.992 897.568 270.339 897.568 268.305ZM900.934 268.178C900.934 269.534 901.244 270.593 901.908 271.314C902.572 272.034 903.502 272.415 904.697 272.415C905.849 272.415 906.779 272.076 907.399 271.314C908.018 270.593 908.328 269.534 908.328 268.093C908.328 266.695 908.018 265.636 907.399 264.873C906.779 264.153 905.849 263.771 904.742 263.771C903.546 263.771 902.661 264.153 901.996 264.915C901.244 265.72 900.934 266.78 900.934 268.178ZM916.432 265C916.432 265.424 916.565 265.805 916.875 266.059C917.185 266.314 917.804 266.61 918.823 266.992C920.107 267.5 921.037 268.051 921.524 268.644C922.055 269.28 922.321 270 922.321 270.89C922.321 272.119 921.834 273.093 920.815 273.856C919.841 274.619 918.469 274.958 916.786 274.958C916.21 274.958 915.59 274.873 914.882 274.746C914.173 274.619 913.598 274.449 913.111 274.237V271.186C913.686 271.568 914.351 271.907 915.015 272.119C915.679 272.331 916.299 272.458 916.875 272.458C917.583 272.458 918.159 272.373 918.469 272.161C918.823 271.949 919 271.653 919 271.186C919 270.763 918.823 270.424 918.469 270.085C918.114 269.788 917.406 269.449 916.432 269.068C915.236 268.602 914.395 268.051 913.908 267.458C913.421 266.864 913.155 266.102 913.155 265.169C913.155 263.983 913.642 263.008 914.616 262.246C915.59 261.483 916.875 261.102 918.424 261.102C918.911 261.102 919.443 261.144 920.018 261.271C920.594 261.398 921.125 261.525 921.524 261.653V264.661C921.081 264.407 920.594 264.153 920.018 263.941C919.443 263.729 918.867 263.644 918.336 263.644C917.716 263.644 917.229 263.771 916.919 263.983C916.609 264.28 916.432 264.576 916.432 265ZM923.694 268.305C923.694 266.144 924.358 264.407 925.598 263.136C926.882 261.864 928.653 261.229 930.911 261.229C933.037 261.229 934.72 261.822 935.915 263.051C937.111 264.28 937.731 265.932 937.731 268.008C937.731 270.127 937.066 271.822 935.827 273.093C934.542 274.364 932.815 275 930.601 275C928.476 275 926.793 274.407 925.554 273.22C924.358 271.992 923.694 270.339 923.694 268.305ZM927.059 268.178C927.059 269.534 927.369 270.593 928.033 271.314C928.697 272.034 929.627 272.415 930.823 272.415C931.974 272.415 932.904 272.076 933.524 271.314C934.144 270.593 934.454 269.534 934.454 268.093C934.454 266.695 934.144 265.636 933.524 264.873C932.904 264.153 931.974 263.771 930.867 263.771C929.672 263.771 928.786 264.153 928.122 264.915C927.413 265.72 927.059 266.78 927.059 268.178ZM948.491 264.068H943.664V274.661H940.387V264.068H938.085V261.525H940.387V259.703C940.387 258.347 940.875 257.203 941.804 256.314C942.734 255.424 943.93 255 945.391 255C945.79 255 946.144 255.042 946.454 255.042C946.764 255.042 947.03 255.127 947.251 255.212V257.881C947.162 257.839 946.941 257.754 946.675 257.669C946.41 257.585 946.1 257.542 945.745 257.542C945.081 257.542 944.55 257.754 944.196 258.136C943.841 258.517 943.664 259.153 943.664 259.915V261.483H948.491V258.517L951.723 257.585V261.483H955V264.025H951.723V270.169C951.723 270.975 951.9 271.525 952.166 271.864C952.476 272.203 952.963 272.373 953.627 272.373C953.804 272.373 954.026 272.331 954.292 272.246C954.557 272.161 954.779 272.076 954.956 271.949V274.492C954.734 274.619 954.424 274.703 953.937 274.788C953.45 274.873 953.007 274.915 952.52 274.915C951.148 274.915 950.129 274.576 949.465 273.898C948.801 273.22 948.446 272.161 948.446 270.763L948.491 264.068Z" fill="white"/>
<rect x="757.5" y="225.5" width="245" height="79" rx="39.5" stroke="white" stroke-opacity="0.04"/>
<path fill-rule="evenodd" clip-rule="evenodd" d="M91.6314 281.832C100.314 283.102 108.412 277.043 109.68 268.345C110.948 259.648 104.9 251.537 96.2167 250.168C87.5338 248.898 79.4363 254.957 78.1681 263.655C76.8998 272.352 82.9485 280.561 91.6314 281.832ZM95.5338 258.964C95.5338 258.866 97.8752 254.371 101.095 256.423C102.656 257.4 101.68 258.084 101.387 257.986C101.387 257.986 100.607 258.182 100.217 257.205C99.6313 255.836 98.5582 256.618 98.363 256.814C98.3088 256.882 98.256 256.946 98.2042 257.01C97.5119 257.856 97.0202 258.458 96.0216 263.459L100.119 264.045L99.924 265.218L95.8265 264.632V264.73L95.6314 266C95.6314 266 95.5338 266.391 95.4362 266.977L99.6313 267.564L99.4362 268.736L95.2411 268.15C94.9484 269.518 94.1679 272.548 93.5826 273.623C93.5826 273.72 91.2411 278.216 88.0217 276.164C86.4607 275.089 87.4363 274.502 87.6314 274.502C87.6314 274.502 88.4119 274.307 88.8021 275.284C89.3875 276.652 90.4607 275.87 90.6558 275.675C91.4363 274.795 92.2167 273.134 93.2899 267.759L89.1924 267.173L89.3875 266L93.485 266.586V266.489L93.6801 265.218C93.6801 265.218 93.7777 264.827 93.8753 264.241L89.7777 263.655L89.9729 262.482L94.1679 263.068C94.4606 261.798 94.9484 260.039 95.5338 258.964Z" fill="white"/>
<path fill-rule="evenodd" clip-rule="evenodd" d="M123.36 265.072H117.506V260.283H123.555L123.652 258.817H115.848V272.987H117.506V266.44H123.36V265.072ZM127.165 258.817H125.604V260.674H127.165V258.817ZM127.165 262.531H125.604V272.987H127.165V262.531ZM131.457 258.719L129.896 258.915V268.59C129.896 272.01 129.994 273.281 132.53 273.281C132.921 273.281 133.213 273.183 133.604 273.183L133.506 271.815C133.018 271.815 132.921 271.912 132.628 271.912C131.555 271.912 131.457 271.228 131.457 268.981V258.719ZM139.262 273.183C136.335 273.183 134.482 271.033 134.482 267.71C134.482 264.583 136.335 262.335 139.067 262.238C141.604 262.238 143.262 264.192 143.262 267.222C143.262 267.417 143.262 267.808 143.262 267.906H136.14C136.14 270.251 137.506 271.717 139.36 271.717C140.53 271.717 141.701 271.326 142.677 270.642L143.165 271.815C142.189 272.694 140.921 273.183 139.262 273.183ZM136.14 266.928H141.701C141.701 264.681 140.628 263.606 139.067 263.606C137.506 263.606 136.335 264.974 136.14 266.928ZM152.53 272.303C151.847 272.987 150.774 273.281 149.701 273.281C146.482 273.281 144.725 270.74 144.725 267.808C144.725 264.876 146.579 262.335 149.701 262.335C150.872 262.335 151.945 262.726 152.53 263.215L152.14 264.388C151.457 263.899 150.579 263.703 149.701 263.703C147.847 263.703 146.384 265.463 146.384 267.906C146.384 270.349 147.75 272.01 149.896 272.01C150.774 272.01 151.555 271.717 152.238 271.228L152.53 272.303ZM161.799 267.808C161.799 265.56 161.018 263.606 158.677 263.606C156.433 263.606 155.457 265.658 155.457 267.808C155.457 269.958 156.53 271.912 158.774 271.912C161.018 271.912 161.799 269.958 161.799 267.808ZM163.457 267.808C163.457 270.642 161.799 273.281 158.677 273.281C155.555 273.281 153.799 270.837 153.799 267.906C153.799 264.974 155.555 262.433 158.774 262.433C161.799 262.335 163.457 264.778 163.457 267.808ZM167.262 258.817H165.701V260.674H167.262V258.817ZM167.262 262.531H165.701V272.987H167.262V262.531ZM174.774 262.335C173.311 262.335 171.847 263.019 171.067 264.094L170.969 262.531H169.603V265.072V272.987H171.164V265.853C171.457 264.876 172.628 263.703 174.384 263.703C176.335 263.703 176.433 265.072 176.433 267.808V272.987H177.994V266.733C178.091 263.801 177.115 262.335 174.774 262.335Z" fill="white"/>
<rect x="30.5" y="226.5" width="195" height="79" rx="39.5" stroke="white" stroke-opacity="0.04"/>
<path d="M345.112 266.161H350.956C350.956 266.756 350.926 267.307 350.881 267.798C350.837 268.289 350.732 268.736 350.583 269.152C350.373 269.748 350.089 270.269 349.731 270.73C349.372 271.177 348.939 271.564 348.46 271.861C347.982 272.159 347.444 272.397 346.861 272.546C346.278 272.71 345.665 272.784 345.023 272.784C344.141 272.784 343.334 272.635 342.602 272.352C341.884 272.07 341.256 271.653 340.733 271.147C340.21 270.611 339.807 269.986 339.523 269.257C339.239 268.512 339.089 267.709 339.089 266.816C339.089 265.938 339.224 265.134 339.508 264.405C339.792 263.66 340.21 263.035 340.718 262.514C341.256 261.993 341.884 261.591 342.631 261.309C343.379 261.026 344.201 260.877 345.112 260.877C346.293 260.877 347.324 261.13 348.221 261.636C349.118 262.142 349.82 262.931 350.343 264.003L347.549 265.149C347.294 264.524 346.951 264.092 346.532 263.824C346.129 263.556 345.65 263.422 345.127 263.422C344.694 263.422 344.29 263.511 343.932 263.675C343.573 263.839 343.259 264.062 343.005 264.375C342.751 264.672 342.557 265.044 342.407 265.461C342.273 265.893 342.198 266.369 342.198 266.89C342.198 267.366 342.258 267.813 342.377 268.215C342.512 268.617 342.691 268.974 342.945 269.271C343.199 269.569 343.513 269.807 343.872 269.971C344.246 270.135 344.679 270.209 345.157 270.209C345.441 270.209 345.725 270.179 345.994 270.12C346.263 270.045 346.502 269.941 346.712 269.807C346.936 269.658 347.115 269.465 347.25 269.242C347.384 269.018 347.489 268.736 347.534 268.408H345.112V266.161ZM365.483 263.556V272.784H362.345V263.556H359.804V260.877H368.024V263.556H365.483ZM378.934 264.955C378.247 264.122 377.41 263.705 376.409 263.705C375.96 263.705 375.557 263.779 375.168 263.943C374.794 264.107 374.481 264.33 374.197 264.598C373.928 264.866 373.703 265.193 373.554 265.58C373.404 265.967 373.33 266.369 373.33 266.816C373.33 267.262 373.404 267.679 373.554 268.066C373.718 268.453 373.928 268.78 374.197 269.063C374.481 269.346 374.809 269.569 375.183 269.718C375.557 269.882 375.96 269.956 376.394 269.956C377.335 269.956 378.187 269.554 378.934 268.75V272.233L378.636 272.337C378.187 272.501 377.769 272.605 377.365 272.68C376.976 272.754 376.588 272.799 376.199 272.799C375.422 272.799 374.66 272.65 373.943 272.367C373.225 272.07 372.597 271.653 372.044 271.117C371.506 270.581 371.058 269.941 370.729 269.212C370.4 268.468 370.236 267.664 370.236 266.801C370.236 265.938 370.4 265.134 370.714 264.419C371.043 263.69 371.477 263.065 372.029 262.544C372.582 262.008 373.225 261.606 373.943 261.309C374.66 261.011 375.422 260.862 376.214 260.862C376.663 260.862 377.111 260.907 377.545 261.011C377.993 261.1 378.456 261.249 378.934 261.443V264.955ZM385.092 266.831C385.092 267.277 385.181 267.694 385.346 268.081C385.511 268.468 385.75 268.795 386.033 269.078C386.317 269.361 386.661 269.584 387.049 269.733C387.439 269.882 387.857 269.956 388.29 269.956C388.724 269.956 389.127 269.882 389.516 269.733C389.905 269.569 390.248 269.346 390.547 269.078C390.846 268.795 391.085 268.468 391.25 268.081C391.414 267.694 391.504 267.292 391.504 266.831C391.504 266.369 391.414 265.967 391.25 265.58C391.085 265.193 390.846 264.866 390.547 264.583C390.263 264.3 389.92 264.092 389.516 263.943C389.127 263.779 388.724 263.705 388.29 263.705C387.857 263.705 387.454 263.779 387.049 263.943C386.661 264.092 386.333 264.315 386.033 264.583C385.75 264.866 385.511 265.193 385.346 265.58C385.181 265.967 385.092 266.384 385.092 266.831ZM382.013 266.831C382.013 265.997 382.163 265.208 382.476 264.494C382.791 263.765 383.224 263.125 383.777 262.589C384.33 262.053 384.988 261.621 385.75 261.324C386.527 261.011 387.379 260.862 388.29 260.862C389.202 260.862 390.054 261.011 390.816 261.324C391.593 261.621 392.251 262.038 392.804 262.589C393.372 263.125 393.806 263.765 394.119 264.494C394.433 265.208 394.582 265.997 394.582 266.831C394.582 267.664 394.433 268.453 394.119 269.182C393.806 269.897 393.372 270.537 392.804 271.072C392.251 271.608 391.593 272.04 390.816 272.352C390.039 272.65 389.202 272.799 388.29 272.799C387.364 272.799 386.512 272.65 385.75 272.352C384.988 272.04 384.33 271.623 383.777 271.072C383.224 270.537 382.791 269.897 382.476 269.182C382.163 268.453 382.013 267.679 382.013 266.831ZM400.755 260.877V272.784H397.617V260.877H400.755ZM356.815 260.877V272.784H353.676V260.877H356.815ZM404.043 272.784V260.877H407.032L412.861 268.155V260.877H416V272.784H412.98L407.182 265.506V272.784H404.043Z" fill="white"/>
<path fill-rule="evenodd" clip-rule="evenodd" d="M327.063 261.567C328.103 263.018 328.667 264.781 328.653 266.558C328.653 268.305 328.088 270.052 327.063 271.474L329.232 273.117C330.613 271.222 331.37 268.912 331.37 266.572C331.385 264.099 330.568 261.671 329.068 259.716L327.825 260.833L327.063 261.567Z" fill="white"/>
<path fill-rule="evenodd" clip-rule="evenodd" d="M331.162 274.573L323.87 269.05C324.39 268.369 324.687 267.54 324.732 266.681C324.761 265.822 324.539 264.978 324.078 264.252L327.568 261.113L331.222 257.707C331.459 257.485 331.474 257.1 331.237 256.863L330.732 256.36C328.133 253.739 324.628 252.213 320.945 252.095L320.959 250.096C320.974 249.963 320.959 249.829 320.93 249.696C320.885 249.563 320.826 249.444 320.737 249.341C320.648 249.237 320.544 249.163 320.41 249.104C320.291 249.044 320.157 249.015 320.024 249.015C319.89 249.015 319.757 249.044 319.638 249.104C319.519 249.163 319.4 249.237 319.311 249.341C319.222 249.444 319.148 249.563 319.118 249.681C319.073 249.814 319.059 249.948 319.088 250.081L319.073 252.139C318.197 252.228 317.321 252.391 316.474 252.643L316.489 250.081C316.504 249.948 316.489 249.814 316.459 249.681C316.415 249.548 316.356 249.429 316.266 249.326C316.177 249.222 316.073 249.148 315.94 249.089C315.821 249.03 315.687 249 315.554 249C315.42 249 315.286 249.03 315.167 249.089C315.049 249.148 314.93 249.222 314.841 249.326C314.752 249.429 314.677 249.548 314.648 249.666C314.603 249.8 314.588 249.933 314.618 250.066L314.573 253.339C311.573 254.671 309.108 256.996 307.608 259.913C306.108 262.831 305.633 266.177 306.286 269.391C306.94 272.604 308.677 275.506 311.202 277.609C313.727 279.712 316.905 280.896 320.187 280.956L330.806 281C331.133 281 331.4 280.733 331.4 280.408V275.062C331.4 274.869 331.311 274.692 331.162 274.573ZM320.395 278.379C317.781 278.364 315.242 277.49 313.177 275.906C311.113 274.307 309.628 272.071 308.96 269.553C308.291 267.036 308.484 264.356 309.479 261.957C310.489 259.558 312.257 257.544 314.529 256.241L314.514 260.136C314.499 260.269 314.514 260.402 314.544 260.535C314.588 260.669 314.648 260.787 314.737 260.891C314.826 260.994 314.93 261.069 315.063 261.128C315.182 261.187 315.316 261.217 315.45 261.217C315.583 261.217 315.717 261.187 315.836 261.128C315.955 261.069 316.073 260.994 316.162 260.891C316.252 260.787 316.326 260.669 316.356 260.55C316.4 260.417 316.415 260.284 316.385 260.15L316.4 255.367C317.707 254.894 319.088 254.671 320.484 254.671C323.053 254.671 325.549 255.516 327.583 257.056C327.732 257.174 327.747 257.381 327.613 257.515L322.058 262.594C321.554 262.386 321.004 262.268 320.454 262.268C319.846 262.268 319.237 262.386 318.672 262.638C318.108 262.89 317.618 263.26 317.217 263.719C316.816 264.178 316.519 264.726 316.341 265.304C316.162 265.896 316.118 266.503 316.207 267.11C316.296 267.717 316.504 268.295 316.831 268.813C317.157 269.331 317.603 269.761 318.108 270.101C318.628 270.427 319.207 270.649 319.816 270.738C320.425 270.827 321.049 270.782 321.628 270.605L328.727 275.98C328.801 276.039 328.845 276.128 328.845 276.217L328.831 278.112C328.831 278.275 328.697 278.409 328.534 278.409L320.395 278.379ZM322.133 266.533C322.133 266.858 322.029 267.184 321.851 267.465C321.657 267.747 321.405 267.954 321.093 268.087C320.781 268.221 320.44 268.25 320.128 268.176C319.816 268.102 319.504 267.954 319.266 267.717C319.029 267.48 318.865 267.184 318.806 266.858C318.747 266.533 318.776 266.192 318.91 265.896C319.044 265.585 319.252 265.333 319.534 265.141C319.816 264.963 320.143 264.859 320.469 264.859C320.915 264.859 321.346 265.037 321.657 265.363C321.954 265.659 322.133 266.074 322.133 266.533Z" fill="white"/>
<rect x="258.5" y="225.5" width="205" height="79" rx="39.5" stroke="white" stroke-opacity="0.04"/>
<g clip-path="url(#clip0_663_51)">
<path d="M565.075 264.993C565.075 257.405 569.807 253.599 575.643 253.599C581.473 253.599 586.205 257.405 586.205 264.993C586.205 272.6 581.473 276.387 575.643 276.387C569.807 276.387 565.075 272.637 565.075 264.993ZM575.643 273.498C578.517 273.498 580.849 270.484 580.849 264.993C580.849 259.552 578.517 256.488 575.643 256.488C572.763 256.488 570.424 259.552 570.424 264.993C570.424 270.453 572.763 273.498 575.643 273.498Z" fill="white"/>
<path d="M544.599 254.429V275.551H548.271V261.362L559.594 275.551H562.68V254.429H559.189V266.073L549.78 254.429H544.599Z" fill="white"/>
<path d="M662.747 254.429L654.186 275.551H657.883L660.24 269.742H668.015L670.403 275.551H676.402L667.754 254.429H662.747ZM661.437 266.709L664.112 260.089L666.793 266.709H661.437Z" fill="white"/>
<path d="M628.304 268.269C628.204 270.203 628.055 272.119 625.916 272.837C624.962 273.149 623.21 273.142 622.219 272.749C621.745 272.556 621.452 272.394 621.084 272.026C620.373 271.32 620.086 269.823 620.061 268.849V254.429H614.562V268.269C614.612 270.179 614.924 272.1 616.164 273.642C618.291 276.287 622.2 276.662 625.361 276.269C627.325 276.025 629.046 275.376 630.43 273.929C631.384 272.93 631.977 271.358 632.145 270.004C632.251 269.218 632.263 269.087 632.263 268.269V254.429H628.304L628.304 268.269Z" fill="white"/>
<path d="M641.286 257.405C643.711 257.405 646.118 256.994 647.172 259.514C647.583 260.513 647.614 262.772 646.642 263.733C645.488 264.875 643.718 264.987 642.19 265.118L647.839 275.551H653.631L648.506 266.247C651.561 265.174 652.995 263.446 652.846 260.145C652.684 256.582 649.672 254.429 646.237 254.429H635.812V275.551H641.286V257.405Z" fill="white"/>
<path d="M605.652 275.551L597.503 254.429H593.22L585.301 275.551H589.148L594.473 261.274L599.885 275.551H605.652Z" fill="white"/>
<path d="M605.914 254.429H601.431L600.066 258.042L602.011 263.096L602.716 261.274L607.984 275.551H614.07L605.914 254.429Z" fill="white"/>
<path d="M595.957 268.182L593.22 275.551H596.718L597.734 272.774L595.957 268.182Z" fill="white"/>
</g>
<rect x="496.5" y="225.5" width="228" height="79" rx="39.5" stroke="white" stroke-opacity="0.04"/>
<g clip-path="url(#clip1_663_51)">
<path d="M622.958 145.776C622.299 145.37 621.443 145.37 620.718 145.776L615.576 148.888L612.083 150.917L606.942 154.03C606.283 154.436 605.426 154.436 604.701 154.03L600.614 151.594C599.955 151.188 599.493 150.444 599.493 149.632V144.829C599.493 144.017 599.889 143.273 600.614 142.867L604.635 140.499C605.294 140.093 606.151 140.093 606.876 140.499L610.896 142.867C611.556 143.273 612.017 144.017 612.017 144.829V147.941L615.51 145.844V142.732C615.51 141.92 615.115 141.175 614.39 140.77L606.942 136.304C606.283 135.899 605.426 135.899 604.701 136.304L597.121 140.77C596.395 141.175 596 141.92 596 142.732V151.729C596 152.541 596.395 153.285 597.121 153.691L604.701 158.156C605.36 158.562 606.217 158.562 606.942 158.156L612.083 155.112L615.576 153.015L620.718 149.97C621.377 149.564 622.233 149.564 622.958 149.97L626.979 152.338C627.638 152.744 628.1 153.488 628.1 154.3V159.104C628.1 159.915 627.704 160.66 626.979 161.066L622.958 163.501C622.299 163.907 621.443 163.907 620.718 163.501L616.697 161.133C616.038 160.727 615.576 159.983 615.576 159.171V156.059L612.083 158.156V161.268C612.083 162.08 612.478 162.825 613.203 163.23L620.783 167.696C621.442 168.102 622.299 168.102 623.024 167.696L630.604 163.23C631.264 162.825 631.725 162.08 631.725 161.268V152.271C631.725 151.459 631.329 150.715 630.604 150.309L622.958 145.776Z" fill="white"/>
<path d="M645.642 165.122V157.652C646.446 158.672 647.905 159.242 649.602 159.242C653.918 159.242 656.836 156.152 656.836 151.442C656.836 146.732 654.157 143.642 649.959 143.642C648.024 143.642 646.535 144.362 645.642 145.532V143.882H641.504V165.122H645.642ZM649.096 155.642C646.863 155.642 645.404 153.962 645.404 151.442C645.404 148.892 646.863 147.212 649.096 147.212C651.269 147.212 652.757 148.892 652.757 151.442C652.757 153.962 651.269 155.642 649.096 155.642Z" fill="white"/>
<path d="M666.232 159.242C670.847 159.242 674.152 155.942 674.152 151.442C674.152 146.942 670.847 143.642 666.232 143.642C661.618 143.642 658.313 146.942 658.313 151.442C658.313 155.942 661.618 159.242 666.232 159.242ZM666.232 155.642C664 155.642 662.481 153.932 662.481 151.442C662.481 148.922 664 147.212 666.232 147.212C668.465 147.212 669.984 148.922 669.984 151.442C669.984 153.932 668.465 155.642 666.232 155.642Z" fill="white"/>
<path d="M680.791 159.003V137.312H676.653V159.003H680.791Z" fill="white"/>
<path d="M693.231 143.883L690.105 153.633L686.949 143.883H682.722L688.17 158.883L685.967 165.123H689.926L692.04 158.943L697.488 143.883H693.231Z" fill="white"/>
<path d="M709.11 145.382C708.276 144.332 706.788 143.642 704.972 143.642C700.595 143.642 697.946 146.732 697.946 151.442C697.946 156.152 700.595 159.242 705.031 159.242C706.788 159.242 708.365 158.582 709.14 157.472V159.452C709.14 160.862 708.217 161.852 706.966 161.852H700.059V165.122H707.621C711.015 165.122 713.278 163.052 713.278 159.902V143.882H709.11V145.382ZM705.686 155.642C703.483 155.642 702.024 153.992 702.024 151.442C702.024 148.892 703.483 147.212 705.686 147.212C707.919 147.212 709.378 148.892 709.378 151.442C709.378 153.992 707.919 155.642 705.686 155.642Z" fill="white"/>
<path d="M723.71 159.242C728.325 159.242 731.629 155.942 731.629 151.442C731.629 146.942 728.325 143.642 723.71 143.642C719.096 143.642 715.791 146.942 715.791 151.442C715.791 155.942 719.096 159.242 723.71 159.242ZM723.71 155.642C721.477 155.642 719.959 153.932 719.959 151.442C719.959 148.922 721.477 147.212 723.71 147.212C725.943 147.212 727.461 148.922 727.461 151.442C727.461 153.932 725.943 155.642 723.71 155.642Z" fill="white"/>
<path d="M738.061 159.002V150.722C738.061 148.772 739.341 147.362 741.157 147.362C742.883 147.362 744.044 148.682 744.044 150.512V159.002H748.212V149.582C748.212 146.102 746.009 143.642 742.615 143.642C740.561 143.642 738.894 144.512 738.061 145.982V143.882H733.893V159.002H738.061Z" fill="white"/>
</g>
<rect x="548.5" y="112.5" width="248" height="79" rx="39.5" stroke="white" stroke-opacity="0.04"/>
<path d="M959.384 164.261L962.286 163.352V139.368L959.384 140.278V164.261ZM925.904 149.709C927.726 149.709 929.414 150.518 930.494 151.865L931.675 149.137C930.123 147.655 928.064 146.947 925.904 146.947C920.909 146.947 917.466 150.888 917.5 155.234C917.534 159.949 921.246 163.789 925.904 163.789C928.266 163.789 930.055 163.082 931.405 162.105V158.77C929.988 160.185 927.929 161.027 926.14 161.027C923.44 161.027 920.403 158.838 920.403 155.234C920.403 151.899 923.035 149.709 925.904 149.709ZM945.209 146.947C940.214 146.947 937.311 150.888 937.311 155.234C937.311 159.949 941.058 163.789 945.715 163.789C948.078 163.789 949.866 163.082 951.216 162.105V158.77C949.799 160.185 947.74 161.027 945.951 161.027C943.555 161.027 940.923 159.545 940.383 156.413H953.106V155.301C953.106 150.653 950.035 146.947 945.209 146.947ZM976.563 146.947C971.905 146.947 968.125 150.72 968.125 155.368C968.125 160.017 971.905 163.789 976.563 163.789C981.22 163.789 985 160.017 985 155.368C985 150.72 981.22 146.947 976.563 146.947ZM945.243 149.709C947.504 149.709 949.9 151.124 950.103 153.853H940.383C940.585 151.124 942.981 149.709 945.243 149.709ZM976.563 161.027C975.441 161.027 974.345 160.695 973.413 160.074C972.48 159.452 971.753 158.568 971.324 157.534C970.895 156.5 970.783 155.362 971.002 154.264C971.22 153.167 971.76 152.158 972.553 151.367C973.346 150.575 974.357 150.037 975.457 149.818C976.556 149.6 977.696 149.712 978.733 150.14C979.769 150.569 980.654 151.294 981.277 152.224C981.9 153.155 982.233 154.249 982.233 155.368C982.234 156.112 982.088 156.848 981.804 157.535C981.519 158.223 981.102 158.847 980.575 159.373C980.048 159.898 979.423 160.315 978.734 160.599C978.046 160.883 977.308 161.029 976.563 161.027Z" fill="white"/>
<path d="M889.656 164.8C894.875 164.8 899.106 160.577 899.106 155.368C899.106 150.16 894.875 145.937 889.656 145.937C884.437 145.937 880.206 150.16 880.206 155.368C880.206 160.577 884.437 164.8 889.656 164.8ZM889.656 168C882.667 168 877 162.344 877 155.368C877 148.392 882.667 142.737 889.656 142.737C896.646 142.737 902.312 148.392 902.312 155.368C902.312 162.344 896.646 168 889.656 168Z" fill="white"/>
<path d="M896.406 158.063C901.625 158.063 905.856 153.84 905.856 148.632C905.856 143.423 901.625 139.2 896.406 139.2C891.187 139.2 886.956 143.423 886.956 148.632C886.956 153.84 891.187 158.063 896.406 158.063ZM896.406 161.263C889.417 161.263 883.75 155.608 883.75 148.632C883.75 141.656 889.417 136 896.406 136C903.396 136 909.062 141.656 909.062 148.632C909.062 155.608 903.396 161.263 896.406 161.263Z" fill="white"/>
<rect x="829.5" y="112.5" width="203" height="79" rx="39.5" stroke="white" stroke-opacity="0.04"/>
<path d="M92.0445 136.001C88.0568 136.001 85.7817 138.259 85.7817 141.997C85.7817 145.618 88.0576 147.956 91.967 147.956C95.5656 147.956 97.6654 146.107 98.0158 143.167H95.2928C95.0393 144.841 94.0088 145.854 91.9864 145.854C89.7501 145.854 88.4273 144.55 88.4273 141.979C88.4273 139.408 89.6136 138.104 91.9864 138.104C93.9313 138.104 94.9425 139.077 95.2144 140.771H97.9181C97.5678 137.929 95.7205 136.001 92.0445 136.001Z" fill="white"/>
<path fill-rule="evenodd" clip-rule="evenodd" d="M104.977 147.956C108.789 147.956 111.123 145.639 111.123 141.939C111.123 138.085 108.575 136.001 104.977 136.001C101.166 136.001 98.8315 138.163 98.8315 142.018C98.8315 145.872 101.379 147.956 104.977 147.956ZM104.977 138.103C107.078 138.103 108.478 139.329 108.478 142.017C108.478 144.625 107.194 145.852 104.977 145.852C102.877 145.852 101.476 144.547 101.476 141.938C101.476 139.329 102.76 138.103 104.977 138.103Z" fill="white"/>
<path d="M115.148 136.195H112.542V147.761H115.148V139.915C115.829 138.61 116.762 138.006 118.26 138.006C120.127 138.006 121.08 138.863 121.08 140.732V147.76H123.686V140.361C123.686 137.596 122.169 136 119.485 136C117.112 136 115.809 137.227 115.148 139.271V136.195Z" fill="white"/>
<path d="M127.498 144.217H124.775C125.067 146.534 126.799 147.956 130.533 147.956C134.267 147.956 135.842 146.418 135.842 144.354C135.842 142.603 135.006 141.395 132.478 141.103L128.996 140.694C127.966 140.577 127.596 140.168 127.596 139.487C127.596 138.67 128.218 138.047 130.202 138.047C132.186 138.047 132.866 138.708 133.022 139.721H135.725C135.394 137.521 133.974 136.002 130.28 136.002C126.585 136.002 125.087 137.579 125.087 139.642C125.087 141.453 126.04 142.544 128.588 142.835L131.933 143.225C133.042 143.361 133.333 143.828 133.333 144.451C133.333 145.288 132.575 145.911 130.591 145.911C128.607 145.911 127.712 145.366 127.498 144.217Z" fill="white"/>
<path fill-rule="evenodd" clip-rule="evenodd" d="M136.833 142.017C136.833 145.404 138.934 147.955 142.863 147.955C146.15 147.955 148.172 146.397 148.756 144.022H146.091C145.702 145.171 144.71 145.852 142.94 145.852C140.976 145.852 139.712 144.703 139.479 142.64H148.833C148.853 138.589 147.102 136 142.882 136C139.089 136 136.833 138.434 136.833 142.017ZM146.091 140.868H139.518C139.849 139.018 141.054 138.045 142.863 138.045C144.924 138.045 145.916 139.154 146.091 140.868Z" fill="white"/>
<path d="M152.722 136.195H150.116V147.761H152.722V139.915C153.403 138.61 154.336 138.006 155.834 138.006C157.701 138.006 158.654 138.863 158.654 140.732V147.76H161.26V140.361C161.26 137.596 159.743 136 157.059 136C154.686 136 153.383 137.227 152.722 139.271V136.195Z" fill="white"/>
<path d="M165.072 144.217H162.35C162.641 146.534 164.373 147.956 168.107 147.956C171.841 147.956 173.416 146.418 173.416 144.354C173.416 142.603 172.58 141.395 170.052 141.103L166.57 140.694C165.54 140.577 165.17 140.168 165.17 139.487C165.17 138.67 165.792 138.047 167.776 138.047C169.76 138.047 170.44 138.708 170.596 139.721H173.3C172.969 137.521 171.548 136.002 167.854 136.002C164.159 136.002 162.661 137.579 162.661 139.642C162.661 141.453 163.614 142.544 166.162 142.835L169.507 143.225C170.616 143.361 170.907 143.828 170.907 144.451C170.907 145.288 170.149 145.911 168.165 145.911C166.181 145.911 165.286 145.366 165.072 144.217Z" fill="white"/>
<path d="M180.999 150.603L185.842 136.196H183.118L179.773 146.32L176.291 136.196H173.414L177.206 146.495H179.715L179.073 148.462H174.678V150.603H180.999Z" fill="white"/>
<path d="M188.526 144.218H185.803C186.094 146.535 187.826 147.957 191.56 147.957C195.294 147.957 196.87 146.419 196.87 144.355C196.87 142.604 196.034 141.396 193.505 141.104L190.024 140.695C188.993 140.578 188.623 140.169 188.623 139.488C188.623 138.671 189.246 138.048 191.229 138.048C193.213 138.048 193.893 138.709 194.049 139.722H196.753C196.422 137.522 195.001 136.003 191.307 136.003C187.612 136.003 186.114 137.58 186.114 139.643C186.114 141.454 187.067 142.545 189.615 142.836L192.96 143.226C194.069 143.362 194.361 143.829 194.361 144.452C194.361 145.289 193.602 145.912 191.618 145.912C189.635 145.912 188.74 145.367 188.526 144.218Z" fill="white"/>
<path fill-rule="evenodd" clip-rule="evenodd" d="M79.7696 152.098V147.761V136.195H68.2168H63.8843C55.1116 136.195 48 143.315 48 152.097C48 160.88 55.1125 168 63.8852 168C72.6579 168 79.7696 160.88 79.7696 152.098ZM60.2746 144.146L68.2168 136.195V147.761H79.7696L71.8256 155.716H60.2746V144.146Z" fill="white"/>
<rect x="0.5" y="112.5" width="245.4" height="79" rx="39.5" stroke="white" stroke-opacity="0.04"/>
<g clip-path="url(#clip2_663_51)">
<path d="M337.318 163.667H333.042L331.567 159.096H323.751L322.277 163.667H318L325.054 142.776H330.313L337.318 163.667ZM330.363 155.409L328.003 148.159H327.29L324.931 155.409H330.363Z" fill="white"/>
<path d="M353.613 159.759V163.667H339.26V142.776H343.438V159.759H353.613Z" fill="white"/>
<path d="M370.965 159.759V163.667H356.611V142.776H360.79V159.759H370.965Z" fill="white"/>
<path d="M432.777 146.512H429.483V152.312H432.777C434.473 152.312 435.603 151.009 435.603 149.264C435.603 147.519 434.448 146.512 432.777 146.512Z" fill="white"/>
<path d="M451.087 158.285H451.8L454.159 151.034H448.728L451.087 158.285Z" fill="white"/>
<path d="M375.487 137V169H464.704V137H375.487ZM384.237 163.667H380.083V142.776H384.237V163.667ZM404.833 163.667H400.925L392.667 150.174H392.274V163.667H388.366V142.776H392.298L400.556 155.9H400.925V142.776H404.833V163.667ZM422.701 146.561H412.944V151.206H420.907V154.868H412.944V163.642H408.937V151.23V142.776H422.701V146.561ZM436.415 163.667L431.967 155.999H429.484V163.667H425.699V142.776H433.073C436.513 142.776 439.561 145.086 439.561 149.191C439.561 152.066 437.939 154.229 435.801 155.286L440.839 163.667H436.415ZM454.086 163.667H448.827L441.773 142.776H446.074L447.549 147.347H455.364L456.839 142.776H461.14L454.086 163.667Z" fill="white"/>
</g>
<rect x="270.5" y="113.5" width="242" height="79" rx="39.5" stroke="white" stroke-opacity="0.04"/>
<defs>
<clipPath id="clip0_663_51">
<rect width="133" height="24" fill="white" transform="translate(544 253)"/>
</clipPath>
<clipPath id="clip1_663_51">
<rect width="153" height="32" fill="white" transform="translate(596 136)"/>
</clipPath>
<clipPath id="clip2_663_51">
<rect width="147" height="32" fill="white" transform="translate(318 137)"/>
</clipPath>
</defs>
</svg>
