<svg width="27" height="40" viewBox="0 0 27 40" fill="none" xmlns="http://www.w3.org/2000/svg">
<path fill-rule="evenodd" clip-rule="evenodd" d="M0 18.6097C0 24.1034 3.4705 28.8329 8.39248 30.8014L8.38282 30.8242C9.9902 31.4598 11.7197 31.7974 13.4898 31.7974C15.2396 31.7974 16.9488 31.4796 18.5765 30.8242L18.5724 30.8146C23.5053 28.8572 27 24.1284 27 18.6097C27 7.59083 14.6701 0.655791 14.0088 0.283832L13.9985 0.278054L13.4898 0L12.9812 0.278054C12.4521 0.575968 0 7.6862 0 18.6097ZM2.26733 16.232C2.6045 16.8909 3.6918 18.207 7.06029 19.6822C9.65789 20.8111 11.3611 22.7606 12.4725 24.7373V20.139L12.4318 19.7021C12.1876 18.0338 11.0279 12.3734 6.22607 10.288C5.87405 10.1339 5.53651 9.97991 5.21778 9.82588C3.84873 11.6999 2.73198 13.8556 2.26733 16.232ZM14.5072 20.1787L14.5072 24.7989C15.6179 22.8024 17.3293 20.8324 19.9601 19.7021C23.2865 18.2531 24.3808 16.9576 24.7351 16.3011C24.2905 13.8884 23.1818 11.7096 21.8141 9.82191C21.4906 9.98349 21.1439 10.1485 20.7739 10.3078C15.9518 12.3932 14.792 18.0536 14.5479 19.7418L14.5072 20.1787ZM14.5072 13.5774V2.94849C16.0145 3.96655 18.4162 5.7781 20.536 8.21683C20.3518 8.30435 20.16 8.39249 19.9601 8.48063C17.3293 9.6109 15.6179 11.581 14.5072 13.5774ZM12.4725 2.9763V13.5359C11.3612 11.5511 9.65469 9.59315 7.03994 8.46077C6.85274 8.38246 6.67433 8.302 6.50327 8.22152C8.60547 5.81359 10.9739 4.00738 12.4725 2.9763ZM24.9337 19.1078C24.6845 24.6065 20.3305 29.0971 14.8031 29.7181C15.3449 27.3632 16.8353 23.2414 20.7943 21.5293C22.5406 20.7611 23.9215 19.954 24.9337 19.1078ZM12.2095 29.7221C11.6788 27.388 10.1991 23.2151 6.22607 21.4896C4.45447 20.721 3.05904 19.9008 2.04294 19.0382C2.25815 24.5965 6.64276 29.1149 12.2095 29.7221ZM12.4725 38.9871C12.4725 39.5432 12.9201 39.9801 13.4898 39.9801V40C14.7106 40 15.9111 39.8411 17.0912 39.5233C18.3323 39.1857 19.2072 38.0933 19.2072 36.8421V32.8302L17.8033 33.3863C15.0362 34.4985 11.8621 34.4786 9.15599 33.3863C8.64732 33.1678 8.03693 33.4062 7.83346 33.9225C7.60965 34.4191 7.85381 35.0149 8.38282 35.2135C11.15 36.3257 14.2833 36.5045 17.1726 35.6902V36.8222C17.1726 37.1797 16.9081 37.4975 16.5418 37.5968C15.5448 37.855 14.5275 37.994 13.4898 37.994C12.9201 37.994 12.4725 38.431 12.4725 38.9871Z" fill="#14B8A6"/>
</svg>
