<svg width="807" height="158" viewBox="0 0 807 158" fill="none" xmlns="http://www.w3.org/2000/svg">
    <g clip-path="url(#clip0_663_52)">
        <mask id="mask0_663_52" style="mask-type:luminance" maskUnits="userSpaceOnUse" x="0" y="0" width="807" height="158">
            <path d="M0 0H807V158H0V0Z" fill="white"/>
        </mask>
        <g mask="url(#mask0_663_52)">
            <path d="M119.745 25.335C119.715 25.3379 119.686 25.3498 119.663 25.3693C119.64 25.3888 119.623 25.4149 119.615 25.4442C119.606 25.4735 119.607 25.5045 119.617 25.5332C119.627 25.5619 119.646 25.587 119.67 25.605C126.09 29.73 125.43 33.465 137.28 42.105H137.385C134.67 32.85 128.355 25.605 119.745 25.335ZM136.245 29.655C136.155 29.655 136.035 29.655 136.095 29.805C137.97 33.2341 139.23 36.9657 139.815 40.83L141.72 49.935C141.72 49.935 141.645 50.04 141.615 49.935C139.935 47.145 132.135 43.29 127.005 39.27C126.986 39.2538 126.962 39.2448 126.938 39.2445C126.92 39.2444 126.903 39.2486 126.888 39.2567C126.872 39.2648 126.859 39.2766 126.85 39.291C126.84 39.3055 126.834 39.322 126.832 39.3393C126.831 39.3566 126.833 39.374 126.84 39.39C129.735 47.85 139.08 51.48 144.84 57.69C144.847 57.7061 144.859 57.7197 144.873 57.7293C144.888 57.7389 144.905 57.744 144.923 57.744C144.94 57.744 144.957 57.7389 144.972 57.7293C144.987 57.7197 144.998 57.7061 145.005 57.69C144.555 48.525 145.98 37.38 136.23 29.655H136.245ZM153 59.1C152.79 53.1 151.5 47.625 147.66 42.93C147.649 42.9159 147.634 42.9044 147.618 42.8967C147.602 42.8889 147.584 42.8849 147.566 42.885C147.534 42.885 147.503 42.8976 147.481 42.9201C147.458 42.9427 147.446 42.9732 147.446 43.005C147.446 43.0152 147.447 43.0253 147.45 43.035C149.985 52.32 147.285 60.435 148.32 67.425C148.32 67.515 148.215 67.545 148.17 67.425C145.62 61.185 138.615 58.14 135.51 53.82C135.51 53.7 135.27 53.82 135.3 53.925C138.165 66.24 147.3 70.17 149.205 76.665C149.205 76.785 149.385 76.8 149.415 76.665C150.615 71.745 153.18 66.405 153 59.1ZM156.27 65.85C156.27 65.8182 156.257 65.7876 156.235 65.7651C156.212 65.7426 156.182 65.73 156.15 65.73C156.118 65.73 156.088 65.7426 156.065 65.7651C156.043 65.7876 156.03 65.8182 156.03 65.85C155.79 74.94 150.465 81.99 149.4 88.26H149.295C149.1 80.13 143.295 75.225 139.935 69.06C139.924 69.0379 139.907 69.0193 139.885 69.0064C139.864 68.9934 139.84 68.9865 139.815 68.9865C139.79 68.9865 139.766 68.9934 139.745 69.0064C139.724 69.0193 139.706 69.0379 139.695 69.06C139.2 80.835 147.705 88.155 147.42 97.965C147.42 98.1 147.585 98.16 147.645 98.055C154.275 88.875 160.575 77.67 156.195 65.85H156.27ZM158.37 90.165C158.361 90.1385 158.344 90.1156 158.321 90.0993C158.298 90.0831 158.271 90.0744 158.243 90.0744C158.215 90.0744 158.187 90.0831 158.164 90.0993C158.141 90.1156 158.124 90.1385 158.115 90.165C154.005 98.46 149.115 100.35 142.89 109.41C145.23 102.105 141.21 92.415 141.06 85.935C141.06 85.9032 141.047 85.8727 141.025 85.8501C141.002 85.8276 140.972 85.815 140.94 85.815C140.908 85.815 140.878 85.8276 140.855 85.8501C140.833 85.8727 140.82 85.9032 140.82 85.935C135.915 97.8 141.075 110.025 136.77 118.035C136.77 118.125 136.77 118.215 136.905 118.17C143.304 114.983 148.911 110.406 153.315 104.775C156 100.395 158.55 95.805 158.295 90.165H158.37ZM152.25 112.215C147.96 118.215 138.33 120.42 128.94 127.8C128.94 127.8 128.82 127.8 128.94 127.71C133.695 121.395 133.17 112.71 134.94 105.21L134.942 105.192C134.942 105.171 134.935 105.15 134.923 105.133C134.912 105.116 134.895 105.102 134.875 105.094C134.856 105.087 134.834 105.085 134.814 105.089C134.793 105.094 134.774 105.105 134.76 105.12C125.67 115.44 126.81 126.705 122.76 131.985C122.748 132.003 122.741 132.024 122.741 132.045C122.741 132.102 122.789 132.15 122.846 132.15H122.85C136.59 132.15 151.455 120.06 152.505 112.335C152.37 112.185 152.25 112.14 152.175 112.215H152.25ZM139.155 132.84C127.065 138.315 122.22 135.225 110.655 137.445C118.71 132.99 120.21 125.955 123.015 121.365C123.035 121.345 123.046 121.318 123.047 121.29C123.047 121.262 123.035 121.235 123.015 121.215C122.995 121.195 122.968 121.184 122.94 121.184C122.912 121.184 122.885 121.195 122.865 121.215C114.015 125.52 111.12 135.465 100.515 138.03C100.496 138.038 100.479 138.051 100.467 138.069C100.455 138.086 100.449 138.107 100.449 138.128C100.449 138.148 100.455 138.169 100.467 138.186C100.479 138.204 100.496 138.217 100.515 138.225C105.015 139.275 108.345 141.225 112.995 141.63C125.925 142.725 135.36 138.78 139.335 133.005C139.351 132.981 139.36 132.952 139.359 132.923C139.358 132.89 139.347 132.859 139.327 132.833C139.308 132.808 139.28 132.789 139.249 132.78C139.219 132.771 139.185 132.772 139.155 132.782C139.125 132.793 139.098 132.813 139.08 132.84H139.155ZM39.84 25.335C31.23 25.605 24.84 32.835 22.2 42.09C22.2 42.09 22.2 42.18 22.305 42.09C34.155 33.405 33.495 29.67 39.915 25.59C39.9442 25.5615 39.9609 25.5227 39.9615 25.482C39.9615 25.4472 39.9493 25.4135 39.9272 25.3867C39.905 25.3599 39.8742 25.3416 39.84 25.335ZM32.595 39.315C27.48 43.335 19.665 47.19 17.985 49.98H17.88L19.785 40.875C20.3705 37.0107 21.6296 33.2791 23.505 29.85C23.505 29.745 23.505 29.625 23.355 29.7C13.605 37.425 15.03 48.57 14.61 57.705C14.617 57.7211 14.6286 57.7347 14.6432 57.7443C14.6579 57.7539 14.675 57.759 14.6925 57.759C14.7101 57.759 14.7272 57.7539 14.7419 57.7443C14.7565 57.7347 14.768 57.7211 14.775 57.705C20.52 51.495 29.865 47.865 32.775 39.405L32.7765 39.387C32.7766 39.366 32.7703 39.3454 32.7584 39.328C32.7466 39.3105 32.7298 39.2971 32.7103 39.2893C32.6907 39.2816 32.6693 39.2799 32.6487 39.2844C32.6282 39.289 32.6095 39.2997 32.595 39.315ZM24.15 53.85C21 58.17 14.04 61.215 11.49 67.5C11.49 67.59 11.34 67.5 11.355 67.5C12.375 60.51 9.67505 52.395 12.21 43.11C12.213 43.1003 12.2145 43.0902 12.2145 43.08C12.2145 43.0482 12.2019 43.0177 12.1794 42.9951C12.1569 42.9726 12.1264 42.96 12.0945 42.96C12.0764 42.9599 12.0585 42.9639 12.0421 42.9717C12.0258 42.9794 12.0114 42.9908 12 43.005C8.17505 47.7 6.87005 53.22 6.66005 59.175C6.40505 66.48 8.97005 71.82 10.245 76.785C10.245 76.905 10.425 76.89 10.455 76.785C12.285 70.29 21.495 66.36 24.36 54.045C24.3845 54.0183 24.3984 53.9837 24.399 53.9475C24.3987 53.9094 24.3834 53.873 24.3564 53.8461C24.3295 53.8192 24.2931 53.8039 24.255 53.8035C24.2353 53.8037 24.2158 53.808 24.1978 53.8159C24.1797 53.8239 24.1635 53.8355 24.15 53.85ZM19.965 69.135C19.9537 69.1129 19.9366 69.0943 19.9154 69.0814C19.8942 69.0684 19.8699 69.0615 19.845 69.0615C19.8202 69.0615 19.7959 69.0684 19.7747 69.0814C19.7535 69.0943 19.7364 69.1129 19.725 69.135C16.425 75.3 10.56 80.205 10.38 88.335C10.38 88.425 10.275 88.425 10.26 88.335C9.19505 82.065 3.87005 75.015 3.63005 65.925C3.63005 65.8932 3.6174 65.8627 3.5949 65.8401C3.5724 65.8176 3.54187 65.805 3.51005 65.805C3.47822 65.805 3.4477 65.8176 3.42519 65.8401C3.40269 65.8627 3.39005 65.8932 3.39005 65.925C-0.989953 77.745 5.31005 88.95 12.015 98.205C12.0239 98.2276 12.0393 98.2471 12.0594 98.2607C12.0795 98.2744 12.1033 98.2816 12.1275 98.2815C12.1597 98.2811 12.1903 98.2682 12.213 98.2455C12.2357 98.2228 12.2487 98.1921 12.249 98.16C12.249 98.1446 12.2459 98.1293 12.24 98.115C12 88.23 20.46 80.91 19.965 69.135ZM22.965 117.915C18.645 109.905 23.805 97.68 18.9 85.815C18.9 85.7832 18.8874 85.7526 18.8649 85.7301C18.8424 85.7076 18.8119 85.695 18.78 85.695C18.7482 85.695 18.7177 85.7076 18.6952 85.7301C18.6727 85.7526 18.66 85.7832 18.66 85.815C18.51 92.295 14.49 101.985 16.92 109.29C10.635 100.29 5.71505 98.34 1.60505 90.045C1.59583 90.0185 1.57861 89.9956 1.55576 89.9793C1.53291 89.9631 1.50558 89.9544 1.47755 89.9544C1.44952 89.9544 1.42218 89.9631 1.39933 89.9793C1.37649 89.9956 1.35926 90.0185 1.35005 90.045C1.09505 95.685 3.58505 100.275 6.40505 104.535C10.8095 110.166 16.4159 114.743 22.815 117.93C22.845 117.939 22.8795 117.933 22.905 117.915H22.965ZM36.975 132C32.955 126.72 34.095 115.5 24.975 105.135C24.9596 105.119 24.9392 105.107 24.9169 105.103C24.8947 105.099 24.8717 105.103 24.8515 105.113C24.8313 105.123 24.8149 105.139 24.8047 105.16C24.7945 105.18 24.7911 105.203 24.795 105.225C26.535 112.83 26.01 121.455 30.795 127.725V127.815C21.405 120.435 11.775 118.215 7.48505 112.23H7.30505C8.35505 119.955 23.22 132.015 36.975 132.045C36.978 132.03 36.978 132.015 36.975 132ZM59.175 138C48.585 135.435 45.675 125.49 36.825 121.185C36.8052 121.165 36.7782 121.154 36.75 121.153C36.7218 121.153 36.6947 121.165 36.6747 121.185C36.6548 121.205 36.6435 121.232 36.6435 121.26C36.6435 121.288 36.6555 121.316 36.675 121.335C39.48 125.925 40.98 132.96 49.035 137.295C37.485 135.195 32.64 138.285 20.535 132.81C20.5126 132.802 20.4881 132.8 20.4647 132.806C20.4414 132.811 20.4202 132.824 20.4041 132.842C20.3879 132.859 20.3775 132.882 20.3741 132.905C20.3707 132.929 20.3745 132.953 20.385 132.975C24.36 138.75 33.795 142.695 46.725 141.6C51.375 141.21 54.75 139.245 59.205 138.195C59.2239 138.185 59.2392 138.169 59.2487 138.149C59.2582 138.13 59.2616 138.108 59.2583 138.087C59.255 138.066 59.2453 138.046 59.2304 138.03C59.2155 138.015 59.1962 138.004 59.175 138ZM126 145.02C121.499 146.636 116.613 146.845 111.99 145.62C101.85 142.47 90.585 136.485 79.785 141.45C69 136.5 57.72 142.5 47.58 145.62C42.9585 146.846 38.07 146.636 33.57 145.02L33.552 145.019C33.531 145.018 33.5104 145.025 33.493 145.037C33.4756 145.048 33.4621 145.065 33.4544 145.085C33.4466 145.104 33.4449 145.126 33.4495 145.146C33.4541 145.167 33.4647 145.186 33.48 145.2C39.48 149.835 47.835 151.965 55.38 149.235C62.64 146.985 68.7601 139.305 77.34 142.575C70.6374 145.492 64.5341 149.627 59.34 154.77L62.91 157.695C67.41 152.505 72.375 147.315 78.06 144.195C78.5516 143.763 79.1834 143.525 79.8375 143.525C80.4917 143.525 81.1235 143.763 81.615 144.195C87.3 147.345 92.325 152.535 96.78 157.695L100.35 154.77C95.1552 149.628 89.0521 145.493 82.35 142.575C90.93 139.305 97.065 146.985 104.31 149.235C111.81 151.965 120.24 149.835 126.225 145.2C126.249 145.17 126.26 145.132 126.256 145.094C126.252 145.056 126.232 145.021 126.203 144.998C126.173 144.974 126.135 144.963 126.097 144.967C126.059 144.971 126.024 144.99 126 145.02ZM84.6 116.85H68.1C67.0935 116.859 66.0901 116.774 65.1 116.595C67.9863 120.564 71.8662 123.705 76.35 125.7C76.6907 128.195 77.2889 130.648 78.135 133.02C79.7617 132.907 81.3462 132.452 82.785 131.685C82.905 131.295 81.06 125.025 81.06 125.025C82.5869 122.464 83.7767 119.716 84.6 116.85ZM113.28 31.5C112.875 31.2 111.555 34.5 109.995 35.325C109.665 35.52 109.4 35.8065 109.23 36.15C109.046 36.5 108.967 36.8962 109.005 37.29C109.032 37.611 109.203 37.905 109.47 38.085C109.602 38.163 109.752 38.2042 109.905 38.2042C110.058 38.2042 110.208 38.163 110.34 38.085C110.678 37.896 110.951 37.608 111.12 37.26C111.296 36.9075 111.368 36.5115 111.33 36.12C111.21 34.2 113.58 31.62 113.28 31.5ZM114.495 36.18C114.24 35.925 112.23 39.285 110.415 38.88C110.043 38.7752 109.646 38.8182 109.305 39C109.134 39.0783 108.976 39.1847 108.84 39.315C108.704 39.4455 108.84 39.15 108.84 39.075C108.808 38.6691 108.645 38.2847 108.375 37.98C107.145 36.48 108.855 32.925 108.525 32.805C108.195 32.685 107.61 36.45 106.59 38.085C106.371 38.4223 106.281 38.8267 106.335 39.225C106.361 39.633 106.524 40.0185 106.8 40.32C106.914 40.4527 107.058 40.557 107.219 40.6247C107.38 40.6924 107.555 40.7216 107.73 40.71C107.859 40.7022 107.985 40.669 108.1 40.6124C108.216 40.5558 108.32 40.4768 108.405 40.38C108.404 40.541 108.44 40.7002 108.51 40.845C108.58 41.0097 108.686 41.1562 108.822 41.2732C108.957 41.3903 109.117 41.4747 109.29 41.52C109.659 41.625 110.054 41.5935 110.4 41.43C110.748 41.2575 111.029 40.9725 111.195 40.62C112.005 38.775 114.735 36.375 114.495 36.12V36.18ZM113.805 40.275C113.58 39.945 110.805 43.275 108.855 42.405C108.467 42.2215 108.026 42.1791 107.61 42.285C107.366 42.3612 107.141 42.4891 106.95 42.66C106.965 42.5355 106.965 42.4095 106.95 42.285C106.85 41.849 106.601 41.4616 106.245 41.19C104.655 39.795 105.915 35.535 105.525 35.49C105.135 35.445 105.15 39.675 104.325 41.67C104.138 42.0739 104.101 42.5312 104.22 42.96C104.318 43.401 104.568 43.794 104.925 44.07C105.078 44.1896 105.255 44.2744 105.444 44.3184C105.634 44.3624 105.83 44.3647 106.02 44.325C106.18 44.284 106.329 44.2071 106.455 44.1C106.513 44.2927 106.61 44.4716 106.739 44.6262C106.867 44.7809 107.026 44.908 107.205 45C107.592 45.192 108.038 45.2295 108.45 45.105C108.861 44.9955 109.22 44.7405 109.455 44.385C110.61 42.63 114 40.5 113.805 40.215V40.275ZM107.025 46.275C106.605 46.0872 106.134 46.0501 105.69 46.17C105.355 46.2574 105.043 46.416 104.775 46.635C104.841 46.3235 104.841 46.0015 104.775 45.69C104.684 45.2119 104.442 44.7756 104.085 44.445C102.495 42.855 103.59 38.1 103.215 38.04C102.84 37.98 102.975 42.735 102.225 44.955C102.075 45.444 102.075 45.966 102.225 46.455C102.335 46.9335 102.585 47.367 102.945 47.7C103.08 47.8349 103.248 47.9321 103.432 47.9821C103.616 48.0321 103.81 48.0331 103.995 47.985C104.092 47.9641 104.184 47.9233 104.265 47.865V48C104.313 48.1916 104.404 48.3697 104.531 48.5205C104.659 48.6713 104.819 48.7909 105 48.87C105.425 49.0575 105.902 49.095 106.35 48.975C106.814 48.8715 107.231 48.618 107.535 48.255C109.035 46.53 112.53 44.055 112.32 43.755C112.11 43.455 109.065 46.995 107.025 46.215V46.275ZM88.575 55.965C90.375 52.965 93.075 50.73 95.31 48C95.3543 47.9505 95.3788 47.8864 95.3788 47.82C95.3788 47.7536 95.3543 47.6895 95.31 47.64C95.2655 47.5978 95.2064 47.5743 95.145 47.5743C95.0837 47.5743 95.0246 47.5978 94.98 47.64C94.47 48.18 93.93 48.705 93.375 49.14C93.135 49.02 92.52 49.26 91.875 49.74C91.472 50.0353 91.1433 50.4205 90.915 50.865C90.6 50.865 90.015 51.165 89.415 51.84C89.0493 52.2656 88.8102 52.7853 88.725 53.34C88.395 53.34 87.9001 53.79 87.4951 54.465C87.2521 54.8462 87.0793 55.2679 86.9851 55.71C86.6432 55.9863 86.3536 56.3216 86.13 56.7C85.8027 57.1708 85.6297 57.7316 85.635 58.305C85.545 58.455 85.455 58.605 85.38 58.755V58.38C85.8835 54.2119 86.711 50.0895 87.855 46.05C88.8438 42.0323 90.5403 38.2228 92.865 34.8C92.9293 34.716 92.9641 34.6132 92.9641 34.5075C92.9641 34.4018 92.9293 34.299 92.865 34.215C92.8301 34.1734 92.7865 34.1399 92.7373 34.1169C92.688 34.094 92.6344 34.0821 92.58 34.0821C92.5257 34.0821 92.4721 34.094 92.4228 34.1169C92.3736 34.1399 92.33 34.1734 92.295 34.215C91.473 35.1031 90.7442 36.0732 90.1201 37.11C89.8501 36.975 89.265 37.515 88.815 38.37C88.464 38.883 88.3243 39.5116 88.425 40.125C88.14 40.005 87.6 40.65 87.27 41.52C86.94 42.39 86.8951 43.02 87.1201 43.335C86.7901 43.23 86.265 43.965 85.935 45.015C85.6768 45.6441 85.6397 46.3422 85.83 46.995C85.5 46.875 84.99 47.64 84.69 48.69C84.39 49.74 84.42 50.58 84.69 50.76C84.36 50.76 83.895 51.495 83.655 52.53C83.4316 53.1711 83.4316 53.8689 83.655 54.51C83.34 54.6 82.98 55.35 82.8 56.325C82.605 56.9805 82.659 57.6855 82.95 58.305C82.4983 58.8325 82.2438 59.5006 82.23 60.195C82.0845 60.867 82.185 61.5705 82.515 62.175C82.1682 62.6924 81.9662 63.2932 81.93 63.915C81.8235 64.5099 81.8595 65.1216 82.035 65.7C81.6658 66.2631 81.4967 66.9341 81.555 67.605C81.51 68.193 81.6015 68.784 81.825 69.33C81.66 69.813 81.579 70.32 81.585 70.83C81.5415 71.4405 81.645 72.0525 81.885 72.615C81.885 75.33 81.885 78.225 82.005 80.94H87.885C87.885 78.825 88.065 76.44 88.275 74.415C88.4832 70.6775 89.4692 67.0246 91.17 63.69C91.2038 63.6388 91.2218 63.5788 91.2218 63.5175C91.2218 63.4562 91.2038 63.3962 91.17 63.345C91.1462 63.3191 91.1172 63.2984 91.0849 63.2843C91.0526 63.2701 91.0178 63.2628 90.9825 63.2628C90.9473 63.2628 90.9125 63.2701 90.8802 63.2843C90.8479 63.2984 90.8189 63.3191 90.795 63.345C88.425 66.4867 86.9386 70.2052 86.49 74.115C86.385 74.865 86.28 75.615 86.205 76.38C86.304 73.3515 86.685 70.338 87.345 67.38C87.6282 65.617 88.2611 63.9285 89.2065 62.4138C90.1519 60.8991 91.3907 59.5888 92.85 58.56C92.8966 58.5237 92.9314 58.4744 92.9501 58.4184C92.9688 58.3623 92.9705 58.302 92.955 58.245C92.9464 58.2124 92.9313 58.1818 92.9107 58.1551C92.8901 58.1283 92.8644 58.1059 92.8351 58.0892C92.8058 58.0725 92.7735 58.0617 92.74 58.0575C92.7065 58.0534 92.6725 58.0559 92.64 58.065C92.445 58.065 92.265 58.23 92.085 58.305C91.875 58.05 91.1251 58.305 90.3601 58.725C89.5951 59.145 89.13 59.805 89.19 60.12C89.1991 60.0856 89.1991 60.0494 89.19 60.015C88.92 59.79 88.17 60.3 87.54 61.185C86.91 62.07 86.67 62.97 86.94 63.21C86.61 63.075 86.07 63.81 85.725 64.86C85.5092 65.4234 85.437 66.0317 85.515 66.63C85.26 67.47 85.05 68.325 84.855 69.18C84.855 67.965 85.035 66.75 85.2 65.535C85.6486 62.1265 86.7977 58.8478 88.575 55.905V55.965ZM103.395 72.705C103.361 72.6552 103.317 72.6133 103.266 72.582C103.214 72.5507 103.157 72.5309 103.097 72.5238C103.037 72.5167 102.977 72.5225 102.92 72.5408C102.862 72.5591 102.81 72.5895 102.765 72.63C100.371 75.1598 98.3506 78.0187 96.7651 81.12H98.715C99.8905 78.3348 101.429 75.7172 103.29 73.335C103.344 73.2976 103.389 73.2498 103.423 73.1944C103.458 73.1389 103.481 73.0771 103.491 73.0125C103.5 72.948 103.497 72.8821 103.481 72.8189C103.464 72.7558 103.435 72.6966 103.395 72.645V72.705ZM100.71 130.5C100.095 128.805 99.21 127.305 98.61 125.685C98.01 124.065 97.215 122.475 96.645 120.81C96.18 119.565 95.67 118.14 95.295 116.835H93.48C93.99 118.335 94.65 119.97 95.28 121.44C96.5792 124.737 98.2287 127.885 100.2 130.83C100.238 130.883 100.293 130.921 100.355 130.94C100.417 130.959 100.484 130.957 100.545 130.935C100.624 130.899 100.686 130.833 100.717 130.751C100.748 130.67 100.745 130.58 100.71 130.5ZM100.08 123.405C99.57 121.38 99.06 118.905 98.58 116.805H96.7201C97.4401 119.055 98.43 121.545 99.3 123.675C99.3314 123.768 99.3966 123.846 99.4828 123.893C99.5689 123.94 99.6697 123.954 99.765 123.93C99.8687 123.905 99.9589 123.841 100.017 123.752C100.076 123.663 100.098 123.555 100.08 123.45V123.405ZM95.115 129L92.22 117H87.315C88.0754 120.089 89.1929 123.079 90.645 125.91C90.6849 125.988 90.7483 126.052 90.8264 126.092C90.9044 126.133 90.9931 126.148 91.08 126.135C91.1394 126.126 91.1963 126.105 91.2475 126.073C91.2986 126.042 91.343 126 91.3779 125.951C91.4128 125.902 91.4376 125.847 91.4509 125.788C91.4641 125.73 91.4655 125.669 91.455 125.61C91.125 123.06 90.72 120.6 90.345 118.11C91.3485 121.972 92.8036 125.703 94.68 129.225C94.6886 129.25 94.702 129.273 94.7196 129.292C94.7371 129.312 94.7584 129.328 94.7822 129.339C94.806 129.35 94.8317 129.356 94.858 129.357C94.8843 129.358 94.9105 129.354 94.935 129.345C94.971 129.337 95.0048 129.321 95.034 129.298C95.0632 129.275 95.0872 129.247 95.1043 129.214C95.1214 129.181 95.1312 129.145 95.133 129.108C95.1349 129.071 95.1288 129.034 95.115 129ZM120.765 50.79C118.965 50.325 107.445 48.285 94.545 72.015C96.435 63.18 102.15 52.515 103.725 49.38C103.768 49.2895 103.78 49.1872 103.758 49.0894C103.736 48.9916 103.682 48.9038 103.605 48.84C103.564 48.812 103.517 48.7924 103.469 48.7825C103.42 48.7726 103.369 48.7725 103.32 48.7823C103.272 48.7921 103.225 48.8115 103.184 48.8394C103.143 48.8674 103.107 48.9033 103.08 48.945C94.5 63.075 91.5 71.265 89.79 81H95.13C96.045 71.55 107.985 49.29 120.63 51C120.64 51.0029 120.65 51.0045 120.66 51.0045C120.688 51.0045 120.715 50.9934 120.734 50.9737C120.754 50.9541 120.765 50.9273 120.765 50.8995V50.895C120.787 50.8701 120.799 50.8381 120.799 50.805C120.799 50.7719 120.787 50.7399 120.765 50.715V50.79ZM74.13 38.79C74.0956 38.7282 74.0414 38.6798 73.9761 38.6526C73.9107 38.6254 73.8382 38.6209 73.77 38.64C73.6894 38.6578 73.6178 38.7039 73.5683 38.7699C73.5187 38.836 73.4945 38.9176 73.5 39C76.845 48 72.585 52.38 70.8 58.665C68.67 53.565 75.75 48.765 72.09 39.465C72.0667 39.3949 72.0224 39.3338 71.9631 39.2898C71.9038 39.2458 71.8324 39.2211 71.7585 39.219C71.6754 39.2195 71.5955 39.2512 71.5346 39.3079C71.4738 39.3646 71.4364 39.4421 71.43 39.525C71.2851 41.2364 70.7942 42.9005 69.9872 44.4165C69.1801 45.9326 68.0738 47.2691 66.7351 48.345C66.2829 47.2826 65.6194 46.3231 64.785 45.525C64.614 44.4492 64.1639 43.4371 63.4796 42.5896C62.7952 41.7421 61.9007 41.0888 60.885 40.695C60.4765 39.4524 59.6284 38.4017 58.5 37.74C57.7873 37.4215 57.011 37.2707 56.2309 37.2993C55.4507 37.3279 54.6875 37.5351 54 37.905C53.1719 37.9296 52.3621 38.1556 51.6408 38.5633C50.9195 38.971 50.3083 39.5482 49.8601 40.245C49.2944 41.331 49.1656 42.5921 49.5 43.77C48.2339 45.3365 47.6117 47.3263 47.76 49.335C47.0475 51.4146 47.0056 53.6653 47.64 55.77C46.8553 58.2381 47.0102 60.9092 48.075 63.27V64.11C44.13 59.775 35.13 54.42 31.68 52.38C31.6092 52.3253 31.5221 52.2956 31.4325 52.2956C31.343 52.2956 31.2559 52.3253 31.185 52.38C31.1043 52.4619 31.059 52.5724 31.059 52.6875C31.059 52.8026 31.1043 52.913 31.185 52.995C38.85 60.495 45.69 69.705 52.185 88.845C54.4508 86.3995 57.192 84.4422 60.2407 83.0933C63.2894 81.7443 66.5814 81.032 69.915 81H79.77C73.5 57.72 82.635 49.365 74.13 38.655V38.79ZM68.49 57.24C69.315 58.26 69.015 60.075 67.545 60.24C67.1387 60.3035 66.7234 60.2758 66.3291 60.1591C65.9348 60.0423 65.5713 59.8394 65.265 59.565C64.44 58.575 64.755 56.685 66.21 56.64C66.6013 56.551 67.007 56.5465 67.4002 56.6267C67.7933 56.7068 68.1649 56.8699 68.49 57.105V57.24ZM66.39 51.645C66.6868 51.7356 66.956 51.8995 67.1729 52.1214C67.3897 52.3434 67.5472 52.6164 67.6309 52.9152C67.7145 53.214 67.7217 53.529 67.6516 53.8313C67.5816 54.1336 67.4366 54.4134 67.23 54.645C66.9285 54.8256 66.5922 54.9403 66.2432 54.9817C65.8942 55.023 65.5404 54.9901 65.205 54.885C63.96 54.645 63.1501 52.785 64.2451 51.885C64.5471 51.6566 64.8992 51.5034 65.2722 51.4382C65.6452 51.373 66.0284 51.3976 66.39 51.51V51.645ZM60.93 56.82C61.995 56.7 63.12 56.46 63.78 57.585C63.9945 57.918 64.1085 58.3065 64.1085 58.7025C64.1085 59.64 63.471 60.4665 62.565 60.705C62.0966 60.8534 61.5957 60.866 61.1205 60.7412C60.6452 60.6164 60.2151 60.3594 59.88 60C59.025 58.965 59.355 56.82 60.93 56.685V56.82ZM58.515 53.82C57.84 51.495 61.77 50.46 62.385 52.77C63 55.08 59.025 56.025 58.5 53.715L58.515 53.82ZM63.78 47.175C64.875 47.175 65.43 48.795 64.785 49.59C64.5492 49.8035 64.2639 49.955 63.955 50.0309C63.646 50.1068 63.323 50.1048 63.015 50.025C62.7474 49.9965 62.4923 49.8966 62.2763 49.7359C62.0604 49.5752 61.8915 49.3595 61.7873 49.1113C61.6831 48.8631 61.6474 48.5914 61.684 48.3247C61.7205 48.0581 61.8279 47.806 61.9951 47.595C62.4301 46.935 63.165 47.07 63.78 47.07V47.175ZM60.8701 42.945C61.4626 42.735 62.124 42.888 62.565 43.335C62.7357 43.4954 62.8602 43.6986 62.9255 43.9235C62.9908 44.1484 62.9945 44.3867 62.9363 44.6135C62.878 44.8403 62.76 45.0473 62.5944 45.2129C62.4288 45.3786 62.2219 45.4967 61.9951 45.555C61.4401 45.6825 60.858 45.585 60.375 45.285C60.1668 45.1279 60.0073 44.9151 59.9149 44.6712C59.8224 44.4273 59.8008 44.1623 59.8526 43.9066C59.9044 43.651 60.0273 43.4152 60.2074 43.2265C60.3874 43.0377 60.6171 42.9038 60.8701 42.84V42.945ZM60.69 48.345C61.365 50.37 57.96 51.435 57.33 49.455C56.7 47.475 60.135 46.245 60.69 48.24V48.345ZM55.875 45C55.35 43.245 58.23 42.33 58.785 44.055C59.34 45.78 56.37 46.74 55.875 45ZM55.875 54.105C55.065 54.3 54.21 54.615 53.535 53.925C53.3167 53.7236 53.1529 53.4702 53.059 53.1884C52.9651 52.9066 52.9442 52.6056 52.9981 52.3135C53.052 52.0214 53.1791 51.7478 53.3674 51.5181C53.5557 51.2884 53.7992 51.1101 54.075 51C54.4382 50.8011 54.8515 50.7122 55.2643 50.7441C55.6772 50.7761 56.0718 50.9275 56.4 51.18C57.195 52.035 57.1051 53.805 55.8601 54.105H55.875ZM56.4 39.195C56.6983 39.0211 57.0373 38.9294 57.3825 38.9294C57.7278 38.9294 58.0668 39.0211 58.365 39.195C58.5302 39.3569 58.6557 39.5549 58.7317 39.7734C58.8076 39.9919 58.8321 40.2249 58.803 40.4544C58.774 40.6839 58.6922 40.9036 58.5642 41.0962C58.4362 41.2889 58.2654 41.4493 58.065 41.565C57.781 41.7479 57.4504 41.8451 57.1125 41.8451C56.7747 41.8451 56.4441 41.7479 56.16 41.565C55.992 41.408 55.8622 41.2146 55.7807 40.9995C55.6992 40.7845 55.6681 40.5536 55.6898 40.3247C55.7116 40.0957 55.7856 39.8748 55.9061 39.679C56.0266 39.4831 56.1905 39.3176 56.385 39.195H56.4ZM56.025 47.88C56.67 49.665 53.655 50.67 53.025 48.915C52.395 47.16 55.5 46.11 56.01 47.88H56.025ZM51.525 45C51.075 43.35 53.85 42.57 54.3 44.25C54.75 45.93 51.975 46.68 51.54 45H51.525ZM51.96 39.99C52.5285 39.615 53.283 39.6705 53.79 40.125C53.9249 40.2736 54.0236 40.4513 54.0786 40.6443C54.1335 40.8373 54.1432 41.0404 54.107 41.2377C54.0707 41.4351 53.9894 41.6214 53.8694 41.7822C53.7494 41.9431 53.5939 42.074 53.415 42.165C53.1348 42.3492 52.801 42.4345 52.4668 42.4073C52.1325 42.3802 51.8169 42.2421 51.57 42.015C51.4421 41.8633 51.3499 41.6848 51.3005 41.4926C51.2511 41.3004 51.2456 41.0995 51.2845 40.9049C51.3235 40.7103 51.4058 40.527 51.5253 40.3686C51.6449 40.2102 51.7986 40.0808 51.975 39.99H51.96ZM49.5 46.575C49.7067 46.4057 49.949 46.2853 50.2088 46.223C50.4685 46.1607 50.7391 46.1579 51 46.215C51.1999 46.3231 51.3689 46.4803 51.491 46.6719C51.6131 46.8635 51.6843 47.0831 51.6978 47.3099C51.7113 47.5367 51.6667 47.7632 51.5682 47.968C51.4698 48.1727 51.3207 48.349 51.135 48.48C50.7476 48.7853 50.2627 48.9398 49.77 48.915C49.5528 48.8183 49.3645 48.6666 49.2238 48.475C49.083 48.2833 48.9947 48.0583 48.9674 47.822C48.9401 47.5858 48.9749 47.3466 49.0683 47.1279C49.1617 46.9092 49.3105 46.7186 49.5 46.575ZM49.365 51.21C49.812 50.7 50.535 50.5245 51.165 50.775C51.4107 50.8898 51.6207 51.0689 51.7728 51.2934C51.9248 51.518 52.0132 51.7795 52.0286 52.0502C52.044 52.3209 51.9858 52.5907 51.8601 52.831C51.7345 53.0713 51.5461 53.2731 51.315 53.415C50.8666 53.7763 50.3 53.958 49.725 53.925C49.4403 53.8017 49.1977 53.5979 49.0271 53.3386C48.8566 53.0793 48.7655 52.7758 48.765 52.4655C48.765 51.975 48.993 51.5115 49.38 51.21H49.365ZM52.365 56.235C53.58 58.38 49.9201 60.735 48.8701 58.47C48.0001 56.475 51.27 54.135 52.5 56.235H52.365ZM49.215 63.6C48.165 61.275 52.005 58.755 53.16 61.26C54.315 63.765 50.385 66.135 49.215 63.6ZM53.265 68.82C53.04 68.955 52.965 69.03 52.89 69.03L50.7451 66.705C51.0331 66.4575 51.339 66.2325 51.66 66.03C53.43 65.055 54.885 67.86 53.265 68.82ZM53.715 58.11C52.95 55.485 57.4351 54.33 58.1101 56.91C58.7851 59.49 54.33 60.735 53.715 58.11ZM54.39 63.675C53.58 60.855 58.35 59.625 59.085 62.385C59.82 65.145 55.035 66.465 54.39 63.675ZM55.08 69.345C54.285 66.51 59.04 65.265 59.775 68.055C60.51 70.845 55.74 72.12 55.08 69.345ZM60.645 74.595C60.345 75.63 59.5051 75.78 58.6201 75.99C57.8447 75.1213 57.1185 74.2099 56.445 73.26C56.4255 73.1761 56.4255 73.0889 56.445 73.005C56.5481 72.7805 56.722 72.5961 56.94 72.48C57.6311 72.0855 58.4285 71.9176 59.22 72C60.321 72.324 60.9615 73.4925 60.645 74.595ZM61.68 62.295C62.805 62.01 63.96 61.605 64.815 62.7C65.0426 62.9675 65.2035 63.2852 65.2844 63.627C65.3653 63.9687 65.3639 64.3248 65.2805 64.6659C65.197 65.0071 65.0338 65.3236 64.8043 65.5894C64.5747 65.8552 64.2854 66.0627 63.96 66.195C63.4928 66.4498 62.9629 66.5668 62.4318 66.5322C61.9007 66.4977 61.3904 66.3132 60.96 66C60 64.995 60 62.67 61.68 62.295ZM62.715 67.98C63.78 67.725 64.875 67.335 65.715 68.37C65.9314 68.6248 66.0843 68.9272 66.1614 69.2525C66.2385 69.5777 66.2375 69.9166 66.1585 70.2414C66.0794 70.5662 65.9247 70.8676 65.7069 71.1211C65.489 71.3747 65.2142 71.573 64.905 71.7C64.4687 71.9304 63.9771 72.0356 63.4846 72.0038C62.9922 71.9721 62.5182 71.8046 62.115 71.52C61.08 70.5 61.155 68.34 62.715 67.98ZM67.05 76.635C66.96 77.145 66.255 77.22 65.79 77.355C64.41 77.76 63.12 77.595 62.685 75.945C62.25 74.295 63.5701 73.455 64.9951 73.11C65.3569 73.0011 65.7431 73.0028 66.104 73.1151C66.4648 73.2274 66.7838 73.445 67.02 73.74C67.1625 73.869 67.275 74.028 67.35 74.205C67.425 74.382 67.125 76.155 67.05 76.635ZM68.1 69.135L67.98 69.81C67.6084 69.5689 67.3272 69.2114 67.1806 68.7933C67.034 68.3753 67.0303 67.9204 67.17 67.5C67.3088 67.2291 67.5264 67.0067 67.7943 66.862C68.0621 66.7174 68.3674 66.6574 68.67 66.69C68.43 67.5 68.25 68.34 68.1 69.165V69.135ZM69.435 63.135C69.36 63.39 68.85 65.4 68.85 65.4C68.5466 65.4435 68.2385 65.4435 67.935 65.4H67.8975C66.903 65.4 66.0825 64.581 66.0825 63.585C66.0825 63.387 66.1155 63.189 66.18 63C66.54 62.01 67.29 61.905 68.25 61.86C68.7705 61.8255 69.291 61.941 69.75 62.19C70.209 62.439 69.57 62.61 69.435 63.12V63.135ZM118.5 59.595C118.215 59.175 115.845 61.785 114.09 62.025C113.713 62.0868 113.364 62.2591 113.085 62.52C112.79 62.7885 112.582 63.1382 112.485 63.525C112.438 63.6764 112.428 63.8365 112.454 63.9927C112.48 64.1489 112.542 64.2969 112.635 64.425C112.736 64.54 112.865 64.6278 113.009 64.6802C113.153 64.7326 113.308 64.748 113.46 64.725C113.844 64.674 114.203 64.5 114.48 64.23C114.762 63.96 114.963 63.6165 115.065 63.24C115.5 61.5 118.665 59.88 118.5 59.595ZM113.25 65.505C112.94 65.2742 112.553 65.1721 112.17 65.22C111.983 65.2381 111.8 65.2888 111.63 65.37C111.659 65.2874 111.694 65.2072 111.735 65.13C111.864 64.7455 111.864 64.3295 111.735 63.945C111.105 62.1 113.94 59.445 113.655 59.16C113.37 58.875 111.54 62.25 110.04 63.42C109.718 63.6585 109.49 64.005 109.395 64.395C109.259 64.7782 109.259 65.1968 109.395 65.58C109.457 65.7448 109.556 65.8935 109.683 66.0155C109.81 66.1374 109.963 66.2295 110.13 66.285C110.372 66.375 110.639 66.375 110.88 66.285C110.841 66.4375 110.841 66.5974 110.88 66.75C110.91 67.1175 111.104 67.4535 111.405 67.665C111.709 67.8971 112.09 68.0044 112.47 67.965C112.857 67.935 113.22 67.764 113.49 67.485C114.84 66.105 118.23 64.815 118.095 64.485C117.96 64.155 114.765 66.54 113.205 65.505H113.25ZM110.58 68.265C110.351 68.0076 110.047 67.8277 109.712 67.7498C109.376 67.6719 109.024 67.6999 108.705 67.83C108.753 67.7145 108.789 67.593 108.81 67.47C108.861 67.025 108.761 66.5759 108.525 66.195C107.52 64.305 110.16 60.765 109.815 60.6C109.47 60.435 108 64.38 106.5 66C106.185 66.3135 105.989 66.7275 105.945 67.17C105.9 67.62 105.999 68.0715 106.23 68.46C106.329 68.6268 106.464 68.7697 106.625 68.8786C106.786 68.9875 106.968 69.0597 107.16 69.09C107.324 69.1125 107.492 69.1125 107.655 69.09C107.642 69.2918 107.669 69.4941 107.736 69.6849C107.803 69.8757 107.908 70.0509 108.045 70.2C108.336 70.509 108.732 70.701 109.155 70.74C109.582 70.7861 110.011 70.6682 110.355 70.41C112.08 69.18 115.995 68.445 115.89 68.04C115.785 67.635 112.05 69.705 110.535 68.265H110.58ZM107.58 71.265C107.286 70.9905 106.921 70.8031 106.526 70.7237C106.132 70.6442 105.723 70.6759 105.345 70.815C105.491 70.5285 105.588 70.2195 105.63 69.9C105.704 69.4164 105.619 68.922 105.39 68.49C104.46 66.45 107.13 62.37 106.785 62.19C106.44 62.01 104.955 66.51 103.485 68.325C103.176 68.7117 102.988 69.1815 102.945 69.675C102.88 70.1618 102.959 70.6568 103.17 71.1C103.253 71.2722 103.377 71.4212 103.531 71.5337C103.686 71.6463 103.866 71.7189 104.055 71.745C104.154 71.7675 104.256 71.7675 104.355 71.745C104.349 71.7998 104.349 71.8552 104.355 71.91C104.331 72.108 104.354 72.3087 104.422 72.4963C104.49 72.6838 104.6 72.8529 104.745 72.99C105.072 73.314 105.503 73.515 105.96 73.56C106.431 73.623 106.91 73.533 107.325 73.305C109.32 72.21 113.445 71.13 113.325 70.755C113.205 70.38 109.125 72.69 107.49 71.235L107.58 71.265ZM66.105 89.595C60.7704 89.7001 55.5429 91.1113 50.88 93.705C46.218 96.2985 50.715 93.705 50.775 93.57C51.99 91.77 58.575 82.95 69.915 82.95H98.76C99.5545 83.072 100.279 83.4738 100.803 84.083C101.328 84.6923 101.617 85.4688 101.619 86.2725C101.617 87.0762 101.328 87.8527 100.803 88.462C100.279 89.0712 99.5545 89.473 98.76 89.595H66.105ZM68.13 115.095C58.785 115.095 58.035 108.195 44.13 106.65C44.1062 106.65 44.0833 106.641 44.0664 106.624C44.0495 106.607 44.04 106.584 44.04 106.56C44.04 106.536 44.0495 106.513 44.0664 106.496C44.0833 106.479 44.1062 106.47 44.13 106.47C55.515 103.62 59.745 108.45 66.405 108.45H98.73C99.5245 108.572 100.249 108.974 100.773 109.583C101.298 110.192 101.587 110.969 101.589 111.773C101.587 112.576 101.298 113.353 100.773 113.962C100.249 114.571 99.5245 114.973 98.73 115.095H68.13ZM67.5 106.605C58.395 106.605 55.74 101.445 42 104.85C41.91 104.85 41.835 104.745 42 104.7C49.68 99.42 58.035 99.9 61.41 99.9H98.91C99.7045 100.022 100.429 100.424 100.953 101.033C101.478 101.642 101.767 102.419 101.769 103.223C101.767 104.026 101.478 104.803 100.953 105.412C100.429 106.021 99.7045 106.423 98.91 106.545L67.5 106.605ZM60.54 98.07C55.2993 97.9544 50.085 98.8455 45.18 100.695C45.09 100.695 45.015 100.605 45.09 100.545C48.0184 97.5017 51.564 95.12 55.4887 93.5599C59.4134 91.9999 63.6265 91.2975 67.845 91.5H98.76C99.5545 91.622 100.279 92.0238 100.803 92.633C101.328 93.2423 101.617 94.0188 101.619 94.8225C101.617 95.6262 101.328 96.4027 100.803 97.012C100.279 97.6212 99.5545 98.023 98.76 98.145L60.54 98.07ZM71.82 22.41H66.54L63.54 10.98C63.435 10.575 63.2401 9.735 62.9851 8.46C62.7872 7.61409 62.637 6.75774 62.535 5.895C62.535 6.435 62.325 7.29 62.085 8.475C61.845 9.66 61.665 10.515 61.53 11.025L58.53 22.41H53.43L47.88 0.66H52.38L55.17 12.54C55.65 14.73 56.01 16.62 56.22 18.24C56.22 17.67 56.415 16.74 56.625 15.6C56.835 14.46 57.045 13.5 57.24 12.84L60.405 0.66H64.755L67.935 12.84C68.07 13.395 68.25 14.22 68.445 15.345C68.64 16.47 68.82 17.43 68.925 18.24C69.03 17.46 69.18 16.5 69.405 15.345C69.63 14.19 69.825 13.245 70.005 12.54L72.765 0.66H77.265L71.82 22.41ZM84.345 22.41H79.845V0.66H92.31V4.5H84.375V10.05H91.755V13.815H84.375L84.345 22.41ZM110.76 7.41C110.823 8.41226 110.659 9.41586 110.28 10.3458C109.901 11.2757 109.316 12.1078 108.57 12.78C106.78 14.1271 104.566 14.787 102.33 14.64H100.35V22.38H95.73V0.66H102.69C104.828 0.51751 106.949 1.12195 108.69 2.37C109.406 3.00798 109.964 3.80329 110.321 4.69342C110.677 5.58355 110.822 6.54424 110.745 7.5L110.76 7.41ZM100.35 10.875H101.85C102.963 10.9619 104.073 10.6713 105 10.05C105.354 9.75202 105.634 9.37632 105.819 8.95221C106.004 8.5281 106.088 8.06704 106.065 7.605C106.101 7.16689 106.041 6.72615 105.888 6.314C105.735 5.90184 105.493 5.52836 105.18 5.22C104.38 4.63352 103.394 4.35646 102.405 4.44H100.305L100.35 10.875ZM198 79.5H191.82L188.34 66C188.22 65.52 187.995 64.5 187.695 63C187.395 61.5 187.2 60.495 187.155 60C187.08 60.63 186.915 61.635 186.63 63C186.345 64.365 186.135 65.4 185.985 66L182.535 79.5H176.37L169.755 54H175.095L178.38 67.98C178.95 70.56 179.355 72.795 179.625 74.685C179.625 74.025 179.85 72.99 180.105 71.595C180.282 70.4983 180.518 69.4117 180.81 68.34L184.5 54H189.63L193.365 68.34C193.53 68.985 193.725 69.96 193.98 71.34C194.235 72.72 194.4 73.8 194.535 74.745C194.655 73.83 194.835 72.705 195.09 71.34C195.345 69.975 195.585 68.88 195.795 68.04L199.095 54H204.435L198 79.5ZM224.145 69.72C224.314 72.4529 223.41 75.1439 221.625 77.22C220.712 78.14 219.614 78.8562 218.404 79.3215C217.194 79.7869 215.899 79.9909 214.605 79.92C212.864 79.9542 211.145 79.5245 209.625 78.675C208.193 77.8509 207.038 76.6184 206.31 75.135C205.51 73.4493 205.115 71.6003 205.155 69.735C204.981 67.0041 205.88 64.3131 207.66 62.235C208.582 61.3209 209.687 60.6119 210.901 60.1544C212.116 59.6968 213.414 59.5011 214.71 59.58C216.445 59.5409 218.159 59.9655 219.675 60.81C221.112 61.6146 222.269 62.8393 222.99 64.32C223.793 66.0047 224.188 67.8544 224.145 69.72ZM210.645 69.72C210.553 71.2456 210.885 72.7669 211.605 74.115C211.944 74.6172 212.41 75.0206 212.955 75.2841C213.501 75.5476 214.106 75.6618 214.71 75.615C215.297 75.6478 215.883 75.5267 216.409 75.2636C216.936 75.0006 217.384 74.6046 217.71 74.115C218.426 72.7602 218.753 71.234 218.655 69.705C218.754 68.1903 218.426 66.6783 217.71 65.34C217.331 64.8866 216.857 64.5219 216.322 64.2717C215.787 64.0214 215.203 63.8917 214.613 63.8917C214.022 63.8917 213.438 64.0214 212.903 64.2717C212.368 64.5219 211.894 64.8866 211.515 65.34C210.808 66.6862 210.491 68.2033 210.6 69.72H210.645ZM239.04 59.595C239.644 59.5819 240.247 59.6321 240.84 59.745L240.435 64.755C239.943 64.6439 239.44 64.5886 238.935 64.59C237.488 64.5031 236.061 64.9696 234.945 65.895C234.445 66.3662 234.052 66.9397 233.793 67.5765C233.534 68.2132 233.415 68.8983 233.445 69.585V79.5H228.105V60H232.155L232.935 63.3H233.205C233.79 62.2233 234.636 61.3105 235.665 60.645C236.659 59.9641 237.835 59.5982 239.04 59.595ZM243.885 52.29H249.225V79.5H243.885V52.29ZM260.73 79.905C259.676 79.9415 258.629 79.7152 257.683 79.2465C256.738 78.7778 255.924 78.0814 255.315 77.22C254 74.9392 253.308 72.3527 253.308 69.72C253.308 67.0873 254 64.5008 255.315 62.22C255.945 61.3543 256.777 60.6566 257.74 60.1884C258.702 59.7202 259.765 59.4958 260.835 59.535C261.943 59.4827 263.045 59.7193 264.034 60.2216C265.023 60.7239 265.864 61.4746 266.475 62.4H266.655C266.403 61.1149 266.267 59.8096 266.25 58.5V52.29H271.62V79.5H267.51L266.475 76.965H266.25C265.679 77.9055 264.865 78.6747 263.893 79.1921C262.922 79.7094 261.829 79.9556 260.73 79.905ZM262.605 75.645C263.164 75.6922 263.726 75.6083 264.247 75.4C264.768 75.1917 265.233 74.8647 265.605 74.445C266.367 73.2366 266.734 71.8212 266.655 70.395V69.825C266.778 68.2619 266.439 66.6971 265.68 65.325C265.31 64.85 264.825 64.4759 264.272 64.2374C263.719 63.9988 263.115 63.9034 262.515 63.96C261.961 63.9412 261.412 64.0703 260.924 64.3339C260.437 64.5975 260.028 64.9862 259.74 65.46C258.998 66.8006 258.654 68.3256 258.75 69.855C258.639 71.3684 258.99 72.8798 259.755 74.19C260.063 74.6593 260.487 75.0404 260.987 75.2955C261.487 75.5507 262.045 75.6711 262.605 75.645ZM291.675 79.5H286.335V54H301.005V58.5H291.675V65.115H300.36V69.615H291.675V79.5ZM322.875 69.72C323.044 72.4529 322.14 75.1439 320.355 77.22C319.442 78.14 318.344 78.8562 317.134 79.3215C315.924 79.7869 314.629 79.9909 313.335 79.92C311.594 79.9517 309.876 79.5222 308.355 78.675C306.924 77.8541 305.774 76.6203 305.055 75.135C304.245 73.4525 303.844 71.6021 303.885 69.735C303.711 67.0041 304.61 64.3131 306.39 62.235C307.313 61.3225 308.418 60.6145 309.632 60.1571C310.847 59.6996 312.144 59.503 313.44 59.58C315.18 59.5425 316.898 59.9669 318.42 60.81C319.849 61.6199 321 62.8436 321.72 64.32C322.529 66.0027 322.924 67.8538 322.875 69.72ZM309.375 69.72C309.279 71.2441 309.606 72.7651 310.32 74.115C310.661 74.6186 311.129 75.0228 311.677 75.2864C312.226 75.5499 312.834 75.6633 313.44 75.615C314.04 75.6596 314.64 75.5443 315.18 75.2807C315.721 75.0172 316.181 74.6149 316.515 74.115C317.218 72.7562 317.54 71.2321 317.445 69.705C317.544 68.1903 317.216 66.6783 316.5 65.34C316.122 64.8874 315.65 64.5232 315.116 64.2734C314.582 64.0235 314 63.894 313.41 63.894C312.821 63.894 312.238 64.0235 311.704 64.2734C311.17 64.5232 310.698 64.8874 310.32 65.34C309.593 66.6804 309.255 68.1976 309.345 69.72H309.375ZM344.76 69.72C344.929 72.4529 344.025 75.1439 342.24 77.22C341.323 78.1397 340.223 78.8557 339.011 79.3209C337.798 79.7862 336.502 79.9903 335.205 79.92C333.469 79.954 331.755 79.5242 330.24 78.675C328.804 77.8555 327.649 76.6218 326.925 75.135C326.125 73.4493 325.73 71.6003 325.77 69.735C325.596 67.0041 326.495 64.3131 328.275 62.235C329.195 61.3227 330.297 60.6147 331.509 60.1573C332.722 59.6998 334.017 59.5031 335.31 59.58C337.05 59.5409 338.769 59.9654 340.29 60.81C341.724 61.6188 342.879 62.8424 343.605 64.32C344.408 66.0047 344.803 67.8544 344.76 69.72ZM331.26 69.72C331.16 71.2461 331.493 72.7694 332.22 74.115C332.593 74.5752 333.064 74.9465 333.598 75.2015C334.133 75.4566 334.718 75.5892 335.31 75.5895C336.509 75.5895 337.646 75.0465 338.4 74.115C339.11 72.7585 339.432 71.2326 339.33 69.705C339.429 68.1903 339.101 66.6783 338.385 65.34C338.007 64.8874 337.535 64.5232 337.001 64.2734C336.467 64.0235 335.885 63.894 335.295 63.894C334.706 63.894 334.123 64.0235 333.589 64.2734C333.055 64.5232 332.583 64.8874 332.205 65.34C331.472 66.6787 331.129 68.1961 331.215 69.72H331.26ZM355.125 79.905C354.068 79.9422 353.019 79.7164 352.071 79.2477C351.123 78.7791 350.307 78.0823 349.695 77.22C348.387 74.9368 347.699 72.3512 347.699 69.72C347.699 67.0888 348.387 64.5032 349.695 62.22C350.328 61.354 351.163 60.6563 352.128 60.1882C353.093 59.7201 354.158 59.4958 355.23 59.535C357.48 59.43 359.627 60.5205 360.87 62.4H361.05C360.798 61.1149 360.662 59.8096 360.645 58.5V52.29H366V79.5H361.905L360.87 76.965H360.645C360.073 77.9046 359.258 78.6731 358.287 79.1903C357.316 79.7075 356.224 79.9544 355.125 79.905ZM357 75.645C357.559 75.6902 358.12 75.6054 358.641 75.3972C359.161 75.189 359.627 74.8631 360 74.445C360.749 73.2315 361.11 71.8185 361.035 70.395V69.825C361.162 68.2634 360.828 66.6988 360.075 65.325C359.702 64.8531 359.217 64.4813 358.665 64.2431C358.112 64.0048 357.509 63.9075 356.91 63.96C356.356 63.9396 355.806 64.068 355.318 64.3318C354.83 64.5955 354.422 64.9851 354.135 65.46C353.393 66.8006 353.049 68.3256 353.145 69.855C353.04 71.366 353.385 72.8742 354.135 74.19C354.447 74.6585 354.875 75.0386 355.377 75.2935C355.879 75.5484 356.438 75.6694 357 75.645ZM190.77 98.565C190.845 99.7464 190.652 100.929 190.205 102.026C189.758 103.122 189.07 104.103 188.19 104.895C186.079 106.476 183.473 107.253 180.84 107.085H178.5V116.19H173.07V90.57H181.245C183.771 90.3985 186.279 91.1089 188.34 92.58C189.174 93.3268 189.826 94.2542 190.247 95.2914C190.669 96.3286 190.847 97.4482 190.77 98.565ZM178.5 102.63H180.285C181.61 102.725 182.929 102.376 184.035 101.64C184.792 100.896 185.234 99.8896 185.27 98.8289C185.306 97.7683 184.934 96.7341 184.23 95.94C183.286 95.2505 182.125 94.9255 180.96 95.025H178.5V102.63ZM204.315 96.24C204.919 96.2269 205.522 96.2771 206.115 96.39L205.71 101.4C205.22 101.277 204.716 101.217 204.21 101.22C202.761 101.138 201.334 101.61 200.22 102.54C199.722 103.01 199.33 103.581 199.071 104.215C198.813 104.849 198.693 105.531 198.72 106.215V116.19H193.38V96.6H197.43L198.21 99.9H198.48C199.065 98.8233 199.911 97.9105 200.94 97.245C201.939 96.58 203.115 96.2299 204.315 96.24ZM225.9 106.365C226.069 109.098 225.165 111.789 223.38 113.865C222.466 114.788 221.366 115.506 220.153 115.971C218.94 116.437 217.642 116.639 216.345 116.565C214.61 116.604 212.896 116.179 211.38 115.335C209.94 114.514 208.784 113.274 208.065 111.78C207.258 110.102 206.862 108.256 206.91 106.395C206.726 103.663 207.626 100.968 209.415 98.895C210.335 97.9827 211.437 97.2747 212.649 96.8173C213.862 96.3598 215.157 96.1631 216.45 96.24C218.188 96.2039 219.904 96.6227 221.43 97.455C222.861 98.2737 224.016 99.5011 224.745 100.98C225.545 102.66 225.941 104.504 225.9 106.365ZM212.4 106.365C212.3 107.891 212.633 109.414 213.36 110.76C213.698 111.263 214.163 111.668 214.709 111.931C215.255 112.195 215.861 112.308 216.465 112.26C217.065 112.307 217.666 112.193 218.207 111.93C218.748 111.666 219.208 111.262 219.54 110.76C220.258 109.412 220.586 107.889 220.485 106.365C220.581 104.849 220.248 103.336 219.525 102C219.147 101.547 218.675 101.183 218.141 100.933C217.607 100.683 217.025 100.554 216.435 100.554C215.846 100.554 215.263 100.683 214.729 100.933C214.195 101.183 213.723 101.547 213.345 102C212.614 103.334 212.271 104.846 212.355 106.365H212.4ZM245.88 96.6V99.315L242.88 100.11C243.45 101.006 243.741 102.05 243.72 103.11C243.762 104.042 243.583 104.972 243.197 105.821C242.811 106.671 242.23 107.418 241.5 108C239.732 109.279 237.574 109.905 235.395 109.77H233.655C233.416 109.919 233.216 110.124 233.072 110.367C232.929 110.61 232.846 110.883 232.83 111.165C232.83 111.93 233.805 112.32 235.83 112.32H239.16C240.905 112.203 242.637 112.69 244.065 113.7C244.641 114.202 245.093 114.83 245.387 115.535C245.681 116.24 245.809 117.003 245.76 117.765C245.796 118.827 245.55 119.879 245.046 120.814C244.543 121.75 243.801 122.535 242.895 123.09C240.394 124.498 237.54 125.154 234.675 124.98C232.491 125.12 230.314 124.625 228.405 123.555C227.722 123.139 227.162 122.549 226.782 121.845C226.403 121.141 226.217 120.349 226.245 119.55C226.205 118.443 226.604 117.364 227.355 116.55C228.24 115.672 229.369 115.082 230.595 114.855C229.999 114.614 229.481 114.214 229.095 113.7C228.688 113.197 228.466 112.57 228.466 111.923C228.466 111.275 228.688 110.648 229.095 110.145C229.638 109.551 230.271 109.044 230.97 108.645C229.95 108.204 229.095 107.454 228.525 106.5C227.905 105.452 227.594 104.252 227.625 103.035C227.573 102.103 227.733 101.172 228.094 100.312C228.456 99.4515 229.008 98.6848 229.71 98.07C231.442 96.7994 233.567 96.1829 235.71 96.33C236.363 96.336 237.014 96.381 237.66 96.465L239.16 96.69L245.88 96.6ZM230.76 118.95C230.76 119.31 230.859 119.663 231.047 119.97C231.235 120.278 231.504 120.527 231.825 120.69C232.751 121.164 233.787 121.381 234.825 121.32C236.365 121.389 237.902 121.118 239.325 120.525C239.782 120.374 240.182 120.088 240.474 119.705C240.766 119.323 240.935 118.861 240.96 118.38C240.981 118.06 240.899 117.742 240.726 117.473C240.553 117.203 240.299 116.995 240 116.88C239.037 116.547 238.018 116.404 237 116.46H234.225C233.354 116.435 232.496 116.675 231.765 117.15C231.46 117.342 231.208 117.607 231.032 117.921C230.857 118.236 230.763 118.59 230.76 118.95ZM232.71 103.02C232.659 103.917 232.913 104.805 233.43 105.54C233.982 106.182 234.806 106.527 235.65 106.47C236.065 106.503 236.482 106.436 236.866 106.274C237.25 106.112 237.589 105.86 237.855 105.54C238.359 104.8 238.607 103.914 238.56 103.02C238.56 100.65 237.585 99.48 235.65 99.48C233.715 99.48 232.71 100.65 232.71 103.02ZM258.555 96.24C259.164 96.2265 259.772 96.2775 260.37 96.39L259.965 101.4C259.45 101.27 258.921 101.21 258.39 101.22C256.941 101.138 255.514 101.61 254.4 102.54C253.915 103.016 253.537 103.59 253.292 104.224C253.046 104.858 252.938 105.536 252.975 106.215V116.19H247.635V96.6H251.685L252.465 99.9H252.735C253.32 98.8233 254.166 97.9105 255.195 97.245C256.19 96.5829 257.36 96.2329 258.555 96.24ZM274.5 116.19L273.465 113.52H273.33C272.598 114.512 271.649 115.322 270.555 115.89C269.375 116.366 268.107 116.586 266.835 116.535C266.015 116.59 265.193 116.476 264.418 116.2C263.644 115.924 262.935 115.491 262.335 114.93C261.77 114.313 261.335 113.589 261.057 112.8C260.779 112.012 260.662 111.175 260.715 110.34C260.651 109.45 260.817 108.559 261.198 107.752C261.579 106.945 262.162 106.25 262.89 105.735C264.895 104.599 267.172 104.034 269.475 104.1L272.865 103.995V103.14C272.916 102.734 272.874 102.321 272.741 101.934C272.609 101.547 272.389 101.195 272.1 100.905C271.81 100.616 271.458 100.396 271.071 100.264C270.684 100.131 270.271 100.089 269.865 100.14C267.941 100.254 266.062 100.764 264.345 101.64L262.5 97.965C264.819 96.774 267.393 96.1665 270 96.195C272.139 96.0613 274.259 96.6707 276 97.92C276.728 98.5702 277.296 99.3794 277.66 100.285C278.024 101.19 278.175 102.167 278.1 103.14V116.19H274.5ZM273 107.115H270.93C269.72 107.069 268.52 107.359 267.465 107.955C267.087 108.212 266.783 108.563 266.583 108.973C266.383 109.384 266.294 109.839 266.325 110.295C266.325 111.795 267.195 112.56 268.92 112.56C270.022 112.616 271.1 112.233 271.92 111.495C272.672 110.742 273.075 109.709 273.03 108.645L273 107.115ZM299.505 116.19H294.165V104.745C294.24 103.638 293.99 102.532 293.445 101.565C293.197 101.21 292.86 100.926 292.468 100.741C292.076 100.557 291.642 100.479 291.21 100.515C290.62 100.465 290.028 100.578 289.499 100.843C288.97 101.107 288.524 101.513 288.21 102.015C287.479 103.557 287.158 105.262 287.28 106.965V116.19H282V96.6H286.08L286.8 99.105H287.1C287.634 98.19 288.428 97.455 289.38 96.99C290.44 96.4758 291.607 96.2189 292.785 96.24C295.785 96.24 297.705 97.185 298.785 99.105H299.265C299.801 98.1749 300.614 97.4355 301.59 96.99C302.666 96.4735 303.847 96.2166 305.04 96.24C305.952 96.174 306.867 96.2912 307.733 96.5849C308.599 96.8786 309.397 97.3428 310.08 97.95C311.353 99.4764 311.968 101.446 311.79 103.425V116.19H306.42V104.745C306.498 103.639 306.253 102.534 305.715 101.565C305.467 101.21 305.13 100.926 304.738 100.741C304.346 100.557 303.912 100.479 303.48 100.515C302.902 100.464 302.32 100.567 301.794 100.811C301.267 101.056 300.814 101.435 300.48 101.91C299.712 103.279 299.373 104.846 299.505 106.41V116.19ZM333 116.19H327.66V104.745C327.735 103.638 327.485 102.532 326.94 101.565C326.693 101.212 326.359 100.93 325.969 100.746C325.58 100.562 325.149 100.482 324.72 100.515C323.52 100.415 322.361 100.995 321.72 102.015C320.988 103.557 320.668 105.262 320.79 106.965V116.19H315.45V96.6H319.53L320.25 99.105H320.55C321.084 98.19 321.878 97.455 322.83 96.99C323.89 96.4758 325.057 96.2189 326.235 96.24C329.235 96.24 331.155 97.185 332.235 99.105H332.715C333.255 98.178 334.067 97.44 335.04 96.99C336.116 96.4735 337.297 96.2166 338.49 96.24C339.397 96.1777 340.307 96.2968 341.167 96.5904C342.028 96.884 342.821 97.3463 343.5 97.95C344.773 99.4764 345.388 101.446 345.21 103.425V116.19H339.855V104.745C339.93 103.638 339.68 102.532 339.135 101.565C338.887 101.21 338.55 100.926 338.158 100.741C337.766 100.557 337.332 100.479 336.9 100.515C336.334 100.478 335.768 100.587 335.256 100.831C334.743 101.075 334.303 101.447 333.975 101.91C333.215 103.282 332.875 104.847 333 106.41V116.19ZM358.065 116.535C356.721 116.614 355.374 116.424 354.104 115.976C352.834 115.528 351.667 114.83 350.67 113.925C349.74 112.936 349.023 111.767 348.564 110.49C348.104 109.213 347.913 107.855 348 106.5C347.824 103.742 348.709 101.021 350.475 98.895C354.156 95.46 359.888 95.3175 363.735 98.565C364.534 99.4481 365.149 100.481 365.545 101.604C365.942 102.726 366.112 103.916 366.045 105.105V107.7H353.415C353.396 109.014 353.879 110.285 354.765 111.255C355.237 111.698 355.794 112.04 356.403 112.259C357.012 112.478 357.659 112.57 358.305 112.53C359.43 112.536 360.552 112.415 361.65 112.17C362.787 111.885 363.893 111.489 364.95 110.985V115.125C363.998 115.595 362.99 115.942 361.95 116.16C360.672 116.426 359.37 116.552 358.065 116.535ZM357.315 100.035C356.818 100.008 356.321 100.091 355.86 100.278C355.399 100.465 354.984 100.75 354.645 101.115C353.96 101.968 353.571 103.021 353.535 104.115H361.035C361.077 103.021 360.708 101.95 360 101.115C359.657 100.752 359.239 100.468 358.776 100.281C358.312 100.095 357.814 100.011 357.315 100.035ZM445.665 30.78H455.385V72.42H445.665V30.78ZM469.245 30.84C469.515 30.8685 469.778 30.939 470.025 31.05C470.259 31.1648 470.476 31.3112 470.67 31.485C470.928 31.728 471.168 31.989 471.39 32.265L491.175 57.27C491.1 56.475 491.04 55.695 490.995 54.945C490.95 54.195 490.995 53.445 490.995 52.815V30.78H499.5V72.42H494.475C493.828 72.4421 493.183 72.3244 492.585 72.075C491.989 71.785 491.474 71.3521 491.085 70.815L471.42 46.005C471.42 46.74 471.525 47.505 471.555 48.135C471.585 48.765 471.555 49.485 471.555 50.1V72.42H463.035V30.78H468.135C468.506 30.771 468.878 30.7905 469.245 30.84ZM512.46 30.84C512.998 30.8922 513.503 31.1187 513.9 31.485C514.148 31.7325 514.383 31.9935 514.605 32.265L534.39 57.27C534.315 56.475 534.255 55.695 534.21 54.945C534.165 54.195 534.21 53.445 534.21 52.815V30.78H542.715V72.42H537.69C537.043 72.4421 536.398 72.3244 535.8 72.075C535.204 71.785 534.689 71.3521 534.3 70.815L514.635 46.005C514.635 46.74 514.74 47.505 514.785 48.135C514.83 48.765 514.785 49.485 514.785 50.1V72.42H506.28V30.78H511.365C511.731 30.7707 512.097 30.7908 512.46 30.84ZM590.64 51.585C590.68 54.455 590.171 57.3062 589.14 59.985C588.145 62.509 586.656 64.8089 584.76 66.75C582.818 68.7028 580.495 70.2346 577.935 71.25C572.236 73.4296 565.934 73.4296 560.235 71.25C557.687 70.2524 555.373 68.7378 553.439 66.8015C551.506 64.8653 549.994 62.5495 549 60C546.921 54.593 546.921 48.607 549 43.2C549.992 40.6751 551.487 38.3785 553.395 36.45C555.352 34.501 557.684 32.97 560.25 31.95C565.947 29.7599 572.253 29.7599 577.95 31.95C580.504 32.9765 582.825 34.5069 584.775 36.45C586.674 38.3828 588.163 40.6786 589.155 43.2C590.183 45.8739 590.687 48.7206 590.64 51.585ZM580.755 51.585C580.781 49.6989 580.507 47.8206 579.945 46.02C579.481 44.4799 578.699 43.0542 577.65 41.835C576.641 40.6918 575.384 39.794 573.975 39.21C572.404 38.5737 570.72 38.2624 569.025 38.295C567.321 38.2633 565.627 38.5744 564.045 39.21C562.631 39.7932 561.37 40.6909 560.355 41.835C559.284 43.0486 558.482 44.4747 558 46.02C556.92 49.6616 556.92 53.5384 558 57.18C558.471 58.7171 559.252 60.1413 560.295 61.365C561.31 62.511 562.579 63.4046 564 63.975C565.585 64.599 567.277 64.9048 568.98 64.875C570.673 64.9049 572.356 64.599 573.93 63.975C575.341 63.4027 576.6 62.509 577.605 61.365C578.648 60.1413 579.429 58.7171 579.9 57.18C580.479 55.3725 580.767 53.484 580.755 51.585ZM590.13 30.78H597.9C598.629 30.7425 599.351 30.942 599.955 31.35C600.486 31.7146 600.886 32.2406 601.095 32.85L609.165 55.14C609.525 56.115 609.885 57.18 610.26 58.32C610.635 59.46 610.98 60.66 611.31 61.92C611.556 60.705 611.867 59.502 612.24 58.32C612.585 57.18 612.93 56.115 613.275 55.14L621.285 32.85C621.486 32.2447 621.875 31.7193 622.395 31.35C622.976 30.9088 623.691 30.681 624.42 30.705H632.265L615.57 72.345H606.825L590.13 30.78ZM668.73 72.42H661.23C660.495 72.45 659.771 72.246 659.16 71.835C658.629 71.4704 658.229 70.9444 658.02 70.335L655.575 63.075H639.75L637.29 70.335C637.059 70.9792 636.629 71.5337 636.063 71.919C635.498 72.3043 634.824 72.5007 634.14 72.48H626.64L642.765 30.84H652.65L668.73 72.42ZM642 56.505H653.385L649.5 45.09C649.26 44.37 648.975 43.59 648.63 42.54C648.285 41.49 647.97 40.5 647.655 39.345C647.345 40.515 647.03 41.595 646.71 42.585C646.38 43.575 646.08 44.43 645.795 45.15L642 56.505ZM697.77 30.78V38.43H686.055V72.42H676.395V38.43H664.68V30.78H697.77ZM702.63 30.78H712.35V72.42H702.63V30.78ZM761.175 51.585C761.215 54.455 760.706 57.3062 759.675 59.985C758.68 62.5124 757.185 64.8133 755.28 66.75C753.346 68.7057 751.027 70.2381 748.47 71.25C742.766 73.4294 736.459 73.4294 730.755 71.25C728.197 70.2579 725.872 68.7458 723.928 66.8094C721.984 64.873 720.462 62.5544 719.46 60C717.381 54.593 717.381 48.607 719.46 43.2C720.452 40.6751 721.947 38.3785 723.855 36.45C725.806 34.5014 728.133 32.9703 730.695 31.95C736.397 29.7601 742.708 29.7601 748.41 31.95C750.962 32.973 753.278 34.504 755.22 36.45C757.128 38.3785 758.623 40.6751 759.615 43.2C760.669 45.8687 761.199 48.7157 761.175 51.585ZM751.275 51.585C751.305 49.6997 751.037 47.8215 750.48 46.02C750.003 44.4853 749.223 43.0621 748.185 41.835C747.173 40.6943 745.917 39.7969 744.51 39.21C741.312 37.9905 737.778 37.9905 734.58 39.21C733.164 39.7889 731.901 40.6873 730.89 41.835C729.842 43.0571 729.055 44.4816 728.58 46.02C727.52 49.6644 727.52 53.5356 728.58 57.18C729.062 58.7158 729.847 60.139 730.89 61.365C731.898 62.5124 733.162 63.4065 734.58 63.975C737.781 65.175 741.309 65.175 744.51 63.975C745.919 63.3985 747.177 62.5054 748.185 61.365C749.217 60.1339 749.997 58.7119 750.48 57.18C751.038 55.368 751.307 53.4795 751.275 51.585ZM771.945 30.84C772.215 30.8685 772.478 30.939 772.725 31.05C772.959 31.1648 773.176 31.3112 773.37 31.485C773.628 31.728 773.868 31.989 774.09 32.265L793.875 57.27C793.875 56.475 793.74 55.695 793.695 54.945C793.65 54.195 793.695 53.445 793.695 52.815V30.78H802.215V72.42H797.19C796.543 72.4421 795.898 72.3244 795.3 72.075C794.704 71.785 794.189 71.3521 793.8 70.815L774.12 46.005C774.12 46.74 774.225 47.505 774.255 48.135C774.285 48.765 774.255 49.485 774.255 50.1V72.42H765.735V30.78H770.835C771.206 30.771 771.578 30.7905 771.945 30.84ZM477 127.62H473.055C472.656 127.637 472.264 127.515 471.945 127.275C471.657 127.05 471.439 126.748 471.315 126.405L467.775 117.285H450.825L447.3 126.405C447.159 126.731 446.943 127.018 446.67 127.245C446.358 127.5 445.963 127.634 445.56 127.62H441.6L456.705 89.835H461.895L477 127.62ZM452.25 113.595H466.35L460.425 98.22C459.968 97.061 459.587 95.8735 459.285 94.665C459.09 95.385 458.91 96.045 458.73 96.66C458.55 97.275 458.355 97.8 458.175 98.25L452.25 113.595ZM507.24 119.82C507.385 119.819 507.528 119.85 507.66 119.909C507.792 119.969 507.91 120.056 508.005 120.165L510.015 122.34C508.472 124.137 506.551 125.571 504.39 126.54C501.868 127.605 499.147 128.116 496.41 128.04C493.87 128.077 491.349 127.598 489 126.63C486.854 125.728 484.926 124.378 483.345 122.67C481.729 120.909 480.489 118.837 479.7 116.58C478.821 114.064 478.384 111.415 478.41 108.75C478.382 106.077 478.849 103.422 479.79 100.92C480.657 98.6376 481.978 96.5554 483.675 94.8C485.379 93.0746 487.422 91.7211 489.675 90.825C492.131 89.8665 494.749 89.3878 497.385 89.415C499.693 89.332 501.994 89.7142 504.15 90.5388C506.307 91.3634 508.276 92.6137 509.94 94.215L508.275 96.57C508.155 96.7335 508.014 96.879 507.855 97.005C507.646 97.1249 507.406 97.1821 507.165 97.17C506.904 97.1629 506.652 97.0737 506.445 96.915L505.53 96.3C505.185 96.06 504.765 95.79 504.3 95.505C503.757 95.1991 503.19 94.9382 502.605 94.725C501.869 94.4517 501.111 94.241 500.34 94.095C499.35 93.921 498.345 93.8415 497.34 93.855C495.445 93.8323 493.564 94.184 491.805 94.89C490.156 95.5645 488.672 96.5879 487.455 97.89C486.204 99.2458 485.244 100.844 484.635 102.585C483.925 104.572 483.58 106.67 483.615 108.78C483.575 110.924 483.921 113.058 484.635 115.08C485.234 116.804 486.172 118.39 487.395 119.745C488.55 121.011 489.968 122.01 491.55 122.67C493.186 123.344 494.94 123.685 496.71 123.675C497.714 123.679 498.717 123.609 499.71 123.465C500.56 123.349 501.394 123.143 502.2 122.85C502.953 122.577 503.673 122.22 504.345 121.785C505.046 121.334 505.712 120.833 506.34 120.285C506.45 120.149 506.586 120.038 506.741 119.958C506.896 119.878 507.066 119.831 507.24 119.82ZM543.36 119.82C543.505 119.819 543.648 119.85 543.78 119.909C543.912 119.969 544.03 120.056 544.125 120.165L546.135 122.34C544.589 124.14 542.662 125.574 540.495 126.54C537.978 127.604 535.262 128.115 532.53 128.04C529.99 128.078 527.469 127.598 525.12 126.63C522.968 125.732 521.034 124.382 519.45 122.67C517.843 120.904 516.609 118.833 515.82 116.58C514.934 114.066 514.497 111.416 514.53 108.75C514.494 106.076 514.962 103.42 515.91 100.92C516.771 98.6351 518.094 96.5519 519.795 94.8C521.496 93.0717 523.54 91.7178 525.795 90.825C528.251 89.865 530.868 89.3863 533.505 89.415C535.811 89.3297 538.11 89.7109 540.265 90.5357C542.42 91.3605 544.386 92.612 546.045 94.215L544.395 96.57C544.27 96.729 544.13 96.8748 543.975 97.005C543.766 97.1249 543.526 97.1821 543.285 97.17C543.024 97.1629 542.772 97.0737 542.565 96.915L541.65 96.3C541.29 96.06 540.885 95.79 540.405 95.505C539.868 95.1989 539.306 94.938 538.725 94.725C537.988 94.4552 537.231 94.2445 536.46 94.095C535.47 93.921 534.465 93.8415 533.46 93.855C531.56 93.8321 529.674 94.1838 527.91 94.89C526.265 95.5645 524.786 96.5881 523.575 97.89C522.316 99.2426 521.351 100.841 520.74 102.585C520.037 104.574 519.692 106.671 519.72 108.78C519.687 110.924 520.032 113.056 520.74 115.08C521.344 116.805 522.288 118.391 523.515 119.745C524.67 121.011 526.088 122.01 527.67 122.67C529.306 123.344 531.06 123.685 532.83 123.675C533.834 123.678 534.837 123.609 535.83 123.465C536.679 123.347 537.514 123.141 538.32 122.85C539.07 122.58 539.784 122.223 540.45 121.785C541.152 121.337 541.82 120.836 542.445 120.285C542.558 120.149 542.697 120.038 542.855 119.958C543.012 119.878 543.184 119.831 543.36 119.82ZM576.135 89.835V94.005H558V106.5H572.67V110.505H558V123.39H576.135V127.56H552.855V89.835H576.135ZM588.6 123.315H604.935V127.62H583.5V89.835H588.615L588.6 123.315ZM633.855 89.835V94.005H615.72V106.5H630.405V110.505H615.72V123.39H633.855V127.56H610.59V89.835H633.855ZM646.83 111.855V127.62H641.745V89.835H652.5C654.589 89.8037 656.672 90.0509 658.695 90.57C660.255 90.9694 661.719 91.6784 663 92.655C664.095 93.5408 664.959 94.6781 665.52 95.97C666.075 97.347 666.351 98.82 666.33 100.305C666.339 101.582 666.126 102.851 665.7 104.055C665.283 105.197 664.663 106.254 663.87 107.175C663.036 108.12 662.046 108.916 660.945 109.53C659.719 110.215 658.4 110.721 657.03 111.03C657.702 111.435 658.275 111.982 658.71 112.635L669.735 127.635H665.235C664.826 127.662 664.418 127.575 664.055 127.385C663.693 127.194 663.39 126.907 663.18 126.555L653.37 113.055C653.117 112.682 652.784 112.369 652.395 112.14C651.892 111.933 651.349 111.841 650.805 111.87L646.83 111.855ZM646.83 108.135H652.185C653.515 108.158 654.841 107.976 656.115 107.595C657.157 107.294 658.127 106.784 658.965 106.095C659.719 105.459 660.311 104.651 660.69 103.74C661.085 102.79 661.284 101.769 661.275 100.74C661.341 99.7764 661.174 98.8109 660.788 97.9257C660.401 97.0405 659.807 96.2615 659.055 95.655C657.093 94.3711 654.764 93.7652 652.425 93.93H646.83V108.135ZM706.245 127.62H702.3C701.901 127.639 701.508 127.517 701.19 127.275C700.902 127.05 700.684 126.748 700.56 126.405L697.02 117.285H680.07L676.5 126.405C676.359 126.735 676.137 127.023 675.855 127.245C675.549 127.5 675.159 127.634 674.76 127.62H670.8L685.905 89.835H691.095L706.245 127.62ZM681.495 113.595H695.595L689.595 98.22C689.138 97.061 688.757 95.8735 688.455 94.665C688.26 95.385 688.08 96.045 687.885 96.66C687.69 97.275 687.525 97.8 687.345 98.25L681.495 113.595ZM733.26 89.835V94.14H721.065V127.62H715.95V94.14H703.695V89.835H733.26ZM771.15 108.75C771.178 111.406 770.721 114.044 769.8 116.535C768.967 118.809 767.675 120.887 766.005 122.64C764.342 124.361 762.333 125.711 760.11 126.6C755.219 128.479 749.806 128.479 744.915 126.6C742.699 125.707 740.696 124.358 739.035 122.64C737.37 120.883 736.079 118.806 735.24 116.535C733.461 111.492 733.461 105.993 735.24 100.95C736.082 98.6807 737.373 96.6043 739.035 94.845C740.689 93.1088 742.694 91.7437 744.915 90.84C749.803 88.944 755.222 88.944 760.11 90.84C762.338 91.74 764.348 93.105 766.005 94.845C767.672 96.601 768.963 98.6783 769.8 100.95C770.723 103.446 771.18 106.089 771.15 108.75ZM765.9 108.75C765.931 106.627 765.612 104.514 764.955 102.495C764.39 100.768 763.476 99.1746 762.27 97.815C761.101 96.512 759.656 95.4869 758.04 94.815C754.485 93.456 750.555 93.456 747 94.815C745.386 95.4913 743.942 96.5157 742.77 97.815C741.554 99.1697 740.634 100.764 740.07 102.495C738.806 106.559 738.806 110.911 740.07 114.975C740.634 116.702 741.554 118.291 742.77 119.64C743.937 120.945 745.383 121.97 747 122.64C750.554 123.999 754.487 123.999 758.04 122.64C759.659 121.974 761.106 120.948 762.27 119.64C763.476 118.286 764.39 116.698 764.955 114.975C765.612 112.967 765.932 110.864 765.9 108.75ZM783.75 111.855V127.62H778.665V89.835H789.33C791.419 89.8022 793.502 90.0494 795.525 90.57C797.09 90.9695 798.559 91.6784 799.845 92.655C800.94 93.5408 801.804 94.6781 802.365 95.97C802.92 97.347 803.196 98.82 803.175 100.305C803.184 101.582 802.971 102.851 802.545 104.055C802.128 105.197 801.508 106.254 800.715 107.175C799.878 108.117 798.889 108.913 797.79 109.53C796.564 110.215 795.245 110.721 793.875 111.03C794.547 111.435 795.12 111.982 795.555 112.635L806.58 127.635H802.08C801.669 127.661 801.259 127.574 800.894 127.384C800.529 127.194 800.224 126.907 800.01 126.555L790.215 113.055C789.962 112.682 789.629 112.369 789.24 112.14C788.737 111.933 788.193 111.841 787.65 111.87L783.75 111.855ZM783.75 108.135H789.105C790.435 108.158 791.761 107.976 793.035 107.595C794.077 107.294 795.047 106.784 795.885 106.095C796.635 105.455 797.226 104.648 797.61 103.74C798.005 102.79 798.204 101.769 798.195 100.74C798.26 99.7751 798.09 98.8089 797.701 97.9235C797.312 97.0382 796.715 96.26 795.96 95.655C794 94.3668 791.67 93.7606 789.33 93.93H783.75V108.135Z" fill="white"/>
            <path fill-rule="evenodd" clip-rule="evenodd" d="M403.05 0.66H404.55V157.695H403.05V0.66Z" fill="white"/>
        </g>
    </g>
    <defs>
        <clipPath id="clip0_663_52">
            <rect width="807" height="158" fill="white"/>
        </clipPath>
    </defs>
</svg>
